<svg width="416" height="229" viewBox="0 0 416 229" fill="none" xmlns="http://www.w3.org/2000/svg">
<mask id="mask0_423_39441" style="mask-type:luminance" maskUnits="userSpaceOnUse" x="32" y="0" width="352" height="176">
<path d="M32.3613 0.000244141H383.356V175.884H32.3613V0.000244141Z" fill="white"/>
</mask>
<g mask="url(#mask0_423_39441)">
<path fill-rule="evenodd" clip-rule="evenodd" d="M309.818 112.368C314.364 112.368 315.841 118.524 312.073 120.721C313.661 123.719 315.124 126.802 316.454 129.951L325.568 126.939L316.988 131.25C318.274 134.39 319.421 137.597 320.431 140.87C325.991 139.434 328.259 148.023 322.748 149.526C323.976 154.93 324.825 160.472 325.279 166.13L383.64 175.631H234.341C234.341 161.091 222.55 149.299 208.005 149.299C193.46 149.299 181.665 161.091 181.665 175.631H32.3701L90.7313 166.13C91.1805 160.472 92.039 154.93 93.2622 149.526C87.7556 148.023 90.0196 139.434 95.5751 140.87C96.5892 137.597 97.7323 134.39 99.0133 131.25L90.4333 126.939L99.5515 129.951C100.881 126.802 102.345 123.719 103.933 120.721C98.9688 117.817 103.528 110.14 108.416 112.969C112.286 106.835 116.698 101.084 121.6 95.7818L104.738 72.359L128.165 89.2345C133.458 84.3328 139.209 79.9161 145.334 76.0464C142.518 71.1448 150.191 66.5945 153.091 71.5584C156.089 69.9749 159.176 68.5071 162.325 67.1817L159.305 58.0634L163.619 66.639C166.76 65.3624 169.967 64.2149 173.24 63.2052C171.804 57.6409 180.393 55.3858 181.896 60.8923C187.3 59.6647 192.842 58.8151 198.504 58.357L208.005 0.000244141L217.502 58.357C223.159 58.8151 228.706 59.6647 234.11 60.8923C235.613 55.3858 244.211 57.6498 242.77 63.2008C246.035 64.2149 249.246 65.3624 252.387 66.639L256.701 58.0634L253.685 67.1817C256.834 68.5071 259.912 69.9749 262.915 71.5584C265.815 66.5945 273.496 71.1492 270.672 76.0464C276.801 79.9161 282.548 84.3328 287.85 89.23L311.268 72.359L294.411 95.7996C299.303 101.084 303.72 106.835 307.59 112.969C308.244 112.586 309.004 112.368 309.818 112.368ZM369.549 175.368L239.763 154.241C243.428 159.672 245.741 166.09 246.208 173.016L369.549 175.368ZM311.281 121.086C306.727 122.674 303.342 116.558 306.878 113.471C303.062 107.422 298.712 101.742 293.89 96.5112L266.682 134.296C267.808 135.889 268.866 137.526 269.858 139.207L294.953 124.72L295.567 125.792L270.481 140.274C271.255 141.64 271.98 143.028 272.665 144.438L315.623 130.227C314.306 127.108 312.856 124.053 311.281 121.086ZM104.724 121.086C109.284 122.669 112.673 116.558 109.123 113.471C112.94 107.418 117.294 101.742 122.12 96.5112L149.324 134.296C148.198 135.889 147.135 137.526 146.148 139.207L121.057 124.72L120.435 125.792L145.525 140.274C144.756 141.64 144.026 143.028 143.341 144.438L100.383 130.227C101.695 127.108 103.145 124.053 104.724 121.086ZM171.572 113.774L157.09 88.6874L158.162 88.0646L172.649 113.16C174.005 112.39 175.393 111.661 176.807 110.976L162.596 68.0179C159.474 69.33 156.427 70.78 153.456 72.3501C155.026 76.9137 148.932 80.303 145.841 76.758C139.792 80.5699 134.112 84.9244 128.886 89.7549L166.666 116.954C168.254 115.829 169.895 114.766 171.572 113.774ZM188.826 106.452L181.327 78.4705L182.523 78.1547L190.018 106.132L190.756 105.945L198.362 59.2466C192.802 59.7002 187.349 60.5454 182.043 61.7507C182.385 66.6301 175.593 68.2492 173.538 64.0236C170.305 65.0244 167.124 66.1586 164.011 67.4263L184.338 107.853C185.81 107.342 187.309 106.87 188.826 106.452ZM138.498 157.652L110.516 150.153L110.845 148.961L138.822 156.456C139.24 154.939 139.707 153.44 140.219 151.968L99.7962 131.645C98.5285 134.754 97.3943 137.935 96.3935 141.173C100.619 143.228 99.0044 150.011 94.1206 149.673C92.9197 154.988 92.0701 160.432 91.6164 165.988L138.315 158.386L138.498 157.652ZM225.25 105.945L225.984 106.128L233.483 78.1502L234.679 78.4705L227.18 106.452C228.701 106.866 230.191 107.333 231.668 107.849L251.995 67.4263C248.882 66.1586 245.701 65.0244 242.463 64.0236C240.417 68.2492 233.621 66.6301 233.968 61.7507C228.657 60.5454 223.204 59.7002 217.648 59.2466L225.25 105.945ZM239.198 110.976C240.613 111.661 241.996 112.39 243.362 113.16L257.849 88.0646L258.912 88.6874L244.434 113.774C246.115 114.766 247.752 115.837 249.344 116.958L287.129 89.7549C281.894 84.9244 276.214 80.5699 270.165 76.758C267.078 80.2941 260.98 76.9137 262.55 72.3501C259.579 70.78 256.532 69.33 253.41 68.0179L239.198 110.976ZM229.698 133.264C231.988 147.347 230.129 143.601 235.08 148.556L303.547 80.0984L229.698 133.264ZM247.205 118.493C240.737 114.045 233.478 110.673 225.69 108.623L229.382 131.325L247.205 118.493ZM208.005 106.341V12.4411L186.606 143.873C192.713 139.749 200.075 137.339 208.005 137.339V106.341ZM252.315 154.259L275.018 157.95C272.963 150.153 269.587 142.894 265.143 136.436L252.315 154.259ZM277.691 158.386L324.39 165.992C323.936 160.432 323.095 154.988 321.885 149.673C317.006 150.015 315.387 143.228 319.612 141.173C318.612 137.935 317.477 134.754 316.21 131.645L275.787 151.968C276.299 153.44 276.77 154.939 277.188 156.456L305.17 148.961L305.486 150.153L277.508 157.652L277.691 158.386ZM122.827 94.483L165.634 153.943C179.69 151.648 175.98 153.507 180.931 148.556L112.464 80.0984L122.827 94.483ZM140.993 157.95L163.695 154.259L150.863 136.436C146.419 142.894 143.043 150.153 140.993 157.95ZM186.628 131.325L190.32 108.614C182.523 110.673 175.268 114.045 168.806 118.493L186.628 131.325Z" fill="#125C0A"/>
</g>
<path d="M401.914 228.552C399.108 228.552 396.628 228.064 394.473 227.088C392.358 226.112 390.691 224.75 389.471 223.001C388.251 221.253 387.6 219.301 387.519 217.145H392.033C392.236 219.219 393.151 221.049 394.778 222.635C396.404 224.18 398.783 224.953 401.914 224.953C404.801 224.953 407.079 224.221 408.746 222.757C410.454 221.253 411.308 219.362 411.308 217.084C411.308 215.255 410.84 213.791 409.905 212.693C408.969 211.554 407.811 210.72 406.428 210.192C405.045 209.623 403.134 209.013 400.694 208.362C397.848 207.589 395.591 206.837 393.924 206.105C392.256 205.373 390.833 204.234 389.654 202.689C388.475 201.144 387.885 199.05 387.885 196.407C387.885 194.211 388.454 192.259 389.593 190.551C390.732 188.802 392.338 187.44 394.412 186.464C396.486 185.488 398.864 185 401.548 185C405.493 185 408.664 185.976 411.064 187.928C413.504 189.839 414.906 192.32 415.272 195.37H410.637C410.352 193.621 409.396 192.076 407.77 190.734C406.143 189.351 403.947 188.66 401.182 188.66C398.62 188.66 396.486 189.351 394.778 190.734C393.07 192.076 392.216 193.926 392.216 196.285C392.216 198.074 392.683 199.517 393.619 200.615C394.554 201.713 395.713 202.547 397.095 203.116C398.519 203.686 400.43 204.295 402.829 204.946C405.594 205.719 407.831 206.491 409.539 207.264C411.247 207.996 412.69 209.135 413.87 210.68C415.049 212.225 415.638 214.299 415.638 216.901C415.638 218.894 415.11 220.785 414.053 222.574C412.995 224.363 411.43 225.807 409.356 226.905C407.282 228.003 404.801 228.552 401.914 228.552Z" fill="#115B09"/>
<path d="M367.008 228.552C364.202 228.552 361.722 228.064 359.566 227.088C357.452 226.112 355.785 224.75 354.565 223.001C353.345 221.253 352.694 219.301 352.613 217.145H357.127C357.33 219.219 358.245 221.049 359.871 222.635C361.498 224.18 363.877 224.953 367.008 224.953C369.895 224.953 372.172 224.221 373.84 222.757C375.548 221.253 376.402 219.362 376.402 217.084C376.402 215.255 375.934 213.791 374.999 212.693C374.063 211.554 372.904 210.72 371.522 210.192C370.139 209.623 368.228 209.013 365.788 208.362C362.942 207.589 360.685 206.837 359.018 206.105C357.35 205.373 355.927 204.234 354.748 202.689C353.569 201.144 352.979 199.05 352.979 196.407C352.979 194.211 353.548 192.259 354.687 190.551C355.825 188.802 357.432 187.44 359.506 186.464C361.579 185.488 363.958 185 366.642 185C370.587 185 373.758 185.976 376.158 187.928C378.597 189.839 380 192.32 380.366 195.37H375.731C375.446 193.621 374.49 192.076 372.864 190.734C371.237 189.351 369.041 188.66 366.276 188.66C363.714 188.66 361.579 189.351 359.871 190.734C358.164 192.076 357.31 193.926 357.31 196.285C357.31 198.074 357.777 199.517 358.713 200.615C359.648 201.713 360.807 202.547 362.189 203.116C363.613 203.686 365.524 204.295 367.923 204.946C370.688 205.719 372.925 206.491 374.633 207.264C376.341 207.996 377.784 209.135 378.963 210.68C380.143 212.225 380.732 214.299 380.732 216.901C380.732 218.894 380.204 220.785 379.146 222.574C378.089 224.363 376.524 225.807 374.45 226.905C372.376 228.003 369.895 228.552 367.008 228.552Z" fill="#115B09"/>
<path d="M338.99 217.999H319.593L315.872 228.125H311.358L326.912 186.037H331.731L347.224 228.125H342.711L338.99 217.999ZM337.709 214.461L329.291 191.405L320.874 214.461H337.709Z" fill="#115B09"/>
<path d="M307.122 197.749C307.122 201.408 305.922 204.357 303.523 206.593C301.124 208.83 297.525 209.948 292.727 209.948H284.126V228.125H279.856V185.488H292.727C297.484 185.488 301.063 186.607 303.462 188.843C305.902 191.08 307.122 194.048 307.122 197.749ZM292.727 206.288C299.396 206.288 302.73 203.442 302.73 197.749C302.73 194.902 301.937 192.747 300.351 191.283C298.765 189.819 296.224 189.087 292.727 189.087H284.126V206.288H292.727Z" fill="#115B09"/>
<path d="M270.17 186.037V228.125H265.901V194.516L250.895 228.125H247.785L232.78 194.638V228.125H228.51V186.037H233.024L249.31 222.513L265.596 186.037H270.17Z" fill="#115B09"/>
<path d="M199.592 228.552C195.648 228.552 192.069 227.637 188.857 225.807C185.644 223.936 183.103 221.354 181.232 218.06C179.402 214.726 178.487 210.964 178.487 206.776C178.487 202.588 179.402 198.846 181.232 195.553C183.103 192.218 185.644 189.636 188.857 187.806C192.069 185.936 195.648 185 199.592 185C203.577 185 207.176 185.936 210.388 187.806C213.601 189.636 216.122 192.218 217.952 195.553C219.782 198.846 220.697 202.588 220.697 206.776C220.697 210.964 219.782 214.726 217.952 218.06C216.122 221.354 213.601 223.936 210.388 225.807C207.176 227.637 203.577 228.552 199.592 228.552ZM199.592 224.831C202.764 224.831 205.61 224.099 208.132 222.635C210.653 221.171 212.645 219.077 214.109 216.352C215.573 213.587 216.305 210.395 216.305 206.776C216.305 203.157 215.573 199.985 214.109 197.261C212.645 194.536 210.653 192.442 208.132 190.978C205.61 189.514 202.764 188.782 199.592 188.782C196.42 188.782 193.574 189.514 191.053 190.978C188.531 192.442 186.539 194.536 185.075 197.261C183.611 199.985 182.879 203.157 182.879 206.776C182.879 210.395 183.611 213.587 185.075 216.352C186.539 219.077 188.531 221.171 191.053 222.635C193.574 224.099 196.42 224.831 199.592 224.831Z" fill="#115B09"/>
<path d="M131.429 206.776C131.429 202.588 132.344 198.846 134.174 195.553C136.004 192.218 138.505 189.636 141.677 187.806C144.849 185.936 148.386 185 152.29 185C157.048 185 161.114 186.139 164.49 188.416C167.905 190.653 170.386 193.824 171.931 197.932H166.929C165.709 195.044 163.839 192.787 161.318 191.161C158.837 189.534 155.828 188.721 152.29 188.721C149.159 188.721 146.333 189.453 143.812 190.917C141.331 192.381 139.379 194.495 137.956 197.261C136.533 199.985 135.821 203.157 135.821 206.776C135.821 210.395 136.533 213.567 137.956 216.291C139.379 219.016 141.331 221.11 143.812 222.574C146.333 224.038 149.159 224.77 152.29 224.77C155.828 224.77 158.837 223.977 161.318 222.391C163.839 220.765 165.709 218.528 166.929 215.681H171.931C170.386 219.748 167.905 222.899 164.49 225.136C161.074 227.372 157.007 228.491 152.29 228.491C148.386 228.491 144.849 227.576 141.677 225.746C138.505 223.875 136.004 221.293 134.174 217.999C132.344 214.706 131.429 210.964 131.429 206.776Z" fill="#115B09"/>
<path d="M99.8424 197.932C98.7444 195.817 97.2195 194.231 95.2676 193.174C93.3158 192.076 91.0589 191.527 88.497 191.527C85.6912 191.527 83.1903 192.157 80.9945 193.418C78.7986 194.678 77.0703 196.468 75.8097 198.786C74.5898 201.103 73.9799 203.787 73.9799 206.837C73.9799 209.887 74.5898 212.591 75.8097 214.95C77.0703 217.268 78.7986 219.057 80.9945 220.317C83.1903 221.578 85.6912 222.208 88.497 222.208C92.2788 222.208 95.349 221.151 97.7075 219.036C100.066 216.922 101.51 214.055 102.038 210.436H86.1182V204.885H109.48V210.314C109.033 213.608 107.853 216.637 105.942 219.402C104.071 222.168 101.611 224.384 98.5615 226.051C95.5523 227.678 92.1975 228.491 88.497 228.491C84.5119 228.491 80.8725 227.576 77.5786 225.746C74.2848 223.875 71.662 221.293 69.7101 217.999C67.7989 214.706 66.8433 210.985 66.8433 206.837C66.8433 202.689 67.7989 198.969 69.7101 195.675C71.662 192.381 74.2848 189.819 77.5786 187.989C80.9131 186.119 84.5526 185.183 88.497 185.183C93.0108 185.183 97.0162 186.302 100.513 188.538C104.051 190.734 106.613 193.865 108.199 197.932H99.8424Z" fill="#115B09"/>
<path d="M46.3169 228.552C43.4704 228.552 40.9086 228.064 38.6314 227.088C36.3542 226.071 34.5649 224.648 33.2637 222.818C31.9624 220.988 31.3118 218.853 31.3118 216.414H38.7533C38.916 218.243 39.6276 219.748 40.8882 220.927C42.1895 222.107 43.999 222.696 46.3169 222.696C48.7161 222.696 50.5867 222.127 51.9286 220.988C53.2705 219.809 53.9415 218.304 53.9415 216.475C53.9415 215.051 53.5145 213.892 52.6606 212.998C51.8473 212.103 50.8103 211.412 49.5497 210.924C48.3298 210.436 46.6219 209.907 44.426 209.338C41.6608 208.606 39.404 207.874 37.6554 207.142C35.9475 206.369 34.4836 205.19 33.2637 203.604C32.0437 202.018 31.4338 199.904 31.4338 197.261C31.4338 194.821 32.0437 192.686 33.2637 190.856C34.4836 189.026 36.1915 187.623 38.3874 186.647C40.5832 185.671 43.1248 185.183 46.0119 185.183C50.119 185.183 53.4738 186.22 56.0764 188.294C58.7195 190.327 60.1835 193.133 60.4681 196.712H52.7826C52.6606 195.166 51.9286 193.845 50.5867 192.747C49.2448 191.649 47.4759 191.1 45.28 191.1C43.2874 191.1 41.6608 191.608 40.4003 192.625C39.1397 193.642 38.5094 195.105 38.5094 197.017C38.5094 198.318 38.8957 199.396 39.6683 200.249C40.4816 201.063 41.4982 201.713 42.7181 202.201C43.9381 202.689 45.6053 203.218 47.7198 203.787C50.5257 204.56 52.8029 205.333 54.5514 206.105C56.3407 206.878 57.8453 208.077 59.0652 209.704C60.3258 211.29 60.9561 213.425 60.9561 216.109C60.9561 218.264 60.3665 220.297 59.1872 222.208C58.0486 224.119 56.361 225.665 54.1245 226.844C51.9286 227.983 49.3261 228.552 46.3169 228.552Z" fill="#115B09"/>
<path d="M7.31493 191.344V203.787H21.9541V209.46H7.31493V222.452H23.784V228.125H0.361328V185.671H23.784V191.344H7.31493Z" fill="#115B09"/>
</svg>
