<svg width="73" height="74" viewBox="0 0 73 74" fill="none" xmlns="http://www.w3.org/2000/svg">
<rect y="0.695312" width="72.9545" height="72.9545" rx="36.4773" fill="#F59E0B"/>
<path d="M42.9261 41.9261C42.9248 42.1958 42.8172 42.4541 42.6268 42.645C42.4363 42.8359 42.1783 42.9441 41.9086 42.9461H31.0411C30.7706 42.9461 30.5111 42.8386 30.3198 42.6473C30.1286 42.456 30.0211 42.1966 30.0211 41.9261C30.0211 41.6556 30.1286 41.3961 30.3198 41.2048C30.5111 41.0135 30.7706 40.9061 31.0411 40.9061H41.9086C42.1787 40.9074 42.4374 41.0153 42.6284 41.2063C42.8194 41.3973 42.9273 41.656 42.9286 41.9261M41.9111 35.4736H31.0411C30.7796 35.4865 30.5332 35.5995 30.3527 35.7892C30.1722 35.9788 30.0716 36.2305 30.0716 36.4923C30.0716 36.7541 30.1722 37.0059 30.3527 37.1955C30.5332 37.3851 30.7796 37.4981 31.0411 37.5111H41.9086C42.1701 37.4981 42.4165 37.3851 42.597 37.1955C42.7775 37.0059 42.8781 36.7541 42.8781 36.4923C42.8781 36.2305 42.7775 35.9788 42.597 35.7892C42.4165 35.5995 42.1726 35.4865 41.9111 35.4736ZM51.0786 24.2661V52.7936C51.0789 53.1057 51.0177 53.4148 50.8985 53.7032C50.7793 53.9917 50.6044 54.2538 50.3839 54.4746C50.1633 54.6954 49.9014 54.8705 49.613 54.9901C49.3247 55.1096 49.0157 55.1711 48.7036 55.1711H24.2461C23.6162 55.1711 23.0121 54.9209 22.5667 54.4755C22.1213 54.0301 21.8711 53.426 21.8711 52.7961V24.2636C21.8708 23.9515 21.932 23.6424 22.0512 23.3539C22.1704 23.0655 22.3453 22.8034 22.5658 22.5826C22.7864 22.3618 23.0483 22.1866 23.3366 22.0671C23.625 21.9476 23.934 21.8861 24.2461 21.8861H30.5586C31.2904 21.0335 32.1978 20.3492 33.2188 19.88C34.2397 19.4109 35.35 19.168 36.4736 19.168C37.5972 19.168 38.7075 19.4109 39.7284 19.88C40.7494 20.3492 41.6568 21.0335 42.3886 21.8861H48.6986C49.0107 21.8858 49.3198 21.9469 49.6082 22.0661C49.8967 22.1854 50.1588 22.3602 50.3796 22.5808C50.6004 22.8014 50.7756 23.0633 50.8951 23.3516C51.0146 23.6399 51.0761 23.949 51.0761 24.2611M30.7011 26.9786V27.3161H42.2461V26.9786C42.2621 26.2103 42.1246 25.4465 41.8416 24.732C41.5586 24.0175 41.1359 23.3666 40.5981 22.8176C40.0604 22.2686 39.4185 21.8324 38.7101 21.5346C38.0016 21.2368 37.2408 21.0834 36.4723 21.0834C35.7038 21.0834 34.9431 21.2368 34.2346 21.5346C33.5262 21.8324 32.8843 22.2686 32.3465 22.8176C31.8088 23.3666 31.3861 24.0175 31.1031 24.732C30.8201 25.4465 30.6851 26.2103 30.7011 26.9786ZM49.0361 24.2611C49.0361 24.2164 49.0273 24.1722 49.0102 24.131C48.9931 24.0897 48.9681 24.0522 48.9365 24.0207C48.9049 23.9891 48.8675 23.964 48.8262 23.947C48.785 23.9299 48.7407 23.9211 48.6961 23.9211H43.6586C44.0711 24.8861 44.2836 25.9261 44.2836 26.9786V28.3361C44.2823 28.6062 44.1744 28.8649 43.9834 29.0559C43.7924 29.2469 43.5337 29.3548 43.2636 29.3561H29.6836C29.4135 29.3548 29.1548 29.2469 28.9638 29.0559C28.7728 28.8649 28.6649 28.6062 28.6636 28.3361V26.9786C28.6636 25.9286 28.8761 24.8861 29.2886 23.9211H24.2461C24.2014 23.9211 24.1572 23.9299 24.116 23.947C24.0747 23.964 24.0373 23.9891 24.0057 24.0207C23.9741 24.0522 23.9491 24.0897 23.932 24.131C23.9149 24.1722 23.9061 24.2164 23.9061 24.2611V52.7886C23.9061 52.8788 23.9419 52.9652 24.0057 53.029C24.0694 53.0928 24.1559 53.1286 24.2461 53.1286H48.6986C48.7888 53.1286 48.8752 53.0928 48.939 53.029C49.0028 52.9652 49.0386 52.8788 49.0386 52.7886L49.0361 24.2611Z" fill="white"/>
</svg>
