<svg width="73" height="74" viewBox="0 0 73 74" fill="none" xmlns="http://www.w3.org/2000/svg">
<rect y="0.695312" width="72.9545" height="72.9545" rx="36.4773" fill="#00BD73"/>
<path fill-rule="evenodd" clip-rule="evenodd" d="M29.8099 28.8385C29.8099 27.0704 30.5123 25.3747 31.7625 24.1245C33.0128 22.8743 34.7085 22.1719 36.4766 22.1719C38.2447 22.1719 39.9404 22.8743 41.1906 24.1245C42.4408 25.3747 43.1432 27.0704 43.1432 28.8385C43.1432 30.6067 42.4408 32.3023 41.1906 33.5526C39.9404 34.8028 38.2447 35.5052 36.4766 35.5052C34.7085 35.5052 33.0128 34.8028 31.7625 33.5526C30.5123 32.3023 29.8099 30.6067 29.8099 28.8385ZM29.8099 38.8385C27.5998 38.8385 25.4801 39.7165 23.9173 41.2793C22.3545 42.8421 21.4766 44.9617 21.4766 47.1719C21.4766 48.498 22.0033 49.7697 22.941 50.7074C23.8787 51.6451 25.1505 52.1719 26.4766 52.1719H46.4766C47.8026 52.1719 49.0744 51.6451 50.0121 50.7074C50.9498 49.7697 51.4766 48.498 51.4766 47.1719C51.4766 44.9617 50.5986 42.8421 49.0358 41.2793C47.473 39.7165 45.3534 38.8385 43.1432 38.8385H29.8099Z" fill="white"/>
</svg>
