<svg width="28" height="29" viewBox="0 0 28 29" fill="none" xmlns="http://www.w3.org/2000/svg">
<path fill-rule="evenodd" clip-rule="evenodd" d="M12.5832 3.14914C12.9962 2.73669 13.5488 2.494 14.1319 2.46895C14.715 2.4439 15.2864 2.6383 15.7332 3.01381L15.8825 3.15031L18.0992 5.36581H21.2329C21.8213 5.36591 22.388 5.58837 22.8194 5.98862C23.2508 6.38886 23.5151 6.93733 23.5592 7.52414L23.5662 7.69914V10.8328L25.7829 13.0495C26.1956 13.4625 26.4385 14.0153 26.4636 14.5987C26.4887 15.1821 26.294 15.7537 25.9182 16.2006L25.7817 16.3488L23.565 18.5655V21.6991C23.5652 22.2878 23.3429 22.8548 22.9426 23.2864C22.5424 23.7181 21.9937 23.9825 21.4067 24.0266L21.2329 24.0325H18.1004L15.8837 26.2491C15.4707 26.6619 14.9179 26.9048 14.3345 26.9299C13.751 26.9549 13.1795 26.7603 12.7325 26.3845L12.5844 26.2491L10.3677 24.0325H7.23288C6.6442 24.0327 6.07721 23.8103 5.64557 23.4101C5.21392 23.0098 4.94953 22.4612 4.90538 21.8741L4.89954 21.6991V18.5655L2.68288 16.3488C2.2701 15.9358 2.02721 15.383 2.00215 14.7996C1.9771 14.2161 2.1717 13.6446 2.54754 13.1976L2.68288 13.0495L4.89954 10.8328V7.69914C4.89965 7.11067 5.12211 6.54397 5.52235 6.11257C5.92259 5.68117 6.47106 5.41694 7.05788 5.37281L7.23288 5.36581H10.3665L12.5832 3.14914Z" fill="#00BD73"/>
<path fill-rule="evenodd" clip-rule="evenodd" d="M17.5922 11.122L12.6408 16.1556L10.5782 14.0587C10.3592 13.8363 10.0624 13.7114 9.75292 13.7115C9.44343 13.7116 9.14667 13.8367 8.92791 14.0593C8.70915 14.2818 8.58632 14.5836 8.58643 14.8982C8.58654 15.2128 8.70958 15.5145 8.9285 15.7369L11.7332 18.5882C11.8523 18.7094 11.9938 18.8056 12.1496 18.8712C12.3053 18.9368 12.4722 18.9705 12.6408 18.9705C12.8094 18.9705 12.9763 18.9368 13.1321 18.8712C13.2878 18.8056 13.4293 18.7094 13.5485 18.5882L19.2418 12.7991C19.4543 12.5754 19.5719 12.2758 19.5693 11.9648C19.5666 11.6538 19.4439 11.3564 19.2276 11.1364C19.0113 10.9165 18.7187 10.7918 18.4128 10.7891C18.1069 10.7864 17.8122 10.906 17.5922 11.122Z" fill="white"/>
</svg>
