<svg width="73" height="74" viewBox="0 0 73 74" fill="none" xmlns="http://www.w3.org/2000/svg">
<rect y="0.695312" width="72.9545" height="72.9545" rx="36.4773" fill="#0170E5"/>
<path fill-rule="evenodd" clip-rule="evenodd" d="M21.4766 23.4219C21.4766 23.0904 21.6083 22.7724 21.8427 22.538C22.0771 22.3036 22.395 22.1719 22.7266 22.1719H50.2266C50.5581 22.1719 50.876 22.3036 51.1104 22.538C51.3449 22.7724 51.4766 23.0904 51.4766 23.4219V34.6719H48.9766V24.6719H23.9766V49.6719H28.9891V52.1719H22.7266C22.395 52.1719 22.0771 52.0402 21.8427 51.8058C21.6083 51.5713 21.4766 51.2534 21.4766 50.9219V23.4219ZM51.4616 40.5019L40.1616 51.7994C39.9273 52.0329 39.6099 52.1641 39.2791 52.1641C38.9482 52.1641 38.6309 52.0329 38.3966 51.7994L32.1216 45.5244L33.8866 43.7544L39.2791 49.1469L49.6941 38.7319L51.4616 40.5019Z" fill="white"/>
</svg>
