<svg width="73" height="74" viewBox="0 0 73 74" fill="none" xmlns="http://www.w3.org/2000/svg">
<rect y="0.695312" width="72.9545" height="72.9545" rx="36.4773" fill="#00BD73"/>
<path d="M46.4792 42.1719H43.1458V45.5052H46.4792M46.4792 35.5052H43.1458V38.8385H46.4792M49.8125 48.8385H36.4792V45.5052H39.8125V42.1719H36.4792V38.8385H39.8125V35.5052H36.4792V32.1719H49.8125M33.1458 28.8385H29.8125V25.5052H33.1458M33.1458 35.5052H29.8125V32.1719H33.1458M33.1458 42.1719H29.8125V38.8385H33.1458M33.1458 48.8385H29.8125V45.5052H33.1458M26.4792 28.8385H23.1458V25.5052H26.4792M26.4792 35.5052H23.1458V32.1719H26.4792M26.4792 42.1719H23.1458V38.8385H26.4792M26.4792 48.8385H23.1458V45.5052H26.4792M36.4792 28.8385V22.1719H19.8125V52.1719H53.1458V28.8385H36.4792Z" fill="white"/>
</svg>
