<svg width="73" height="74" viewBox="0 0 73 74" fill="none" xmlns="http://www.w3.org/2000/svg">
<rect y="0.695312" width="72.9545" height="72.9545" rx="36.4773" fill="#F03737"/>
<path d="M23.3579 48.5036C23.0979 48.5036 22.8679 48.4419 22.6679 48.3186C22.4679 48.1953 22.3123 48.0325 22.2012 47.8303C22.0812 47.6314 22.0145 47.4164 22.0012 47.1853C21.9901 46.953 22.0557 46.7192 22.1979 46.4836L35.3145 23.8569C35.4568 23.6214 35.6279 23.4503 35.8279 23.3436C36.0279 23.2369 36.2457 23.1836 36.4812 23.1836C36.7168 23.1836 36.934 23.2369 37.1329 23.3436C37.3318 23.4503 37.5029 23.6214 37.6462 23.8569L50.7645 46.4836C50.9068 46.7192 50.9718 46.9525 50.9595 47.1836C50.9484 47.4169 50.8818 47.6325 50.7595 47.8303C50.6484 48.0325 50.4929 48.1953 50.2929 48.3186C50.0929 48.4419 49.8634 48.5036 49.6045 48.5036H23.3579ZM36.4812 44.5303C36.7723 44.5303 37.0162 44.4319 37.2129 44.2353C37.4095 44.0386 37.5073 43.7947 37.5062 43.5036C37.5051 43.2125 37.4068 42.9692 37.2112 42.7736C37.0157 42.578 36.7723 42.4792 36.4812 42.4769C36.1901 42.4747 35.9468 42.573 35.7512 42.7719C35.5557 42.9708 35.4573 43.2147 35.4562 43.5036C35.4551 43.7925 35.5534 44.0364 35.7512 44.2353C35.949 44.4341 36.1923 44.5325 36.4812 44.5303ZM36.4812 40.8119C36.719 40.8119 36.9173 40.7319 37.0762 40.5719C37.2351 40.4119 37.3145 40.2141 37.3145 39.9786V33.3119C37.3145 33.0753 37.2345 32.8769 37.0745 32.7169C36.9145 32.5569 36.7162 32.4775 36.4795 32.4786C36.2429 32.4797 36.0451 32.5591 35.8862 32.7169C35.7273 32.8747 35.6479 33.073 35.6479 33.3119V39.9786C35.6479 40.2141 35.7279 40.4119 35.8879 40.5719C36.0479 40.7319 36.2462 40.8119 36.4829 40.8119" fill="white"/>
</svg>
