<svg width="73" height="74" viewBox="0 0 73 74" fill="none" xmlns="http://www.w3.org/2000/svg">
<rect y="0.695312" width="72.9545" height="72.9545" rx="36.4773" fill="#F97316"/>
<path d="M36.4792 20.5039C45.6842 20.5039 53.1458 27.9656 53.1458 37.1706C53.1458 46.3756 45.6842 53.8372 36.4792 53.8372C27.2742 53.8372 19.8125 46.3756 19.8125 37.1706C19.8125 27.9656 27.2742 20.5039 36.4792 20.5039ZM36.4792 23.8372C32.9429 23.8372 29.5516 25.242 27.0511 27.7425C24.5506 30.243 23.1458 33.6344 23.1458 37.1706C23.1458 40.7068 24.5506 44.0982 27.0511 46.5987C29.5516 49.0991 32.9429 50.5039 36.4792 50.5039C40.0154 50.5039 43.4068 49.0991 45.9073 46.5987C48.4077 44.0982 49.8125 40.7068 49.8125 37.1706C49.8125 33.6344 48.4077 30.243 45.9073 27.7425C43.4068 25.242 40.0154 23.8372 36.4792 23.8372ZM36.4792 42.1706C36.9212 42.1706 37.3451 42.3462 37.6577 42.6587C37.9702 42.9713 38.1458 43.3952 38.1458 43.8372C38.1458 44.2793 37.9702 44.7032 37.6577 45.0158C37.3451 45.3283 36.9212 45.5039 36.4792 45.5039C36.0371 45.5039 35.6132 45.3283 35.3007 45.0158C34.9881 44.7032 34.8125 44.2793 34.8125 43.8372C34.8125 43.3952 34.9881 42.9713 35.3007 42.6587C35.6132 42.3462 36.0371 42.1706 36.4792 42.1706ZM36.4792 27.1706C36.9212 27.1706 37.3451 27.3462 37.6577 27.6587C37.9702 27.9713 38.1458 28.3952 38.1458 28.8372V38.8372C38.1458 39.2793 37.9702 39.7032 37.6577 40.0158C37.3451 40.3283 36.9212 40.5039 36.4792 40.5039C36.0371 40.5039 35.6132 40.3283 35.3007 40.0158C34.9881 39.7032 34.8125 39.2793 34.8125 38.8372V28.8372C34.8125 28.3952 34.9881 27.9713 35.3007 27.6587C35.6132 27.3462 36.0371 27.1706 36.4792 27.1706Z" fill="white"/>
</svg>
