<svg width="24" height="24" viewBox="0 0 24 24" fill="none" xmlns="http://www.w3.org/2000/svg">
<path d="M11.9987 0.421875C18.4422 0.421875 23.6654 5.64504 23.6654 12.0885C23.6654 18.532 18.4422 23.7552 11.9987 23.7552C5.5552 23.7552 0.332031 18.532 0.332031 12.0885C0.332031 5.64504 5.5552 0.421875 11.9987 0.421875ZM11.9987 2.75521C9.52334 2.75521 7.14937 3.73854 5.39903 5.48888C3.6487 7.23922 2.66536 9.61319 2.66536 12.0885C2.66536 14.5639 3.6487 16.9379 5.39903 18.6882C7.14937 20.4385 9.52334 21.4219 11.9987 21.4219C14.4741 21.4219 16.848 20.4385 18.5984 18.6882C20.3487 16.9379 21.332 14.5639 21.332 12.0885C21.332 9.61319 20.3487 7.23922 18.5984 5.48888C16.848 3.73854 14.4741 2.75521 11.9987 2.75521ZM11.9987 15.5885C12.3081 15.5885 12.6049 15.7115 12.8237 15.9303C13.0424 16.149 13.1654 16.4458 13.1654 16.7552C13.1654 17.0646 13.0424 17.3614 12.8237 17.5802C12.6049 17.799 12.3081 17.9219 11.9987 17.9219C11.6893 17.9219 11.3925 17.799 11.1737 17.5802C10.9549 17.3614 10.832 17.0646 10.832 16.7552C10.832 16.4458 10.9549 16.149 11.1737 15.9303C11.3925 15.7115 11.6893 15.5885 11.9987 15.5885ZM11.9987 5.08854C12.3081 5.08854 12.6049 5.21146 12.8237 5.43025C13.0424 5.64904 13.1654 5.94579 13.1654 6.25521V13.2552C13.1654 13.5646 13.0424 13.8614 12.8237 14.0802C12.6049 14.299 12.3081 14.4219 11.9987 14.4219C11.6893 14.4219 11.3925 14.299 11.1737 14.0802C10.9549 13.8614 10.832 13.5646 10.832 13.2552V6.25521C10.832 5.94579 10.9549 5.64904 11.1737 5.43025C11.3925 5.21146 11.6893 5.08854 11.9987 5.08854Z" fill="#E35F00"/>
</svg>
