<svg width="23" height="25" viewBox="0 0 23 25" fill="none" xmlns="http://www.w3.org/2000/svg">
<path d="M16.8333 24.7578C15.2194 24.7578 13.8439 24.1889 12.7068 23.051C11.5697 21.9131 11.0008 20.5376 11 18.9245C10.9992 17.3114 11.5682 15.9359 12.7068 14.798C13.8455 13.6601 15.221 13.0911 16.8333 13.0911C18.4457 13.0911 19.8216 13.6601 20.961 14.798C22.1004 15.9359 22.669 17.3114 22.6667 18.9245C22.6643 20.5376 22.0954 21.9135 20.9598 23.0521C19.8243 24.1908 18.4488 24.7594 16.8333 24.7578ZM18.7875 21.6953L19.6042 20.8786L17.4167 18.6911V15.4245H16.25V19.1578L18.7875 21.6953ZM2.83333 23.5911C2.19167 23.5911 1.64256 23.3629 1.186 22.9063C0.729444 22.4498 0.500778 21.9003 0.5 21.2578V4.92448C0.5 4.28281 0.728667 3.7337 1.186 3.27715C1.64333 2.82059 2.19244 2.59192 2.83333 2.59115H7.70417C7.91806 1.91059 8.33611 1.35176 8.95833 0.914646C9.58055 0.477535 10.2611 0.25859 11 0.257812C11.7778 0.257812 12.4731 0.476757 13.086 0.914646C13.6989 1.35253 14.1119 1.91137 14.325 2.59115H19.1667C19.8083 2.59115 20.3578 2.81981 20.8152 3.27715C21.2725 3.73448 21.5008 4.28359 21.5 4.92448V12.2161C21.15 11.9634 20.7806 11.7495 20.3917 11.5745C20.0028 11.3995 19.5944 11.2439 19.1667 11.1078V4.92448H16.8333V8.42448H5.16667V4.92448H2.83333V21.2578H9.01667C9.15278 21.6856 9.30833 22.0939 9.48333 22.4828C9.65833 22.8717 9.87222 23.2411 10.125 23.5911H2.83333ZM11 4.92448C11.3306 4.92448 11.6078 4.81248 11.8318 4.58848C12.0558 4.36448 12.1674 4.08759 12.1667 3.75781C12.1659 3.42803 12.0539 3.15115 11.8307 2.92715C11.6074 2.70315 11.3306 2.59115 11 2.59115C10.6694 2.59115 10.3926 2.70315 10.1693 2.92715C9.94611 3.15115 9.83411 3.42803 9.83333 3.75781C9.83255 4.08759 9.94456 4.36487 10.1693 4.58965C10.3941 4.81442 10.671 4.92603 11 4.92448Z" fill="#527688"/>
</svg>
