<svg width="28" height="29" viewBox="0 0 28 29" fill="none" xmlns="http://www.w3.org/2000/svg">
<path fill-rule="evenodd" clip-rule="evenodd" d="M12.5832 3.2175C12.9962 2.80505 13.5488 2.56236 14.1319 2.53731C14.715 2.51226 15.2864 2.70666 15.7332 3.08217L15.8825 3.21867L18.0992 5.43417H21.2329C21.8213 5.43427 22.388 5.65673 22.8194 6.05698C23.2508 6.45722 23.5151 7.00569 23.5592 7.5925L23.5662 7.7675V10.9012L25.7829 13.1178C26.1956 13.5309 26.4385 14.0837 26.4636 14.6671C26.4887 15.2505 26.294 15.8221 25.9182 16.269L25.7817 16.4172L23.565 18.6338V21.7675C23.5652 22.3562 23.3429 22.9232 22.9426 23.3548C22.5424 23.7864 21.9937 24.0508 21.4067 24.095L21.2329 24.1008H18.1004L15.8837 26.3175C15.4707 26.7303 14.9179 26.9732 14.3345 26.9982C13.751 27.0233 13.1795 26.8287 12.7325 26.4528L12.5844 26.3175L10.3677 24.1008H7.23288C6.6442 24.101 6.07721 23.8787 5.64557 23.4784C5.21392 23.0781 4.94953 22.5295 4.90538 21.9425L4.89954 21.7675V18.6338L2.68288 16.4172C2.2701 16.0041 2.02721 15.4513 2.00215 14.8679C1.9771 14.2845 2.1717 13.7129 2.54754 13.266L2.68288 13.1178L4.89954 10.9012V7.7675C4.89965 7.17903 5.12211 6.61233 5.52235 6.18093C5.92259 5.74953 6.47106 5.4853 7.05788 5.44117L7.23288 5.43417H10.3665L12.5832 3.2175Z" fill="#949494"/>
<path d="M14.4999 19.996L10.2572 15.7533L11.1058 14.9048L13.9059 17.7049L13.9062 9.12891L15.0942 9.12891L15.0938 17.7049L17.894 14.9048L18.7425 15.7533L14.4999 19.996Z" fill="white" stroke="white" stroke-width="0.5"/>
</svg>
