<svg width="73" height="74" viewBox="0 0 73 74" fill="none" xmlns="http://www.w3.org/2000/svg">
<rect y="0.695312" width="72.9545" height="72.9545" rx="36.4773" fill="#00BD73"/>
<path d="M37.8563 51.6141C37.6726 51.89 37.3869 52.0817 37.062 52.1471C36.737 52.2124 36.3994 52.146 36.1234 51.9625C31.4143 48.8298 25.8825 47.1627 20.2266 47.1719C19.895 47.1719 19.5771 47.0402 19.3427 46.8058C19.1083 46.5713 18.9766 46.2534 18.9766 45.9219C18.9766 45.5904 19.1083 45.2724 19.3427 45.038C19.5771 44.8036 19.895 44.6719 20.2266 44.6719C26.3752 44.6624 32.3888 46.4752 37.5078 49.8812C37.7838 50.0649 37.9755 50.3506 38.0408 50.6755C38.1062 51.0005 38.0398 51.3381 37.8563 51.6141ZM20.2266 39.6719C19.895 39.6719 19.5771 39.8036 19.3427 40.038C19.1083 40.2724 18.9766 40.5904 18.9766 40.9219C18.9766 41.2534 19.1083 41.5713 19.3427 41.8058C19.5771 42.0402 19.895 42.1719 20.2266 42.1719C29.0623 42.1515 37.5496 45.6161 43.8469 51.8141C43.9631 51.9335 44.1019 52.0286 44.2554 52.0936C44.4088 52.1586 44.5737 52.1922 44.7404 52.1926C44.907 52.193 45.072 52.16 45.2258 52.0956C45.3795 52.0313 45.5188 51.9368 45.6355 51.8179C45.7521 51.6989 45.8438 51.5578 45.9052 51.4028C45.9666 51.2479 45.9963 51.0823 45.9927 50.9156C45.9891 50.749 45.9523 50.5848 45.8843 50.4327C45.8163 50.2805 45.7186 50.1435 45.5969 50.0297C38.8334 43.3719 29.7171 39.6501 20.2266 39.6719ZM52.7266 42.1719C50.1716 42.1702 47.6246 42.458 45.1344 43.0297C45.9927 43.6807 46.826 44.3661 47.6344 45.0859C49.3178 44.8102 51.0208 44.6717 52.7266 44.6719C53.0581 44.6719 53.376 44.8036 53.6104 45.038C53.8449 45.2724 53.9766 45.5904 53.9766 45.9219C53.9766 46.2534 53.8449 46.5713 53.6104 46.8058C53.376 47.0402 53.0581 47.1719 52.7266 47.1719C51.7891 47.1719 50.8625 47.2172 49.9375 47.3062C50.8042 48.2094 51.6344 49.1542 52.4281 50.1406C52.5369 50.268 52.6189 50.4158 52.6694 50.5755C52.7198 50.7351 52.7377 50.9033 52.722 51.07C52.7062 51.2367 52.6571 51.3985 52.5776 51.5459C52.4981 51.6932 52.3898 51.8231 52.2592 51.9278C52.1285 52.0325 51.9781 52.1099 51.817 52.1554C51.6558 52.2008 51.4872 52.2135 51.3211 52.1925C51.155 52.1715 50.9947 52.1174 50.8499 52.0334C50.7051 51.9493 50.5787 51.837 50.4781 51.7031C46.855 47.1598 42.2527 43.4932 37.0145 40.9771C31.7764 38.461 26.0377 37.1602 20.2266 37.1719C19.895 37.1719 19.5771 37.0402 19.3427 36.8058C19.1083 36.5713 18.9766 36.2534 18.9766 35.9219C18.9766 35.5904 19.1083 35.2724 19.3427 35.038C19.5771 34.8036 19.895 34.6719 20.2266 34.6719C22.7421 34.672 25.2525 34.9011 27.7266 35.3562V29.6719C27.7266 29.4778 27.7717 29.2864 27.8585 29.1129C27.9453 28.9393 28.0713 28.7883 28.2266 28.6719L38.2266 21.1719C38.4429 21.0096 38.7061 20.9219 38.9766 20.9219C39.247 20.9219 39.5102 21.0096 39.7266 21.1719L49.7266 28.6719C49.8818 28.7883 50.0078 28.9393 50.0946 29.1129C50.1814 29.2864 50.2266 29.4778 50.2266 29.6719V34.75C51.0563 34.7 51.8891 34.6719 52.7266 34.6719C53.0581 34.6719 53.376 34.8036 53.6104 35.038C53.8449 35.2724 53.9766 35.5904 53.9766 35.9219C53.9766 36.2534 53.8449 36.5713 53.6104 36.8058C53.376 37.0402 53.0581 37.1719 52.7266 37.1719C48.2377 37.1633 43.782 37.9401 39.5609 39.4672C40.5443 39.988 41.5057 40.5495 42.4453 41.1516C45.7837 40.1678 49.2462 39.6694 52.7266 39.6719C53.0581 39.6719 53.376 39.8036 53.6104 40.038C53.8449 40.2724 53.9766 40.5904 53.9766 40.9219C53.9766 41.2534 53.8449 41.5713 53.6104 41.8058C53.376 42.0402 53.0581 42.1719 52.7266 42.1719ZM36.4875 37.9953C38.5072 37.1276 40.5937 36.4243 42.7266 35.8922V32.1719H35.2266V37.4844C35.65 37.6406 36.0703 37.8172 36.4875 37.9953Z" fill="white"/>
</svg>
