<svg width="28" height="28" viewBox="0 0 28 28" fill="none" xmlns="http://www.w3.org/2000/svg">
<path d="M13.6667 25.8001C12.0528 25.8001 10.5361 25.4937 9.11667 24.8808C7.69722 24.2679 6.4625 23.4369 5.4125 22.3876C4.3625 21.3384 3.53145 20.1037 2.91933 18.6835C2.30722 17.2632 2.00078 15.7466 2 14.1335C1.99922 12.5204 2.30567 11.0037 2.91933 9.58346C3.533 8.16324 4.36406 6.92852 5.4125 5.8793C6.46095 4.83007 7.69567 3.99902 9.11667 3.38613C10.5377 2.77324 12.0543 2.4668 13.6667 2.4668C15.279 2.4668 16.7957 2.77324 18.2167 3.38613C19.6377 3.99902 20.8724 4.83007 21.9208 5.8793C22.9693 6.92852 23.8007 8.16324 24.4152 9.58346C25.0296 11.0037 25.3357 12.5204 25.3333 14.1335C25.331 15.7466 25.0246 17.2632 24.414 18.6835C23.8034 20.1037 22.9724 21.3384 21.9208 22.3876C20.8693 23.4369 19.6346 24.2683 18.2167 24.882C16.7988 25.4956 15.2821 25.8017 13.6667 25.8001ZM13.6667 23.4668C14.7167 23.4668 15.7278 23.2969 16.7 22.957C17.6722 22.6171 18.5667 22.1259 19.3833 21.4835L6.31667 8.4168C5.675 9.23346 5.18383 10.1279 4.84317 11.1001C4.5025 12.0724 4.33256 13.0835 4.33333 14.1335C4.33333 16.739 5.2375 18.946 7.04583 20.7543C8.85417 22.5626 11.0611 23.4668 13.6667 23.4668ZM21.0167 19.8501C21.6583 19.0335 22.1495 18.139 22.4902 17.1668C22.8308 16.1946 23.0008 15.1835 23 14.1335C23 11.5279 22.0958 9.32096 20.2875 7.51263C18.4792 5.7043 16.2722 4.80013 13.6667 4.80013C12.6167 4.80013 11.6056 4.97007 10.6333 5.30996C9.66111 5.64985 8.76667 6.14102 7.95 6.78346L21.0167 19.8501Z" fill="#F02020"/>
</svg>
