<svg width="28" height="28" viewBox="0 0 28 28" fill="none" xmlns="http://www.w3.org/2000/svg">
<path d="M4 22C4.22717 22.3165 4.52797 22.5729 4.87642 22.7472C5.22488 22.9214 5.6105 23.0082 6 23C6.3895 23.0082 6.77512 22.9214 7.12358 22.7472C7.47203 22.5729 7.77283 22.3165 8 22C8.22717 21.6835 8.52797 21.4271 8.87642 21.2528C9.22488 21.0786 9.6105 20.9918 10 21C10.3895 20.9918 10.7751 21.0786 11.1236 21.2528C11.472 21.4271 11.7728 21.6835 12 22C12.2272 22.3165 12.528 22.5729 12.8764 22.7472C13.2249 22.9214 13.6105 23.0082 14 23C14.3895 23.0082 14.7751 22.9214 15.1236 22.7472C15.472 22.5729 15.7728 22.3165 16 22C16.2272 21.6835 16.528 21.4271 16.8764 21.2528C17.2249 21.0786 17.6105 20.9918 18 21C18.3895 20.9918 18.7751 21.0786 19.1236 21.2528C19.472 21.4271 19.7728 21.6835 20 22C20.2272 22.3165 20.528 22.5729 20.8764 22.7472C21.2249 22.9214 21.6105 23.0082 22 23C22.3895 23.0082 22.7751 22.9214 23.1236 22.7472C23.472 22.5729 23.7728 22.3165 24 22M6 20L5 15H23L21 19M7 15V9H15L19 15M9 9V5H8" stroke="#10B981" stroke-width="2" stroke-linecap="round" stroke-linejoin="round"/>
</svg>
