<svg width="28" height="30" viewBox="0 0 28 30" fill="none" xmlns="http://www.w3.org/2000/svg">
<path fill-rule="evenodd" clip-rule="evenodd" d="M12.5832 3.30734C12.9962 2.8949 13.5488 2.65221 14.1319 2.62715C14.715 2.6021 15.2864 2.7965 15.7332 3.17201L15.8825 3.30851L18.0992 5.52401H21.2329C21.8213 5.52412 22.388 5.74658 22.8194 6.14682C23.2508 6.54706 23.5151 7.09553 23.5592 7.68234L23.5662 7.85734V10.991L25.7829 13.2077C26.1956 13.6207 26.4385 14.1735 26.4636 14.7569C26.4887 15.3403 26.294 15.9119 25.9182 16.3588L25.7817 16.507L23.565 18.7237V21.8573C23.5652 22.446 23.3429 23.013 22.9426 23.4446C22.5424 23.8763 21.9937 24.1407 21.4067 24.1848L21.2329 24.1907H18.1004L15.8837 26.4073C15.4707 26.8201 14.9179 27.063 14.3345 27.0881C13.751 27.1131 13.1795 26.9185 12.7325 26.5427L12.5844 26.4073L10.3677 24.1907H7.23288C6.6442 24.1909 6.07721 23.9685 5.64557 23.5683C5.21392 23.168 4.94953 22.6194 4.90538 22.0323L4.89954 21.8573V18.7237L2.68288 16.507C2.2701 16.094 2.02721 15.5412 2.00215 14.9578C1.9771 14.3744 2.1717 13.8028 2.54754 13.3558L2.68288 13.2077L4.89954 10.991V7.85734C4.89965 7.26887 5.12211 6.70217 5.52235 6.27078C5.92259 5.83938 6.47106 5.57514 7.05788 5.53101L7.23288 5.52401H10.3665L12.5832 3.30734Z" fill="#283D50"/>
<path fill-rule="evenodd" clip-rule="evenodd" d="M17.5917 11.2861L12.6403 16.3197L10.5777 14.2227C10.3588 14.0003 10.0619 13.8755 9.75243 13.8756C9.44295 13.8757 9.14618 14.0008 8.92742 14.2233C8.70866 14.4459 8.58583 14.7477 8.58594 15.0623C8.58605 15.3769 8.70909 15.6786 8.92801 15.901L11.7327 18.7523C11.8519 18.8735 11.9934 18.9696 12.1491 19.0352C12.3048 19.1008 12.4718 19.1346 12.6403 19.1346C12.8089 19.1346 12.9758 19.1008 13.1316 19.0352C13.2873 18.9696 13.4288 18.8735 13.548 18.7523L19.2413 12.9631C19.4539 12.7394 19.5715 12.4398 19.5688 12.1289C19.5661 11.8179 19.4434 11.5204 19.2271 11.3005C19.0108 11.0806 18.7182 10.9559 18.4123 10.9532C18.1064 10.9505 17.8117 11.07 17.5917 11.2861Z" fill="white"/>
</svg>

