<svg width="73" height="74" viewBox="0 0 73 74" fill="none" xmlns="http://www.w3.org/2000/svg">
<rect y="0.695312" width="72.9545" height="72.9545" rx="36.4773" fill="#969696"/>
<path d="M42.93 41.9261C42.9287 42.1958 42.8212 42.4541 42.6307 42.645C42.4402 42.8359 42.1822 42.9441 41.9125 42.9461H31.045C30.7745 42.9461 30.515 42.8386 30.3238 42.6473C30.1325 42.456 30.025 42.1966 30.025 41.9261C30.025 41.6556 30.1325 41.3961 30.3238 41.2048C30.515 41.0135 30.7745 40.9061 31.045 40.9061H41.9125C42.1826 40.9074 42.4413 41.0153 42.6323 41.2063C42.8233 41.3973 42.9312 41.656 42.9325 41.9261M41.915 35.4736H31.045C30.7835 35.4865 30.5371 35.5995 30.3566 35.7892C30.1761 35.9788 30.0755 36.2305 30.0755 36.4923C30.0755 36.7541 30.1761 37.0059 30.3566 37.1955C30.5371 37.3851 30.7835 37.4981 31.045 37.5111H41.9125C42.174 37.4981 42.4204 37.3851 42.6009 37.1955C42.7814 37.0059 42.882 36.7541 42.882 36.4923C42.882 36.2305 42.7814 35.9788 42.6009 35.7892C42.4204 35.5995 42.1765 35.4865 41.915 35.4736ZM51.0825 24.2661V52.7936C51.0828 53.1057 51.0216 53.4148 50.9024 53.7032C50.7832 53.9917 50.6083 54.2538 50.3878 54.4746C50.1672 54.6954 49.9053 54.8705 49.617 54.9901C49.3286 55.1096 49.0196 55.1711 48.7075 55.1711H24.25C23.6201 55.1711 23.016 54.9209 22.5706 54.4755C22.1252 54.0301 21.875 53.426 21.875 52.7961V24.2636C21.8747 23.9515 21.9359 23.6424 22.0551 23.3539C22.1743 23.0655 22.3492 22.8034 22.5697 22.5826C22.7903 22.3618 23.0522 22.1866 23.3406 22.0671C23.6289 21.9476 23.9379 21.8861 24.25 21.8861H30.5625C31.2943 21.0335 32.2017 20.3492 33.2227 19.88C34.2436 19.4109 35.3539 19.168 36.4775 19.168C37.6011 19.168 38.7114 19.4109 39.7323 19.88C40.7533 20.3492 41.6607 21.0335 42.3925 21.8861H48.7025C49.0146 21.8858 49.3237 21.9469 49.6121 22.0661C49.9006 22.1854 50.1627 22.3602 50.3835 22.5808C50.6043 22.8014 50.7795 23.0633 50.899 23.3516C51.0185 23.6399 51.08 23.949 51.08 24.2611M30.705 26.9786V27.3161H42.25V26.9786C42.266 26.2103 42.1285 25.4465 41.8455 24.732C41.5625 24.0175 41.1398 23.3666 40.6021 22.8176C40.0643 22.2686 39.4224 21.8324 38.714 21.5346C38.0055 21.2368 37.2447 21.0834 36.4763 21.0834C35.7078 21.0834 34.947 21.2368 34.2385 21.5346C33.5301 21.8324 32.8882 22.2686 32.3504 22.8176C31.8127 23.3666 31.39 24.0175 31.107 24.732C30.824 25.4465 30.689 26.2103 30.705 26.9786ZM49.04 24.2611C49.04 24.2164 49.0312 24.1722 49.0141 24.131C48.997 24.0897 48.972 24.0522 48.9404 24.0207C48.9088 23.9891 48.8714 23.964 48.8301 23.947C48.7889 23.9299 48.7446 23.9211 48.7 23.9211H43.6625C44.075 24.8861 44.2875 25.9261 44.2875 26.9786V28.3361C44.2862 28.6062 44.1783 28.8649 43.9873 29.0559C43.7963 29.2469 43.5376 29.3548 43.2675 29.3561H29.6875C29.4174 29.3548 29.1587 29.2469 28.9677 29.0559C28.7767 28.8649 28.6688 28.6062 28.6675 28.3361V26.9786C28.6675 25.9286 28.88 24.8861 29.2925 23.9211H24.25C24.2054 23.9211 24.1611 23.9299 24.1199 23.947C24.0786 23.964 24.0412 23.9891 24.0096 24.0207C23.978 24.0522 23.953 24.0897 23.9359 24.131C23.9188 24.1722 23.91 24.2164 23.91 24.2611V52.7886C23.91 52.8788 23.9458 52.9652 24.0096 53.029C24.0733 53.0928 24.1598 53.1286 24.25 53.1286H48.7025C48.7927 53.1286 48.8792 53.0928 48.9429 53.029C49.0067 52.9652 49.0425 52.8788 49.0425 52.7886L49.04 24.2611Z" fill="white"/>
</svg>
