<svg width="28" height="30" viewBox="0 0 28 30" fill="none" xmlns="http://www.w3.org/2000/svg">
<path d="M13.5 25.4668C12.0417 25.4668 10.6759 25.1899 9.40267 24.6361C8.12945 24.0824 7.02111 23.3337 6.07767 22.3903C5.13422 21.4469 4.38561 20.3385 3.83183 19.0653C3.27806 17.7921 3.00078 16.4259 3 14.9668C2.99922 13.5077 3.2765 12.1419 3.83183 10.8695C4.38717 9.59702 5.13539 8.48869 6.0765 7.54446C7.01761 6.60024 8.12595 5.85163 9.4015 5.29863C10.6771 4.74563 12.0432 4.46835 13.5 4.4668C15.0944 4.4668 16.6064 4.80707 18.036 5.48763C19.4656 6.16819 20.6758 7.13069 21.6667 8.37513V5.63346H24V12.6335H17V10.3001H20.2083C19.4111 9.21124 18.4292 8.35569 17.2625 7.73346C16.0958 7.11124 14.8417 6.80013 13.5 6.80013C11.225 6.80013 9.29533 7.59269 7.711 9.1778C6.12667 10.7629 5.33411 12.6926 5.33333 14.9668C5.33256 17.241 6.12511 19.1711 7.711 20.757C9.29689 22.3429 11.2266 23.135 13.5 23.1335C15.5417 23.1335 17.3259 22.4724 18.8527 21.1501C20.3794 19.8279 21.2786 18.1557 21.55 16.1335H23.9417C23.65 18.7974 22.5078 21.0191 20.5152 22.7986C18.5225 24.5782 16.1841 25.4676 13.5 25.4668ZM16.7667 19.8668L12.3333 15.4335V9.13346H14.6667V14.5001L18.4 18.2335L16.7667 19.8668Z" fill="#FF9F0D"/>
</svg>
