<svg width="73" height="96" viewBox="0 0 73 96" fill="none" xmlns="http://www.w3.org/2000/svg">
<path d="M71.9541 26.2863C71.9573 26.2987 71.956 26.292 71.9658 26.3282C71.9782 26.374 72.0098 26.4902 72.0098 26.6329V89.2736C72.0098 92.4143 69.4552 94.9689 66.3145 94.9689H7.01074C3.85246 94.9689 1.27539 92.4198 1.27539 89.2736V6.85168C1.27539 3.70812 3.84265 1.15651 6.99023 1.15637H46.5332C46.6747 1.15637 46.7902 1.18766 46.8311 1.19836C46.8368 1.19988 46.8425 1.20115 46.8467 1.20227C46.8512 1.20348 46.8545 1.20442 46.8574 1.2052V1.20618C47.3007 1.26312 47.7187 1.43943 48.0654 1.7179L48.2119 1.84583L48.2197 1.85364L48.2275 1.86047L71.3018 24.9357L71.3154 24.9493C71.6066 25.2556 71.8106 25.6342 71.9053 26.046H71.9043C71.9255 26.1251 71.942 26.2053 71.9541 26.2863ZM6.99023 5.95325C6.47598 5.95338 6.07227 6.36475 6.07227 6.85168V89.2648L6.07812 89.3546C6.08802 89.4442 6.11087 89.5322 6.14648 89.6154C6.19395 89.7262 6.26239 89.827 6.34863 89.9113C6.4349 89.9955 6.53753 90.0618 6.64941 90.1066C6.76118 90.1513 6.88066 90.1734 7.00098 90.172H66.3145C66.5527 90.172 66.7817 90.0778 66.9502 89.9093C67.1187 89.7408 67.2129 89.5118 67.2129 89.2736V29.0314H49.8301C46.6893 29.0314 44.1348 26.4768 44.1348 23.3361V5.95325H6.99023ZM48.9316 23.3361C48.9316 23.5743 49.0258 23.8033 49.1943 23.9718C49.3628 24.1403 49.5918 24.2345 49.8301 24.2345H63.8213L48.9316 9.34485V23.3361Z" fill="#0170E5" stroke="#0170E5" stroke-width="1.5"/>
<path d="M56.4233 76.9799C57.0594 76.9799 57.6698 77.2322 58.1196 77.682C58.5694 78.1318 58.8218 78.7422 58.8218 79.3783C58.8218 80.0144 58.5694 80.6248 58.1196 81.0746C57.6698 81.5244 57.0594 81.7767 56.4233 81.7767H16.8608C16.2247 81.7767 15.6143 81.5244 15.1646 81.0746C14.7148 80.6248 14.4624 80.0144 14.4624 79.3783C14.4624 78.7422 14.7148 78.1318 15.1646 77.682C15.6143 77.2322 16.2247 76.9799 16.8608 76.9799H56.4233ZM56.4233 63.7924C57.0594 63.7924 57.6698 64.0447 58.1196 64.4945C58.5694 64.9443 58.8218 65.5547 58.8218 66.1908C58.8218 66.8269 58.5694 67.4373 58.1196 67.8871C57.6698 68.3369 57.0594 68.5892 56.4233 68.5892H16.8608C16.2247 68.5892 15.6143 68.3369 15.1646 67.8871C14.7148 67.4373 14.4624 66.8269 14.4624 66.1908C14.4624 65.5547 14.7148 64.9443 15.1646 64.4945C15.6143 64.0447 16.2247 63.7924 16.8608 63.7924H56.4233ZM56.4233 50.6049C57.0594 50.6049 57.6698 50.8572 58.1196 51.307C58.5694 51.7568 58.8218 52.3672 58.8218 53.0033C58.8218 53.6394 58.5694 54.2498 58.1196 54.6996C57.6698 55.1494 57.0594 55.4017 56.4233 55.4017H16.8608C16.2247 55.4017 15.6143 55.1494 15.1646 54.6996C14.7148 54.2498 14.4624 53.6394 14.4624 53.0033L14.4741 52.766C14.5287 52.217 14.771 51.7005 15.1646 51.307C15.6143 50.8572 16.2247 50.6049 16.8608 50.6049H56.4233ZM56.4233 37.4174C57.0594 37.4174 57.6698 37.6697 58.1196 38.1195C58.5694 38.5693 58.8218 39.1797 58.8218 39.8158C58.8218 40.4519 58.5694 41.0623 58.1196 41.5121C57.6698 41.9619 57.0594 42.2142 56.4233 42.2142H16.8608C16.2247 42.2142 15.6143 41.9619 15.1646 41.5121C14.7148 41.0623 14.4624 40.4519 14.4624 39.8158L14.4741 39.5785C14.5287 39.0295 14.771 38.513 15.1646 38.1195C15.6143 37.6697 16.2247 37.4174 16.8608 37.4174H56.4233ZM33.3452 24.2299C33.9813 24.2299 34.5917 24.4822 35.0415 24.932C35.4913 25.3818 35.7437 25.9922 35.7437 26.6283C35.7437 27.2644 35.4913 27.8748 35.0415 28.3246C34.5917 28.7744 33.9813 29.0267 33.3452 29.0267H16.8608C16.2247 29.0267 15.6143 28.7744 15.1646 28.3246C14.7148 27.8748 14.4624 27.2644 14.4624 26.6283L14.4741 26.391C14.5287 25.842 14.771 25.3255 15.1646 24.932C15.6143 24.4822 16.2247 24.2299 16.8608 24.2299H33.3452Z" fill="#0170E5" stroke="#0170E5" stroke-width="1.5"/>
</svg>
