<svg width="34" height="34" viewBox="0 0 34 34" fill="none" xmlns="http://www.w3.org/2000/svg">
<circle cx="17" cy="17" r="16.375" fill="white" stroke="#00559F" stroke-width="1.25"/>
<path d="M22.8477 8.90451H20.4793V8.42818C20.4793 8.30185 20.4291 8.18069 20.3398 8.09136C20.2505 8.00203 20.1293 7.95185 20.003 7.95185H18.4921C18.3935 7.67338 18.211 7.43231 17.9698 7.26181C17.7286 7.09131 17.4404 6.99976 17.145 6.99976C16.8496 6.99976 16.5614 7.09131 16.3202 7.26181C16.079 7.43231 15.8965 7.67338 15.7979 7.95185H14.287C14.1607 7.95185 14.0395 8.00203 13.9502 8.09136C13.8609 8.18069 13.8107 8.30185 13.8107 8.42818V8.90451H11.4423C11.0599 8.90477 10.6932 9.05681 10.4227 9.32724C10.1523 9.59768 10.0003 9.9644 10 10.3469V25.5628C10.0003 25.9453 10.1523 26.312 10.4227 26.5825C10.6932 26.8529 11.0599 27.0049 11.4423 27.0052H22.8477C23.2301 27.0049 23.5968 26.8529 23.8673 26.5825C24.1377 26.312 24.2897 25.9453 24.29 25.5628V10.3469C24.2897 9.9644 24.1377 9.59768 23.8673 9.32724C23.5968 9.05681 23.2301 8.90477 22.8477 8.90451ZM14.7633 8.90451H16.1923C16.3187 8.90451 16.4398 8.85433 16.5292 8.765C16.6185 8.67567 16.6687 8.55451 16.6687 8.42818C16.6687 8.30185 16.7189 8.18069 16.8082 8.09136C16.8975 8.00203 17.0187 7.95185 17.145 7.95185C17.2713 7.95185 17.3925 8.00203 17.4818 8.09136C17.5711 8.18069 17.6213 8.30185 17.6213 8.42818C17.6213 8.55451 17.6715 8.67567 17.7608 8.765C17.8502 8.85433 17.9713 8.90451 18.0977 8.90451H19.5267V9.85718H14.7633V8.90451ZM23.3373 25.5628C23.3373 25.6927 23.2857 25.8173 23.1939 25.9091C23.1021 26.0009 22.9775 26.0525 22.8477 26.0525H11.4423C11.3125 26.0525 11.1879 26.0009 11.0961 25.9091C11.0043 25.8173 10.9527 25.6927 10.9527 25.5628V10.3469C10.9527 10.217 11.0043 10.0924 11.0961 10.0006C11.1879 9.90877 11.3125 9.85718 11.4423 9.85718H13.8107V10.3335C13.8107 10.4598 13.8609 10.581 13.9502 10.6703C14.0395 10.7597 14.1607 10.8098 14.287 10.8098H20.003C20.1293 10.8098 20.2505 10.7597 20.3398 10.6703C20.4291 10.581 20.4793 10.4598 20.4793 10.3335V9.85718H22.8477C22.9775 9.85718 23.1021 9.90877 23.1939 10.0006C23.2857 10.0924 23.3373 10.217 23.3373 10.3469V25.5628Z" fill="#00559F" stroke="#00559F" stroke-width="0.25"/>
<path d="M13.5427 14.4254L12.7263 13.6089L12.0527 14.2825L13.2055 15.4361C13.2948 15.5254 13.4159 15.5756 13.5422 15.5756C13.6685 15.5756 13.7897 15.5254 13.879 15.4361L15.8501 13.466L15.1765 12.7925L13.5427 14.4254Z" fill="#00559F" stroke="#00559F" stroke-width="0.25"/>
<path d="M22.0495 13.8076H17.0146V14.7603H22.0495V13.8076Z" fill="#00559F" stroke="#00559F" stroke-width="0.25"/>
<path d="M13.5427 18.2347L12.7263 17.4182L12.0527 18.0918L13.2055 19.2455C13.2948 19.3348 13.4159 19.3849 13.5422 19.3849C13.6685 19.3849 13.7897 19.3348 13.879 19.2455L15.8501 17.2753L15.1765 16.6018L13.5427 18.2347Z" fill="#00559F" stroke="#00559F" stroke-width="0.25"/>
<path d="M22.0495 17.6174H17.0146V18.5701H22.0495V17.6174Z" fill="#00559F" stroke="#00559F" stroke-width="0.25"/>
<path d="M13.5427 22.0445L12.7263 21.2281L12.0527 21.9016L13.2055 23.0553C13.2948 23.1446 13.4159 23.1947 13.5422 23.1947C13.6685 23.1947 13.7897 23.1446 13.879 23.0553L15.8501 21.0852L15.1765 20.4116L13.5427 22.0445Z" fill="#00559F" stroke="#00559F" stroke-width="0.25"/>
<path d="M22.0495 21.4277H17.0146V22.3804H22.0495V21.4277Z" fill="#00559F" stroke="#00559F" stroke-width="0.25"/>
</svg>
