<svg width="63" height="63" viewBox="0 0 63 63" fill="none" xmlns="http://www.w3.org/2000/svg">
<path d="M57.75 44.625C57.7497 48.1063 56.3664 51.4449 53.9045 53.9063C51.4426 56.3677 48.1037 57.7503 44.6224 57.75C41.1411 57.7497 37.8025 56.3664 35.3411 53.9045C32.8796 51.4426 31.497 48.1037 31.4974 44.6224C31.4977 41.1411 32.881 37.8025 35.3429 35.3411C36.5619 34.1223 38.0091 33.1556 39.6017 32.4961C41.1943 31.8366 42.9012 31.4972 44.625 31.4974C46.3488 31.4975 48.0556 31.8372 49.6481 32.4971C51.2406 33.1569 52.6876 34.1239 53.9063 35.3429C55.1251 36.5619 56.0918 38.0091 56.7513 39.6017C57.4108 41.1943 57.7502 42.9012 57.75 44.625ZM17.0625 17.0625H27.0375L18.375 2.625L2.625 28.875H17.0625V17.0625ZM42 27.7856V21H21V42H27.7856C28.347 38.4318 30.0254 35.1336 32.5795 32.5795C35.1336 30.0254 38.4318 28.347 42 27.7856Z" fill="#00BD73"/>
</svg>
