<svg width="63" height="63" viewBox="0 0 63 63" fill="none" xmlns="http://www.w3.org/2000/svg">
<g clip-path="url(#clip0_5_74441)">
<path d="M22.6016 59.25C24.7762 59.25 26.5391 57.4871 26.5391 55.3125C26.5391 53.1379 24.7762 51.375 22.6016 51.375C20.4269 51.375 18.6641 53.1379 18.6641 55.3125C18.6641 57.4871 20.4269 59.25 22.6016 59.25Z" fill="#00BD73"/>
<path d="M46.5234 59.25C48.6981 59.25 50.4609 57.4871 50.4609 55.3125C50.4609 53.1379 48.6981 51.375 46.5234 51.375C44.3488 51.375 42.5859 53.1379 42.5859 55.3125C42.5859 57.4871 44.3488 59.25 46.5234 59.25Z" fill="#00BD73"/>
<path d="M38.7728 15.5C38.6931 14.92 38.6522 14.3354 38.6503 13.75C38.6522 13.1646 38.6931 12.58 38.7728 12H19.3828L20.5203 15.5H38.7728Z" fill="#00BD73"/>
<path d="M51.7738 26.8753H51.0388L48.8513 36.5003H22.6013L14.6038 11.1778C14.5173 10.9091 14.3671 10.6654 14.1659 10.4673C13.9648 10.2692 13.7188 10.1227 13.4488 10.0403L6.27378 7.83534C6.05316 7.76755 5.82135 7.74387 5.59158 7.76567C5.36181 7.78746 5.13858 7.8543 4.93464 7.96236C4.52276 8.18061 4.21445 8.55353 4.07753 8.99909C3.94062 9.44466 3.9863 9.92636 4.20455 10.3382C4.4228 10.7501 4.79572 11.0584 5.24128 11.1953L11.5238 13.1203L19.5563 38.4953L16.6863 40.8403L16.4588 41.0678C15.7489 41.886 15.3465 42.926 15.3209 44.0089C15.2954 45.0918 15.6483 46.1497 16.3188 47.0003C16.7958 47.5804 17.4019 48.0408 18.0886 48.3447C18.7754 48.6485 19.5237 48.7875 20.2738 48.7503H49.4813C49.9454 48.7503 50.3905 48.566 50.7187 48.2378C51.0469 47.9096 51.2313 47.4645 51.2313 47.0003C51.2313 46.5362 51.0469 46.0911 50.7187 45.7629C50.3905 45.4347 49.9454 45.2503 49.4813 45.2503H19.9938C19.7923 45.2435 19.5959 45.1847 19.4237 45.0798C19.2515 44.9749 19.1093 44.8273 19.0108 44.6514C18.9123 44.4755 18.8608 44.2771 18.8613 44.0755C18.8618 43.8739 18.9144 43.6758 19.0138 43.5003L23.2313 40.0003H50.2513C50.6558 40.0102 51.0513 39.8796 51.3703 39.6307C51.6894 39.3819 51.9124 39.0301 52.0013 38.6353L54.7488 26.5428C53.773 26.7666 52.7749 26.8782 51.7738 26.8753Z" fill="#00BD73"/>
<path d="M51.7734 22.5C56.6059 22.5 60.5234 18.5825 60.5234 13.75C60.5234 8.91751 56.6059 5 51.7734 5C46.9409 5 43.0234 8.91751 43.0234 13.75C43.0234 18.5825 46.9409 22.5 51.7734 22.5Z" fill="#00BD73"/>
</g>
<defs>
<clipPath id="clip0_5_74441">
<rect width="63" height="63" fill="white"/>
</clipPath>
</defs>
</svg>
