<svg width="72" height="63" viewBox="0 0 72 63" fill="none" xmlns="http://www.w3.org/2000/svg">
<path d="M23.2778 11.5938C23.2778 9.05762 25.3307 7 27.8611 7H32.4444V14.6562C32.4444 15.4984 33.1319 16.1875 33.9722 16.1875H37.0278C37.8681 16.1875 38.5556 15.4984 38.5556 14.6562V7H43.1389C45.6693 7 47.7222 9.05762 47.7222 11.5938V23.8438C47.7222 26.3799 45.6693 28.4375 43.1389 28.4375H27.8611C25.3307 28.4375 23.2778 26.3799 23.2778 23.8438V11.5938ZM12.5833 34.5625H17.1667V42.2188C17.1667 43.0609 17.8542 43.75 18.6944 43.75H21.75C22.5903 43.75 23.2778 43.0609 23.2778 42.2188V34.5625H27.8611C30.3915 34.5625 32.4444 36.6201 32.4444 39.1562V51.4062C32.4444 53.9424 30.3915 56 27.8611 56H12.5833C10.053 56 8 53.9424 8 51.4062V39.1562C8 36.6201 10.053 34.5625 12.5833 34.5625ZM43.1389 34.5625H47.7222V42.2188C47.7222 43.0609 48.4097 43.75 49.25 43.75H52.3056C53.1458 43.75 53.8333 43.0609 53.8333 42.2188V34.5625H58.4167C60.947 34.5625 63 36.6201 63 39.1562V51.4062C63 53.9424 60.947 56 58.4167 56H43.1389C40.6085 56 38.5556 53.9424 38.5556 51.4062V39.1562C38.5556 36.6201 40.6085 34.5625 43.1389 34.5625Z" fill="#00BD73"/>
</svg>
