<svg width="63" height="63" viewBox="0 0 63 63" fill="none" xmlns="http://www.w3.org/2000/svg">
<path d="M50.2635 7.79887C49.7957 7.02325 49.136 6.38124 48.3479 5.93479C47.5598 5.48833 46.67 5.25248 45.7643 5.25H17.2358C15.4035 5.25 13.6789 6.2265 12.7365 7.79887L5.62538 19.6481C5.3793 20.0561 5.24949 20.5236 5.25 21C5.26049 23.5337 6.19367 25.9768 7.875 27.8722V49.875C7.875 52.7704 10.2296 55.125 13.125 55.125H49.875C52.7704 55.125 55.125 52.7704 55.125 49.875V27.8722C56.8063 25.9768 57.7395 23.5337 57.75 21C57.7505 20.5236 57.6207 20.0561 57.3746 19.6481L50.2635 7.79887ZM52.458 21.6589C52.296 22.9263 51.678 24.0913 50.7195 24.9363C49.7611 25.7812 48.5277 26.2482 47.25 26.25C44.3546 26.25 42 23.8954 42 21C42 20.8215 41.9344 20.664 41.8976 20.496L41.9501 20.4855L39.9525 10.5H45.7643L52.458 21.6589ZM28.3999 10.5H34.5975L36.7316 21.1706C36.6398 23.9846 34.335 26.25 31.5 26.25C28.665 26.25 26.3603 23.9846 26.2684 21.1706L28.3999 10.5ZM17.2358 10.5H23.0475L21.0525 20.4855L21.105 20.496C21.0656 20.664 21 20.8215 21 21C21 23.8954 18.6454 26.25 15.75 26.25C14.4723 26.2482 13.2389 25.7812 12.2805 24.9363C11.322 24.0913 10.704 22.9263 10.542 21.6589L17.2358 10.5ZM26.25 49.875V42H36.75V49.875H26.25ZM42 49.875V42C42 39.1046 39.6454 36.75 36.75 36.75H26.25C23.3546 36.75 21 39.1046 21 42V49.875H13.125V31.1272C13.9676 31.3451 14.8365 31.5 15.75 31.5C17.2405 31.5008 18.714 31.1834 20.0721 30.5691C21.4301 29.9548 22.6414 29.0578 23.625 27.9379C25.5491 30.1219 28.3684 31.5 31.5 31.5C34.6316 31.5 37.4509 30.1219 39.375 27.9379C40.3586 29.0578 41.5699 29.9548 42.9279 30.5691C44.286 31.1834 45.7595 31.5008 47.25 31.5C48.1635 31.5 49.0324 31.3451 49.875 31.1272V49.875H42Z" fill="#00BD73"/>
</svg>
