<svg width="63" height="63" viewBox="0 0 63 63" fill="none" xmlns="http://www.w3.org/2000/svg">
<path d="M33.9675 57.75H29.0063C27.8366 57.75 26.7149 57.2854 25.8879 56.4583C25.0609 55.6313 24.5963 54.5096 24.5963 53.34V50.4787C24.582 50.3102 24.5202 50.1491 24.418 50.0143C24.3157 49.8796 24.1773 49.7766 24.0187 49.7175C23.8581 49.6146 23.6714 49.5599 23.4806 49.5599C23.2899 49.5599 23.1031 49.6146 22.9425 49.7175L21 51.8175C20.5925 52.2278 20.1079 52.5535 19.5741 52.7757C19.0402 52.9979 18.4676 53.1124 17.8894 53.1124C17.3111 53.1124 16.7386 52.9979 16.2047 52.7757C15.6708 52.5535 15.1862 52.2278 14.7788 51.8175L11.1825 48.3C10.7662 47.8933 10.4356 47.4074 10.2102 46.8709C9.98478 46.3344 9.8691 45.7582 9.87 45.1762C9.87169 43.9859 10.3434 42.8443 11.1825 42L13.125 40.0575C13.2188 39.9129 13.2687 39.7442 13.2687 39.5719C13.2687 39.3995 13.2188 39.2309 13.125 39.0863C12.9675 38.6925 12.705 38.4038 12.3375 38.4038H9.66C8.48799 38.3968 7.36634 37.9264 6.54005 37.0952C5.71376 36.264 5.24998 35.1395 5.25 33.9675V29.0063C5.25 27.8366 5.71462 26.7149 6.54166 25.8879C7.36869 25.0609 8.4904 24.5963 9.66 24.5963H12.5212C12.6898 24.582 12.8509 24.5202 12.9857 24.418C13.1204 24.3157 13.2234 24.1773 13.2825 24.0187C13.3854 23.8581 13.4401 23.6714 13.4401 23.4806C13.4401 23.2899 13.3854 23.1031 13.2825 22.9425L11.1825 21C10.7722 20.5925 10.4465 20.1079 10.2243 19.5741C10.0021 19.0402 9.88765 18.4676 9.88765 17.8894C9.88765 17.3111 10.0021 16.7386 10.2243 16.2047C10.4465 15.6708 10.7722 15.1862 11.1825 14.7788L14.7 11.1825C15.1027 10.7682 15.5842 10.4386 16.1161 10.2132C16.6481 9.98783 17.2198 9.87113 17.7975 9.87C18.3914 9.86739 18.98 9.98198 19.5295 10.2072C20.079 10.4324 20.5788 10.7639 21 11.1825L22.9425 13.125C23.0871 13.2188 23.2558 13.2687 23.4281 13.2687C23.6005 13.2687 23.7691 13.2188 23.9137 13.125C24.3075 12.9675 24.5963 12.705 24.5963 12.3375V9.66C24.6032 8.48799 25.0736 7.36634 25.9048 6.54005C26.736 5.71376 27.8605 5.24998 29.0325 5.25H34.125C35.2946 5.25 36.4163 5.71462 37.2433 6.54166C38.0704 7.36869 38.535 8.4904 38.535 9.66V12.5212C38.5492 12.6898 38.611 12.8509 38.7133 12.9857C38.8155 13.1204 38.954 13.2234 39.1125 13.2825C39.2731 13.3854 39.4599 13.4401 39.6506 13.4401C39.8414 13.4401 40.0281 13.3854 40.1888 13.2825L42 11.1825C42.4075 10.7722 42.8921 10.4465 43.4259 10.2243C43.9598 10.0021 44.5324 9.88765 45.1106 9.88765C45.6889 9.88765 46.2614 10.0021 46.7953 10.2243C47.3292 10.4465 47.8138 10.7722 48.2213 11.1825L51.8175 14.7C52.2326 15.1076 52.5624 15.5936 52.7878 16.1299C53.0131 16.6662 53.1294 17.242 53.13 17.8237C53.1427 18.4151 53.0326 19.0027 52.8067 19.5494C52.5808 20.0961 52.2439 20.5901 51.8175 21L49.875 22.9425C49.7812 23.0871 49.7313 23.2558 49.7313 23.4281C49.7313 23.6005 49.7812 23.7691 49.875 23.9137C50.0325 24.3075 50.295 24.5963 50.6625 24.5963H53.5238C54.6635 24.6503 55.7387 25.1414 56.5258 25.9676C57.3128 26.7937 57.7513 27.8914 57.75 29.0325V34.125C57.75 35.2946 57.2854 36.4163 56.4583 37.2433C55.6313 38.0704 54.5096 38.535 53.34 38.535H50.4787C50.3102 38.5492 50.1491 38.611 50.0143 38.7133C49.8796 38.8155 49.7766 38.954 49.7175 39.1125C49.6237 39.2571 49.5738 39.4258 49.5738 39.5981C49.5738 39.7705 49.6237 39.9391 49.7175 40.0838L51.7387 42.105C52.1491 42.5125 52.4747 42.9971 52.697 43.5309C52.9192 44.0648 53.0336 44.6374 53.0336 45.2156C53.0336 45.7939 52.9192 46.3665 52.697 46.9003C52.4747 47.4342 52.1491 47.9188 51.7387 48.3262L48.3 51.8175C47.8973 52.2318 47.4158 52.5614 46.8839 52.7868C46.3519 53.0122 45.7802 53.1289 45.2025 53.13C44.0303 53.1146 42.9101 52.6439 42.0788 51.8175L40.0575 49.875C39.9129 49.7812 39.7442 49.7313 39.5719 49.7313C39.3995 49.7313 39.2309 49.7812 39.0863 49.875C38.6925 50.0325 38.4038 50.295 38.4038 50.6625V53.5238C38.3497 54.6635 37.8586 55.7387 37.0324 56.5258C36.2063 57.3128 35.1086 57.7513 33.9675 57.75ZM29.8463 52.5H33.1537V50.4787C33.1649 49.2682 33.5351 48.0883 34.2173 47.0883C34.8996 46.0883 35.8632 45.3132 36.9862 44.8613C38.1139 44.3684 39.3627 44.2225 40.5736 44.4422C41.7845 44.6619 42.9025 45.2373 43.785 46.095L45.2025 47.5125L47.5125 45.2025L46.095 43.7588C45.2427 42.8896 44.6679 41.7867 44.4436 40.5903C44.2193 39.3938 44.3555 38.1576 44.835 37.0387C45.291 35.9206 46.0678 34.9625 47.0675 34.2852C48.0672 33.6078 49.245 33.2415 50.4525 33.2325H52.5V29.8463H50.4787C49.2682 29.8351 48.0883 29.4649 47.0883 28.7827C46.0883 28.1004 45.3132 27.1368 44.8613 26.0138C44.3684 24.8861 44.2225 23.6373 44.4422 22.4264C44.6619 21.2155 45.2373 20.0975 46.095 19.215L47.5125 17.7975L45.2025 15.4875L43.7588 16.905C42.876 17.7113 41.7813 18.2486 40.6035 18.4536C39.4256 18.6586 38.2137 18.5229 37.1105 18.0623C36.0072 17.6016 35.0586 16.8354 34.3762 15.8537C33.6938 14.8721 33.3061 13.7159 33.2588 12.5212V10.5H29.8463V12.5212C29.8351 13.7318 29.4649 14.9117 28.7827 15.9117C28.1004 16.9117 27.1368 17.6868 26.0138 18.1388C24.8861 18.6316 23.6373 18.7775 22.4264 18.5578C21.2155 18.3381 20.0975 17.7627 19.215 16.905L17.7975 15.4875L15.4875 17.7975L16.905 19.2413C17.7113 20.124 18.2486 21.2187 18.4536 22.3965C18.6586 23.5744 18.5229 24.7863 18.0623 25.8895C17.6016 26.9928 16.8354 27.9414 15.8537 28.6238C14.8721 29.3062 13.7159 29.6939 12.5212 29.7412H10.5V33.0487H12.5212C13.7318 33.0599 14.9117 33.4301 15.9117 34.1123C16.9117 34.7946 17.6868 35.7582 18.1388 36.8813C18.6316 38.0089 18.7775 39.2577 18.5578 40.4686C18.3381 41.6795 17.7627 42.7975 16.905 43.68L15.4875 45.0975L17.7975 47.4075L19.2413 45.99C20.124 45.1837 21.2187 44.6464 22.3965 44.4414C23.5744 44.2364 24.7863 44.3721 25.8895 44.8327C26.9928 45.2934 27.9414 46.0596 28.6238 47.0413C29.3062 48.0229 29.6939 49.1791 29.7412 50.3738L29.8463 52.5Z" fill="#00BD73"/>
<path d="M31.5 40.6875C29.6829 40.6875 27.9066 40.1487 26.3957 39.1391C24.8848 38.1296 23.7072 36.6947 23.0119 35.0159C22.3165 33.3371 22.1345 31.4898 22.489 29.7076C22.8435 27.9254 23.7186 26.2884 25.0035 25.0035C26.2884 23.7186 27.9254 22.8435 29.7076 22.489C31.4898 22.1345 33.3371 22.3165 35.0159 23.0119C36.6947 23.7072 38.1296 24.8848 39.1391 26.3957C40.1487 27.9066 40.6875 29.6829 40.6875 31.5C40.6875 33.9367 39.7195 36.2736 37.9965 37.9965C36.2736 39.7195 33.9367 40.6875 31.5 40.6875ZM31.5 27.5625C30.7212 27.5625 29.96 27.7934 29.3124 28.2261C28.6649 28.6588 28.1602 29.2737 27.8622 29.9932C27.5642 30.7127 27.4862 31.5044 27.6382 32.2682C27.7901 33.032 28.1651 33.7336 28.7158 34.2842C29.2664 34.8349 29.968 35.2099 30.7318 35.3618C31.4956 35.5138 32.2873 35.4358 33.0068 35.1378C33.7263 34.8398 34.3413 34.3351 34.7739 33.6876C35.2066 33.04 35.4375 32.2788 35.4375 31.5C35.4375 30.4557 35.0227 29.4542 34.2842 28.7158C33.5458 27.9773 32.5443 27.5625 31.5 27.5625Z" fill="#00BD73"/>
</svg>
