<svg width="94" height="107" viewBox="0 0 94 107" fill="none" xmlns="http://www.w3.org/2000/svg">
  <path d="M46.7926 107C46.7961 106.967 46.7961 106.933 46.7926 106.899C45.6527 106.704 44.7829 105.981 43.8287 105.423C43.2376 105.079 42.5902 104.828 42.0272 104.448C40.8281 103.641 39.508 103.052 38.2977 102.26C37.2675 101.587 36.1247 101.079 35.0523 100.464C33.9798 99.8503 32.9187 99.1831 31.8462 98.5521C31.2833 98.2199 30.7203 97.9156 30.1405 97.5945C28.826 96.8603 27.534 96.0898 26.2308 95.3388C25.0233 94.6436 23.7848 93.9764 22.5716 93.2868C21.4907 92.6754 20.4042 92.0613 19.3459 91.408C18.7097 91.0171 18.0539 90.6458 17.3924 90.2913C16.2046 89.6659 15.0956 88.8954 13.9021 88.3063C12.7762 87.748 11.7742 87.0445 10.6623 86.4861C9.37879 85.8412 8.18815 85.0176 6.94121 84.2974C5.89693 83.6943 4.82732 83.1332 3.7746 82.5469C2.89358 82.0528 1.99004 81.5866 1.15124 81.0226C0.776875 80.7714 0.534805 80.3191 0.250514 79.9422C0.154746 79.7744 0.0782684 79.5965 0.0225181 79.4118C0.0225181 62.5579 0.0225181 45.6007 0 28.6407C0 27.1248 0.644581 26.1784 1.88589 25.5C3.17224 24.7965 4.49799 24.1571 5.74493 23.395C7.4169 22.3704 9.15643 21.4631 10.8397 20.4608C12.2724 19.6233 13.7473 18.8333 15.1688 17.9622C16.1736 17.3452 17.2235 16.8092 18.2115 16.1559C18.8814 15.7093 19.6639 15.4301 20.3676 15.0253C21.4738 14.386 22.5491 13.6908 23.6496 13.0431C24.2126 12.7109 24.8093 12.4485 25.3667 12.1191C26.6361 11.3681 27.8999 10.592 29.1835 9.88564C30.3094 9.28262 31.3846 8.6126 32.4936 7.99283C34.0643 7.11621 35.6743 6.31776 37.1605 5.28202C37.6672 4.93305 38.2414 4.68179 38.7818 4.38307C40.1019 3.65721 41.4361 2.96486 42.6831 2.11337C43.38 1.69775 44.1019 1.32482 44.8448 0.996662C45.0257 0.920367 45.1952 0.819859 45.3487 0.697941C45.5122 0.531606 45.7101 0.402321 45.9287 0.318955C46.1473 0.23559 46.3815 0.200116 46.6153 0.214967C46.7223 0.214967 46.8349 0.0865447 46.9756 0C47.0491 0.0536469 47.1308 0.0951311 47.2177 0.122838C48.3436 0.321054 49.2274 1.04133 50.1844 1.59968C50.7474 1.92911 51.3385 2.19991 51.9014 2.52655C53.1737 3.26916 54.4629 3.98106 55.707 4.75996C56.391 5.19268 57.165 5.48024 57.8687 5.87667C58.9749 6.51598 60.0474 7.20834 61.1479 7.85882C61.7109 8.18825 62.3104 8.44509 62.8706 8.77731C64.1344 9.53109 65.4039 10.3016 66.6846 11.0107C67.8105 11.6221 68.8745 12.3033 69.9976 12.9007C71.0643 13.4591 72.0861 14.1235 73.1276 14.7377C73.6652 15.0532 74.2141 15.3463 74.7545 15.6478C76.0915 16.4016 77.4144 17.1805 78.7458 17.9427C79.9862 18.6555 81.236 19.36 82.4951 20.056C83.5225 20.6144 84.5442 21.2118 85.5463 21.8232C86.1881 22.2141 86.8411 22.5854 87.5166 22.9399C88.7354 23.5793 89.9064 24.2939 91.0829 25.0031C91.6093 25.3213 92.1835 25.5614 92.7071 25.9104C93.1114 26.1484 93.4444 26.4891 93.6715 26.8975C93.8987 27.3058 94.0117 27.7669 93.999 28.2331C93.999 45.3299 93.999 62.4295 93.999 79.5318C93.7713 79.9273 93.5194 80.3087 93.2447 80.6737C92.8337 81.1622 92.237 81.4107 91.6881 81.7233C90.5791 82.3515 89.4813 82.9992 88.3779 83.6357C87.784 83.9763 87.1957 84.3281 86.5849 84.6407C84.9327 85.495 83.3508 86.4721 81.7351 87.3906C80.2292 88.2505 78.698 89.0657 77.254 90.0484C76.5869 90.5007 75.8016 90.7743 75.0979 91.1651C74.017 91.7821 72.9643 92.4437 71.8919 93.0775C71.3289 93.4097 70.766 93.7252 70.1861 94.0378C68.8632 94.7553 67.5909 95.5593 66.2821 96.2992C65.2631 96.8743 64.2188 97.4159 63.214 98.0161C61.5842 98.9904 59.8757 99.8224 58.3022 100.894C57.6379 101.349 56.8498 101.62 56.1433 102.011C55.0652 102.628 54.0097 103.29 52.9401 103.923C52.3771 104.256 51.8142 104.582 51.2371 104.892C50.2433 105.398 49.2783 105.957 48.3464 106.567C48.1184 106.721 47.7834 106.707 47.502 106.793C47.3977 106.846 47.3026 106.915 47.2205 106.997L46.7926 107ZM89.1351 32.4934C88.5581 32.1304 88.4202 32.7083 88.0852 32.8256C87.2183 33.1215 86.4667 33.6631 85.6786 34.1098C84.3669 34.844 83.0946 35.6481 81.7717 36.3683C81.2087 36.681 80.6261 36.9965 80.0631 37.3259C78.9935 37.9596 77.9408 38.6213 76.8599 39.2383C76.1562 39.6403 75.3597 39.9055 74.7066 40.3689C73.4963 41.226 72.148 41.843 70.9011 42.6275C70.3381 42.9932 69.6907 43.264 69.0996 43.6074C67.9963 44.2467 66.9154 44.9251 65.8064 45.5616C65.0098 46.0111 64.1963 46.4326 63.4251 46.924C62.8199 47.3093 62.1753 47.6247 61.5758 47.9569V54.0653L61.8572 54.3445C62.1106 54.3445 62.4849 54.23 62.6482 54.3668C63.0845 54.7298 63.6221 54.4562 64.0922 54.727C64.4947 54.9615 65.0745 54.8777 65.5643 54.9754C66.3384 55.1318 67.0955 55.3691 67.8724 55.4919C68.5536 55.598 69.2122 55.9302 69.8427 55.7906C70.4057 54.8833 71.1882 54.3948 71.996 53.9062C72.9736 53.327 74.0975 53.0364 75.2358 53.0687C76.5325 53.072 77.8016 53.4409 78.895 54.1323C79.762 54.6767 80.4009 55.196 80.8653 56.1117C81.1786 56.6425 81.4217 57.2111 81.5887 57.8035C81.6961 58.4693 81.7525 59.1421 81.7576 59.8164C81.86 61.0832 81.4759 62.3417 80.6824 63.3396C80.1441 64.05 79.4963 64.6718 78.7627 65.1821C77.5677 65.9904 76.1281 66.3651 74.6869 66.243C74.1915 66.2011 73.7018 66.0727 73.1951 65.9834C72.1396 65.425 70.9433 65.0035 70.1777 64.0068C69.4121 63.0101 68.7703 61.9576 68.6521 60.6036C68.0216 60.4668 67.3826 60.3245 66.7409 60.1933C66.2114 60.1365 65.6866 60.0433 65.1702 59.9141C64.0443 59.526 62.8565 59.3948 61.6968 59.1631C60.8524 58.9956 60.0079 58.6913 59.1354 58.7276C58.8849 58.3004 58.3923 58.5992 58.0095 58.3479C57.6267 58.0966 57.3564 57.756 57.0074 57.4908C56.9567 57.4517 56.923 57.3875 56.9905 57.4741C56.5796 56.5835 56.6753 55.799 56.6725 55.0173C56.6725 53.8336 56.6725 52.6499 56.6725 51.4662C56.6725 51.2401 56.6499 51.0139 56.6359 50.7682L49.5117 54.8582C49.5117 69.8984 49.5117 84.9413 49.5117 99.9871C49.5117 100.012 49.5483 100.043 49.5736 100.062C49.6224 100.09 49.6732 100.113 49.7256 100.132C50.1957 99.8531 50.7108 99.5739 51.2062 99.264C52.4785 98.46 53.8042 97.7369 55.1159 97.0083C56.74 96.1037 58.3163 95.1155 59.9629 94.2528C60.5308 94.0139 61.0802 93.7339 61.6067 93.4153C63.0479 92.3739 64.6664 91.6425 66.1751 90.7212C67.4586 89.9367 68.7506 89.1522 70.0707 88.4431C71.7117 87.5637 73.2796 86.5615 74.9234 85.6932C75.5877 85.3415 76.2407 84.9702 76.8937 84.6072C76.8937 82.653 76.8937 80.7434 76.8937 78.8311C76.8681 78.6388 76.816 78.4509 76.7389 78.2727L68.8519 76.6563C65.9415 79.959 62.5159 80.1125 59.597 78.3314C58.3535 77.5438 57.4296 76.3467 56.9877 74.9505C56.4712 73.5776 56.4712 72.066 56.9877 70.6931C58.3557 67.3988 60.9847 65.8912 64.1907 66.2821C67.301 66.659 69.4149 68.9371 69.778 71.4134L70.2452 72.0778C70.6421 72.1176 71.0367 72.1772 71.4274 72.2565C72.0523 72.357 72.6716 72.5105 73.3049 72.5887C73.9273 72.6797 74.5438 72.8065 75.1514 72.9684C75.5792 73.0717 76.0774 72.9684 76.4124 73.1945C76.843 73.4737 77.3244 73.2448 77.7635 73.5211C78.1266 73.7473 78.6726 73.6691 79.1286 73.7696C79.5413 73.8651 79.9474 73.9863 80.3446 74.1325C81.0314 74.3726 81.3889 74.9505 81.7858 75.5954V81.5028C81.9913 81.5028 82.1883 81.5335 82.3149 81.4609C84.6005 80.1237 86.9452 78.8841 89.1351 77.505V32.4934ZM7.49009 28.0349C8.54562 28.6184 9.48575 29.1823 10.4456 29.71C11.7545 30.4442 13.0295 31.251 14.3525 31.9713C14.9154 32.284 15.4953 32.6022 16.0582 32.9289C17.1025 33.5403 18.1243 34.1935 19.1911 34.7659C20.4239 35.4275 21.6652 36.0919 22.8503 36.815C24.3618 37.7307 25.9465 38.5347 27.4242 39.4895C28.6881 40.3047 30.0166 41.025 31.3283 41.7536C32.9553 42.6554 34.5343 43.6325 36.1753 44.5063C36.7642 44.7854 37.3366 45.0977 37.8895 45.4416C39.3194 46.4326 40.8929 47.1753 42.3763 48.0742C43.6626 48.8531 45.0024 49.5427 46.2691 50.3607C46.6209 50.5896 47.0713 50.771 47.5695 50.3997C48.0677 50.0284 48.7264 49.8051 49.2781 49.4673C50.449 48.7442 51.6228 48.0379 52.8416 47.4014C53.5058 47.0524 54.1561 46.6755 54.8119 46.2847C55.8843 45.6537 56.937 44.9893 58.0179 44.3723C58.7244 43.9703 59.521 43.7107 60.174 43.2556C61.5814 42.2366 63.1492 41.4521 64.6579 40.6006C66.3018 39.6766 67.9343 38.7218 69.595 37.8089C71.2135 36.9267 72.8236 36.0054 74.4674 34.9389C73.7102 34.4951 73.0065 34.0679 72.2888 33.6631C71.571 33.2583 70.8814 32.9819 70.234 32.5464C68.8013 31.5609 67.2278 30.8155 65.7473 29.9138C64.3399 29.0511 62.8537 28.2694 61.3506 27.4207C60.9819 27.873 60.5934 28.3923 60.1599 28.8669C59.2564 29.8607 58.3163 30.8211 57.4127 31.8178C56.8695 32.418 56.3685 33.0545 55.8505 33.6715C56.1588 34.1912 56.3075 34.7889 56.2784 35.3912C56.8413 36.3488 56.3741 37.3064 56.1827 38.2165C55.9012 39.5509 55.0568 40.5811 53.9309 41.5498C52.805 42.5186 51.3976 42.8871 49.9283 43.0714C49.4441 43.1328 48.9994 42.9122 48.5406 42.8815C47.7468 42.8313 47.0713 42.4711 46.4267 42.1305C45.4947 41.6233 44.723 40.8695 44.1974 39.953C43.6345 39.0177 43.1785 38.0378 43.2179 36.9071C43.232 36.4884 43.2179 36.0696 43.2179 35.6536C43.2269 34.8309 43.473 34.0278 43.9272 33.3393C44.3616 32.5628 44.9449 31.8781 45.6442 31.3236C46.8377 30.4386 48.0818 29.8523 49.5849 29.9026C49.9346 29.8844 50.2851 29.8844 50.6348 29.9026C51.1724 29.9808 51.6988 30.1232 52.242 30.2376C52.774 29.71 53.4101 29.2298 53.838 28.6072C54.2199 28.1287 54.6277 27.6711 55.0596 27.2365C55.4537 26.7702 55.8421 26.2984 56.2531 25.8406C57.0384 24.9751 57.9419 24.1851 58.6006 23.2442C58.9909 22.7209 59.5052 22.3009 60.098 22.0214C60.1258 22.0009 60.1505 21.9764 60.1712 21.9489H61.5504C62.4286 22.4179 63.2393 22.8227 64.0387 23.2805C65.1421 23.9226 66.2145 24.6234 67.3207 25.2627C68.0216 25.6703 68.8153 25.9327 69.4768 26.3794C70.9039 27.3761 72.4576 28.1605 73.9804 29.012C75.6271 29.9389 77.1864 31.0221 78.9344 31.7703C79.092 31.8373 79.1709 32.083 79.2553 32.2058C80.1814 31.6949 80.9836 31.2622 81.7886 30.8099C82.5936 30.3577 83.4043 29.9445 84.1642 29.4392C84.9242 28.9339 85.794 28.6379 86.5315 27.9902C86.3766 27.8339 86.3007 27.7111 86.1881 27.6524C85.0935 27.1281 84.0296 26.5428 83.0017 25.8992C81.7182 25.1119 80.4037 24.3721 79.0949 23.6407C77.4707 22.7333 75.8917 21.7506 74.2422 20.8908C73.6793 20.5893 73.0825 20.2989 72.5224 19.9695C71.4218 19.319 70.3466 18.6239 69.2404 17.9873C68.5367 17.5797 67.7514 17.3089 67.0815 16.8567C65.5868 15.8488 63.9852 15.0309 62.4146 14.1515C61.3056 13.5317 60.2191 12.8672 59.1044 12.2586C57.8152 11.5523 56.5542 10.7846 55.2876 10.0252C54.7246 9.69301 54.1279 9.43338 53.5678 9.10395C52.4672 8.45626 51.3976 7.75273 50.2829 7.12459C49.461 6.65836 48.5941 6.2731 47.82 5.71474C47.6039 5.52965 47.3309 5.42278 47.0455 5.41162C46.7602 5.40046 46.4795 5.48568 46.2494 5.65332C45.039 6.49085 43.7161 7.14971 42.4551 7.92303C41.8752 8.28038 41.2447 8.55955 40.6536 8.90294C39.5502 9.54225 38.4666 10.2179 37.3575 10.8572C36.6792 11.2452 35.9333 11.5216 35.2887 11.9488C34.0586 12.7667 32.7554 13.4396 31.4859 14.2017C30.9005 14.5563 30.2784 14.8466 29.6873 15.19C28.5839 15.8293 27.4946 16.4965 26.3884 17.1275C25.7101 17.5127 24.9557 17.7863 24.3252 18.2302C22.8305 19.2799 21.1361 19.989 19.6358 21.022C19.7642 21.1877 19.9159 21.3344 20.0862 21.4575C21.1023 21.9879 22.0846 22.5742 23.0642 23.1549C23.7594 23.5709 24.5644 23.8249 25.2175 24.2911C26.1829 24.9835 27.2525 25.4916 28.2602 26.1058C29.6676 26.974 31.1538 27.7529 32.6569 28.6016C33.0481 28.1298 33.4619 27.5882 33.9179 27.0857C34.8243 26.0946 35.7644 25.1315 36.6651 24.1376C37.1858 23.5625 37.6615 22.9483 38.1541 22.3537C37.4561 20.4246 37.2421 19.6764 37.9599 17.4569C38.1892 16.6492 38.595 15.9015 39.1487 15.267C39.7023 14.6325 40.3901 14.1267 41.1631 13.7857C42.7309 13.0375 42.6127 13.0515 45.9735 13.1911C46.9446 13.6015 47.8397 13.9253 48.5631 14.587C49.3195 15.256 49.919 16.0812 50.3195 17.0046C50.6871 17.9077 50.8633 18.876 50.8374 19.8494C50.8374 20.8824 50.3674 21.759 50.145 22.711C48.9769 24.2241 47.7412 25.62 45.7343 26.0137C44.4159 26.2815 43.0493 26.1938 41.7767 25.7596C41.2673 26.2677 40.6114 26.7758 40.1611 27.4207C39.8008 27.9372 39.3363 28.328 38.9394 28.7943C38.5426 29.2605 38.1569 29.7323 37.746 30.1901C36.9607 31.0556 36.1613 31.9099 35.3647 32.767C35.3168 32.8172 35.2465 32.8563 35.2183 32.9149C34.7989 33.8278 33.9995 34.0567 33.0875 34.0763C32.8427 34.0763 32.5978 34.0763 32.4993 34.0763C31.5985 33.6157 30.7654 33.289 30.0448 32.7977C28.795 31.9601 27.4608 31.2538 26.1435 30.5224C25.5806 30.2069 25.0007 29.8942 24.4378 29.562C23.3682 28.9283 22.3154 28.2666 21.2346 27.6496C20.5281 27.2476 19.7428 26.9712 19.0757 26.5329C17.8259 25.6954 16.4973 24.9835 15.1744 24.2632C14.988 24.147 14.8085 24.0202 14.6368 23.8836C13.8289 24.3274 13.0183 24.749 12.2358 25.218C11.4533 25.687 10.6342 26.1058 9.86012 26.586C9.08606 27.0662 8.21911 27.3481 7.49009 28.0349ZM25.1696 55.8493C28.0294 52.5717 31.4128 52.3512 34.4049 54.1547C35.6466 54.9336 36.5746 56.1187 37.0282 57.5048C37.5124 58.9007 37.5912 60.425 37.0282 61.7622C35.6208 65.1905 32.9243 66.4468 29.7295 66.229C28.7219 65.8689 27.6635 65.6567 26.7656 64.9895C26.023 64.4 25.3896 63.6868 24.8938 62.8817C24.4952 62.3186 24.2632 61.6563 24.2239 60.9694L23.8157 60.5003C22.656 60.2658 21.6483 60.0565 20.6378 59.8582C20.3113 59.794 19.9679 59.7912 19.6499 59.7019C18.8939 59.4841 18.1261 59.3088 17.3502 59.1771C16.4607 59.0347 15.6051 58.6745 14.6846 58.7276C14.4341 58.3004 13.9387 58.602 13.5587 58.3479C13.2337 58.1062 12.9261 57.8422 12.6383 57.5578C12.4724 57.3516 12.3316 57.1267 12.2189 56.8878V36.4242L9.51109 34.8273C8.29792 34.1126 7.03128 33.4928 5.85189 32.6999C5.59857 32.5269 5.26079 32.2058 4.85547 32.5017V77.4799C4.99902 77.6083 5.15102 77.8428 5.36494 77.921C6.54151 78.3565 7.49009 79.1968 8.61881 79.7161C9.26521 80.0264 9.89471 80.3703 10.5047 80.7462C11.6053 81.3967 12.6805 82.0891 13.7867 82.7284C14.4876 83.1332 15.2645 83.4207 15.9456 83.8451C17.1898 84.6324 18.4789 85.3443 19.7512 86.0785C20.3141 86.4079 20.9109 86.6732 21.471 87.0054C22.5716 87.6559 23.6468 88.3482 24.753 88.9875C25.4539 89.3951 26.2477 89.6603 26.9091 90.1182C28.3419 91.1093 29.9406 91.8128 31.3931 92.7648C31.7357 92.9568 32.0901 93.1275 32.4542 93.2757V79.1242C32.4769 78.9509 32.4769 78.7754 32.4542 78.6021C32.3925 78.4546 32.3101 78.3164 32.2093 78.1918C31.893 78.1989 31.5768 78.1718 31.2664 78.1108C30.3826 77.8316 29.4565 77.7479 28.5586 77.5524C27.7564 77.3654 26.9542 77.1672 26.1435 77.036C25.4624 76.9271 24.8037 76.6144 24.1225 76.7317C24.053 76.8959 23.9642 77.0515 23.8579 77.1951C23.5286 77.5329 23.1036 77.7898 22.7827 78.108C21.9383 78.9455 20.8377 79.0265 19.8441 79.4285C18.2143 79.4704 16.655 79.3699 15.2025 78.4179C14.3869 77.8914 13.687 77.2067 13.1449 76.405C12.7989 75.8959 12.5499 75.3282 12.4103 74.73C12.2967 74.0649 12.2383 73.3917 12.2358 72.7171C12.1479 71.4467 12.5258 70.1876 13.2998 69.1716C13.6654 68.7143 14.0643 68.2841 14.4932 67.8846C15.5488 66.8153 16.9252 66.4887 18.341 66.2514C19.1854 66.1118 19.9567 66.4971 20.5928 66.4775C23.2612 67.4574 24.8825 69.1548 25.3779 71.8377C25.563 71.9482 25.7616 72.0346 25.969 72.0945C26.8557 72.2537 27.7761 72.2928 28.6233 72.558C29.0568 72.6948 29.5072 72.6054 29.8928 72.7897C30.6218 73.1415 31.4268 73.1833 32.1896 73.3229C33.0735 73.4876 33.9348 73.8171 34.8524 73.7752C35.1029 74.2107 35.6011 73.8869 35.9783 74.1465C36.3555 74.4061 36.5863 74.6825 36.9072 74.9254C36.985 74.9943 37.0575 75.0689 37.1239 75.1487C37.518 76.0002 37.3153 76.902 37.321 77.7814C37.3435 80.6373 37.321 83.4905 37.321 86.3465V96.154L43.9554 99.8977C44.0905 99.9759 44.2368 100.065 44.4367 100.199V54.8191C43.0011 54.0402 41.591 53.2166 40.1751 52.4154C39.6403 52.1111 39.0858 51.8152 38.5538 51.4913C37.4927 50.8408 36.4315 50.1904 35.3506 49.5734C34.6469 49.1714 33.8672 48.8894 33.1945 48.4567C31.9616 47.6443 30.6612 46.9659 29.389 46.2037C28.8063 45.852 28.1842 45.5588 27.5903 45.2182C26.4869 44.5789 25.4004 43.9089 24.2914 43.264C23.6159 42.8787 22.8671 42.6023 22.2282 42.164C20.7645 41.1646 19.1685 40.3968 17.6486 39.5007C17.4966 39.4114 17.3333 39.3471 17.1138 39.2438V54.0402L17.3108 54.2356L25.1696 55.8493Z" fill="#00BD73"/>
</svg>
  