<svg width="18" height="24" viewBox="0 0 18 24" fill="none" xmlns="http://www.w3.org/2000/svg">
<path d="M9.15671 20.8432L8.7041 20.3605C8.38081 20.0197 0.71875 11.6432 0.71875 7.69627C0.71875 3.60738 4.50129 0.285156 9.15671 0.285156C13.8121 0.285156 17.5947 3.60738 17.5947 7.69627C17.5947 11.6432 9.93262 19.9913 9.60933 20.3605L9.15671 20.8432ZM9.15671 1.56293C5.14787 1.56293 1.88261 4.34565 1.88261 7.72467C1.88261 10.7062 7.50792 17.0383 9.15671 18.7988C10.7732 17.0383 16.4308 10.7062 16.4308 7.72467C16.4308 4.34565 13.1656 1.56293 9.15671 1.56293Z" fill="#00BD73"/>
<path d="M9.15985 11.4159C6.83213 11.4159 4.95703 9.76901 4.95703 7.72456C4.95703 5.68012 6.86446 4.0332 9.15985 4.0332C11.4552 4.0332 13.3627 5.68012 13.3627 7.72456C13.3627 9.74062 11.4876 11.4159 9.15985 11.4159ZM9.15985 5.39617C7.54338 5.39617 6.25021 6.53197 6.25021 7.95173C6.25021 9.37148 7.54338 10.5073 9.15985 10.5073C10.7763 10.5073 12.0695 9.37148 12.0695 7.95173C12.0695 6.53197 10.7763 5.39617 9.15985 5.39617Z" fill="#00BD73"/>
<path d="M13.2655 18.1465L12.8129 18.6576C15.0436 19.0551 16.4015 19.7934 16.4015 20.5033C16.4015 21.5255 13.4272 22.6613 9.12737 22.6613C4.82756 22.6613 1.85326 21.5255 1.85326 20.5033C1.85326 19.8218 3.24342 19.0835 5.44182 18.6576L4.98921 18.1465C2.40286 18.544 0.398438 19.3675 0.398438 20.5601C0.398438 22.3206 4.89222 23.286 9.12737 23.286C13.3625 23.286 17.8563 22.3206 17.8563 20.5601C17.8886 19.3675 15.8842 18.544 13.2655 18.1465Z" fill="#00BD73"/>
</svg>
