<svg width="40" height="40" viewBox="0 0 40 40" fill="none" xmlns="http://www.w3.org/2000/svg">
<path d="M39.5 20C39.5 30.7696 30.7696 39.5 20 39.5C9.23045 39.5 0.5 30.7696 0.5 20C0.5 9.23045 9.23045 0.5 20 0.5C30.7696 0.5 39.5 9.23045 39.5 20Z" fill="white" stroke="#00BD73"/>
<path d="M26.6654 22.5V25.2778C26.6654 25.6461 26.5093 25.9994 26.2314 26.2599C25.9536 26.5203 25.5768 26.6667 25.1839 26.6667H14.8135C14.4206 26.6667 14.0438 26.5203 13.7659 26.2599C13.4881 25.9994 13.332 25.6461 13.332 25.2778V22.5" stroke="#00BD73" stroke-width="1.5" stroke-linecap="round" stroke-linejoin="round"/>
<path d="M15.8346 17.4998L20.0013 21.6665L24.168 17.4998" stroke="#00BD73" stroke-width="1.5" stroke-linecap="round" stroke-linejoin="round"/>
<path d="M20 21.6665L20 13.3332" stroke="#00BD73" stroke-width="1.5" stroke-linecap="round" stroke-linejoin="round"/>
</svg>
