<svg width="34" height="35" viewBox="0 0 34 35" fill="none" xmlns="http://www.w3.org/2000/svg">
<circle cx="17" cy="17.48" r="16.375" fill="white" stroke="#00BD73" stroke-width="1.25"/>
<path d="M22.8477 9.38462H20.4793V8.90828C20.4793 8.78195 20.4291 8.66079 20.3398 8.57147C20.2505 8.48214 20.1293 8.43195 20.003 8.43195H18.4921C18.3935 8.15348 18.211 7.91241 17.9698 7.74191C17.7286 7.57141 17.4404 7.47986 17.145 7.47986C16.8496 7.47986 16.5614 7.57141 16.3202 7.74191C16.079 7.91241 15.8965 8.15348 15.7979 8.43195H14.287C14.1607 8.43195 14.0395 8.48214 13.9502 8.57147C13.8609 8.66079 13.8107 8.78195 13.8107 8.90828V9.38462H11.4423C11.0599 9.38487 10.6932 9.53691 10.4227 9.80735C10.1523 10.0778 10.0003 10.4445 10 10.827V26.043C10.0003 26.4254 10.1523 26.7921 10.4227 27.0626C10.6932 27.333 11.0599 27.485 11.4423 27.4853H22.8477C23.2301 27.485 23.5968 27.333 23.8673 27.0626C24.1377 26.7921 24.2897 26.4254 24.29 26.043V10.827C24.2897 10.4445 24.1377 10.0778 23.8673 9.80735C23.5968 9.53691 23.2301 9.38487 22.8477 9.38462ZM14.7633 9.38462H16.1923C16.3187 9.38462 16.4398 9.33443 16.5292 9.2451C16.6185 9.15577 16.6687 9.03462 16.6687 8.90828C16.6687 8.78195 16.7189 8.66079 16.8082 8.57147C16.8975 8.48214 17.0187 8.43195 17.145 8.43195C17.2713 8.43195 17.3925 8.48214 17.4818 8.57147C17.5711 8.66079 17.6213 8.78195 17.6213 8.90828C17.6213 9.03462 17.6715 9.15577 17.7608 9.2451C17.8502 9.33443 17.9713 9.38462 18.0977 9.38462H19.5267V10.3373H14.7633V9.38462ZM23.3373 26.043C23.3373 26.1728 23.2857 26.2974 23.1939 26.3892C23.1021 26.481 22.9775 26.5326 22.8477 26.5326H11.4423C11.3125 26.5326 11.1879 26.481 11.0961 26.3892C11.0043 26.2974 10.9527 26.1728 10.9527 26.043V10.827C10.9527 10.6971 11.0043 10.5725 11.0961 10.4807C11.1879 10.3889 11.3125 10.3373 11.4423 10.3373H13.8107V10.8136C13.8107 10.9399 13.8609 11.0611 13.9502 11.1504C14.0395 11.2398 14.1607 11.29 14.287 11.29H20.003C20.1293 11.29 20.2505 11.2398 20.3398 11.1504C20.4291 11.0611 20.4793 10.9399 20.4793 10.8136V10.3373H22.8477C22.9775 10.3373 23.1021 10.3889 23.1939 10.4807C23.2857 10.5725 23.3373 10.6971 23.3373 10.827V26.043Z" fill="#0EBF67" stroke="#00BD73" stroke-width="0.25"/>
<path d="M13.5427 14.9055L12.7263 14.089L12.0527 14.7626L13.2055 15.9162C13.2948 16.0055 13.4159 16.0557 13.5422 16.0557C13.6685 16.0557 13.7897 16.0055 13.879 15.9162L15.8501 13.9461L15.1765 13.2726L13.5427 14.9055Z" fill="#00BD73" stroke="#00BD73" stroke-width="0.25"/>
<path d="M22.0505 14.2878H17.0156V15.2405H22.0505V14.2878Z" fill="#00BD73" stroke="#00BD73" stroke-width="0.25"/>
<path d="M13.5427 18.7148L12.7263 17.8983L12.0527 18.5719L13.2055 19.7256C13.2948 19.8149 13.4159 19.865 13.5422 19.865C13.6685 19.865 13.7897 19.8149 13.879 19.7256L15.8501 17.7554L15.1765 17.0819L13.5427 18.7148Z" fill="#00BD73" stroke="#00BD73" stroke-width="0.25"/>
<path d="M22.0505 18.0977H17.0156V19.0503H22.0505V18.0977Z" fill="#00BD73" stroke="#00BD73" stroke-width="0.25"/>
<path d="M13.5427 22.5246L12.7263 21.7082L12.0527 22.3817L13.2055 23.5354C13.2948 23.6247 13.4159 23.6748 13.5422 23.6748C13.6685 23.6748 13.7897 23.6247 13.879 23.5354L15.8501 21.5653L15.1765 20.8917L13.5427 22.5246Z" fill="#00BD73" stroke="#00BD73" stroke-width="0.25"/>
<path d="M22.0505 21.908H17.0156V22.8606H22.0505V21.908Z" fill="#00BD73" stroke="#00BD73" stroke-width="0.25"/>
</svg>
