<svg width="24" height="30" viewBox="0 0 24 30" fill="none" xmlns="http://www.w3.org/2000/svg">
<path d="M3.5 18.2031L1 11.7031H4L10.5 12.4531L17 13.2031L17.5 15.2031L19 16.2031L23 20.7031L19.5 23.7031L21 29.2031H3L1 21.7031L3.5 18.2031Z" stroke="#00BD73"/>
<path d="M4 11.7031H4.85714H5.28571H5.71429H6.57143L7.42857 12.1031H8.28571H9.57143H10.4286L12.5714 12.5031H13.8571H15.1429L17.2857 13.3031L17.5 13.7031L16.5 15.2031" stroke="white" stroke-width="2"/>
<path d="M12.1606 20.5733L11.708 20.0902C11.3847 19.7492 3.72266 11.3665 3.72266 7.41661C3.72266 3.32469 7.50519 0 12.1606 0C16.816 0 20.5986 3.32469 20.5986 7.41661C20.5986 11.3665 12.9365 19.7208 12.6132 20.0902L12.1606 20.5733ZM12.1606 1.27873C8.15178 1.27873 4.88651 4.06351 4.88651 7.44503C4.88651 10.4287 10.5118 16.7655 12.1606 18.5273C13.7771 16.7655 19.4347 10.4287 19.4347 7.44503C19.4347 4.06351 16.1695 1.27873 12.1606 1.27873Z" fill="#00BD73"/>
<path d="M12.1598 11.1382C9.83213 11.1382 7.95703 9.49006 7.95703 7.4441C7.95703 5.39814 9.86446 3.75 12.1598 3.75C14.4552 3.75 16.3627 5.39814 16.3627 7.4441C16.3627 9.46164 14.4876 11.1382 12.1598 11.1382ZM12.1598 5.11397C10.5434 5.11397 9.25021 6.25062 9.25021 7.67143C9.25021 9.09223 10.5434 10.2289 12.1598 10.2289C13.7763 10.2289 15.0695 9.09223 15.0695 7.67143C15.0695 6.25062 13.7763 5.11397 12.1598 5.11397Z" fill="#00BD73"/>
</svg>
