<svg width="19" height="19" viewBox="0 0 19 19" fill="none" xmlns="http://www.w3.org/2000/svg">
<path d="M4.51274 14.7522C4.49996 14.7903 4.48563 14.8278 4.46936 14.8647C4.38913 15.0468 4.27799 15.1799 4.15177 15.3061L4.15176 15.3061C4.02558 15.4323 3.89252 15.5434 3.71047 15.6236C3.54291 15.6975 3.36275 15.7315 3.17534 15.7611L3.1753 15.7611C2.90674 15.8035 2.73754 15.8482 2.59891 15.9119C2.46598 15.9731 2.33532 16.0638 2.16661 16.2326L2.16651 16.2327C1.98081 16.4183 1.89012 16.5596 1.83804 16.6923C1.78448 16.8288 1.7569 16.9937 1.75088 17.2533C1.75088 17.2533 1.75088 17.2533 1.75088 17.2534L1.75086 17.254C1.74772 17.39 1.74468 17.5218 1.70013 17.6518L1.69952 17.6535C1.65572 17.7798 1.5832 17.8747 1.50474 17.9532M4.51274 14.7522L1.80974 17.2548L2.30961 17.2664L1.80974 17.2549C1.80415 17.495 1.79282 17.5629 1.75563 17.6712L2.22793 17.8335L1.75563 17.6712C1.71768 17.7817 1.65302 17.8881 1.54634 17.9948C1.53482 18.0063 1.51629 18.0063 1.50473 17.9948M4.51274 14.7522L4.56088 14.7983L4.51274 14.7522ZM1.50474 17.9532L1.15119 17.5996L1.50476 17.9532C1.50475 17.9532 1.50475 17.9532 1.50474 17.9532ZM1.50474 17.9532C1.49321 17.9647 1.49323 17.9832 1.50473 17.9948M1.50473 17.9948L1.15143 18.3481L1.50474 17.9948C1.50474 17.9948 1.50474 17.9948 1.50473 17.9948ZM6.04805 12.9354L6.04849 12.9353C6.2903 12.9028 6.45276 12.8645 6.58801 12.8088C6.71802 12.7553 6.84392 12.677 6.99666 12.5393L7.10514 12.4415L7.24921 12.4175L8.96017 12.1321L8.96024 12.132C9.72778 12.0041 10.2903 11.34 10.2903 10.5619C10.2903 9.81478 9.68453 9.20896 8.93736 9.20896C8.15927 9.20896 7.49521 9.77152 7.36726 10.5391C7.36726 10.5391 7.36726 10.5391 7.36726 10.5391L7.08488 12.2334L7.05486 12.4135L6.9158 12.5319C6.79083 12.6383 6.66116 12.7198 6.50022 12.7774C6.35294 12.8301 6.19759 12.8557 6.04073 12.8768L6.0399 12.8769C6.00036 12.8822 5.98339 12.8846 5.96183 12.8877L5.96086 12.8878C5.64139 12.9335 5.4426 13.011 5.23549 13.1781L4.81793 13.5151L4.51122 13.0748C3.64882 11.8368 3.14315 10.3313 3.14315 8.70907C3.14315 4.48576 6.5672 1.06206 10.7905 1.06206C15.0138 1.06206 18.4375 4.48576 18.4375 8.70907C18.4375 12.9327 15.0138 16.3564 10.7905 16.3564C8.59726 16.3564 6.61912 15.4324 5.2253 13.9542L4.85178 13.558L5.27826 13.2195C5.50487 13.0397 5.71979 12.9821 5.96794 12.9465M6.04805 12.9354L8.93736 8.70896C9.96067 8.70896 10.7903 9.53863 10.7903 10.5619C10.7903 11.5845 10.0511 12.4571 9.04244 12.6252L7.33148 12.9106C6.95643 13.2488 6.63677 13.3606 6.11518 13.4308L6.11203 13.4313C6.08324 13.4028 6.05472 13.374 6.02645 13.3449L5.96947 12.9463C5.96896 12.9464 5.96845 12.9464 5.96794 12.9465M6.04805 12.9354L6.04226 12.9362C6.00891 12.9407 5.99025 12.9432 5.96794 12.9465M6.04805 12.9354L5.95267 13.9703C5.9385 13.9759 5.92377 13.9839 5.89993 14.0028L5.5891 13.6111L5.95289 13.2681C5.97698 13.2937 6.00127 13.319 6.02575 13.3442L5.9665 12.9467C5.96698 12.9467 5.96746 12.9466 5.96794 12.9465M5.46438 14.2786L5.18429 14.5715L4.69387 14.3765L4.69379 14.3766L4.55604 14.5989C4.57678 14.5113 4.5923 14.4214 4.60675 14.3297C4.64057 14.1156 4.67569 13.9651 4.72124 13.8416L4.81607 13.5844L4.65025 13.3661C3.66748 12.0726 3.08431 10.4597 3.08431 8.70923C3.08431 4.45353 6.53439 1.00342 10.7904 1.00342C15.0461 1.00342 18.4962 4.45351 18.4962 8.70923C18.4962 12.9653 15.0461 16.4154 10.7904 16.4154C8.72414 16.4154 6.84885 15.6027 5.46438 14.2786ZM7.23527 11.6889L7.12019 12.3793L7.81067 12.2643L8.95048 12.0743C8.95048 12.0743 8.95049 12.0743 8.9505 12.0743C9.68965 11.9511 10.2315 11.3117 10.2315 10.5622C10.2315 9.84747 9.65208 9.26804 8.93734 9.26804C8.18789 9.26804 7.54841 9.80989 7.42524 10.549C7.42524 10.5491 7.42524 10.5491 7.42524 10.5491L7.23527 11.6889ZM13.4374 7.67973C12.6903 7.67973 12.0845 7.07399 12.0845 6.32674C12.0845 5.57961 12.6902 4.97385 13.4374 4.97385C14.1846 4.97385 14.7904 5.57961 14.7904 6.32674C14.7904 7.07401 14.1846 7.67973 13.4374 7.67973ZM13.4374 7.6209C14.1522 7.6209 14.7316 7.04148 14.7316 6.32674C14.7316 5.61201 14.1522 5.03258 13.4374 5.03258C12.7227 5.03258 12.1433 5.61201 12.1433 6.32674C12.1433 7.04148 12.7227 7.6209 13.4374 7.6209Z" fill="white" stroke="white"/>
</svg>
