<svg width="184" height="135" viewBox="0 0 184 135" fill="none" xmlns="http://www.w3.org/2000/svg">
<g clip-path="url(#clip0)">
<path opacity="0.2" d="M24.3508 68.3956C21.9308 69.1268 19.6658 70.8971 19.0612 73.3533C18.3698 76.1761 19.9642 79.0215 20.1947 81.9198C20.939 91.4158 7.43184 98.1155 9.35874 107.443C10.1238 111.152 13.2163 113.881 16.2635 116.135C21.1449 119.734 26.561 122.914 32.559 123.811C41.6626 125.175 51.1743 121.166 60.023 123.7C67.1601 125.744 72.6215 131.735 79.7095 133.946C85.1048 135.629 90.9176 134.966 96.5226 134.284C99.5452 133.917 102.711 133.494 105.15 131.68C109.684 128.304 109.969 121.636 113.005 116.858C117.694 109.49 127.974 108.042 136.595 109.474C145.215 110.907 153.585 114.432 162.319 114.145C164.185 114.083 166.097 113.83 167.725 112.913C169.705 111.8 171.043 109.839 172.225 107.899C179.616 95.7251 183.673 81.8201 183.989 67.5813C184.04 65.1345 183.953 62.582 182.802 60.4224C181.348 57.6904 178.44 56.056 175.546 54.9564C168.596 52.3113 160.919 51.8786 154.109 48.8953C147.54 46.0178 142.22 40.9712 136.5 36.6464C125.101 28.0445 111.888 22.1594 97.8695 19.4399C94.5844 18.805 91.1745 18.3516 87.9101 19.0846C84.1489 19.9292 80.9071 22.2739 77.9922 24.7981C70.2374 31.513 64.0222 39.7979 56.8757 47.1571C51.9457 52.2322 46.5774 56.8621 40.8333 60.993C38.1885 62.8994 35.3775 65.1629 32.4305 66.5723C29.7329 67.8609 27.2033 67.5359 24.3508 68.3956Z" fill="#07595D"/>
<path d="M58.9178 8.71765C58.9178 8.71765 51.6164 18.4158 56.8398 29.72C62.0632 41.0242 47.7361 59.1868 47.7361 59.1868" stroke="#535461" stroke-width="2" stroke-miterlimit="10"/>
<path d="M62.1916 5.0881C61.6116 7.58397 58.8365 9.07091 58.8365 9.07091C58.8365 9.07091 57.0041 6.5108 57.584 4.01493C58.164 1.51906 59.662 -0.264516 60.9391 0.0321164C62.2161 0.328749 62.7715 2.59223 62.1916 5.0881Z" fill="#8ED16F"/>
<path d="M60.3277 4.65317C60.51 3.86959 60.4197 3.17896 60.1261 3.11061C59.8324 3.04226 59.4465 3.62207 59.2642 4.40566C59.0819 5.18924 59.1722 5.87987 59.4658 5.94822C59.7595 6.01657 60.1454 5.43676 60.3277 4.65317Z" fill="#8ED16F"/>
<path opacity="0.3" d="M60.3277 4.65317C60.51 3.86959 60.4197 3.17896 60.1261 3.11061C59.8324 3.04226 59.4465 3.62207 59.2642 4.40566C59.0819 5.18924 59.1722 5.87987 59.4658 5.94822C59.7595 6.01657 60.1454 5.43676 60.3277 4.65317Z" fill="black"/>
<path d="M60.9297 16.1768C58.5192 17.0459 55.763 15.5231 55.763 15.5231C55.763 15.5231 56.9154 12.5927 59.3278 11.7254C61.7402 10.8582 64.0505 11.1586 64.4945 12.3792C64.9384 13.5997 63.3402 15.3077 60.9297 16.1768Z" fill="#8ED16F"/>
<path d="M60.2526 14.2526C61.0087 13.979 61.5386 13.5275 61.4361 13.244C61.3335 12.9605 60.6375 12.9525 59.8813 13.226C59.1252 13.4996 58.5953 13.9511 58.6978 14.2346C58.8003 14.5181 59.4964 14.5261 60.2526 14.2526Z" fill="#8ED16F"/>
<path opacity="0.3" d="M60.2526 14.2526C61.0087 13.979 61.5386 13.5275 61.4361 13.244C61.3335 12.9605 60.6375 12.9525 59.8813 13.226C59.1252 13.4996 58.5953 13.9511 58.6978 14.2346C58.8003 14.5181 59.4964 14.5261 60.2526 14.2526Z" fill="black"/>
<path d="M60.3686 25.0135C57.9581 25.8826 55.2019 24.3598 55.2019 24.3598C55.2019 24.3598 56.3543 21.4293 58.7667 20.5621C61.1791 19.6949 63.4895 19.9953 63.9334 21.2158C64.3774 22.4364 62.7792 24.1463 60.3686 25.0135Z" fill="#8ED16F"/>
<path d="M59.7196 23.2228C60.4765 22.9503 61.0072 22.4993 60.9051 22.2156C60.803 21.9319 60.1066 21.9228 59.3498 22.1953C58.5929 22.4678 58.0622 22.9187 58.1643 23.2025C58.2664 23.4862 58.9628 23.4953 59.7196 23.2228Z" fill="#8ED16F"/>
<path opacity="0.3" d="M59.7196 23.2228C60.4765 22.9503 61.0072 22.4993 60.9051 22.2156C60.803 21.9319 60.1066 21.9228 59.3498 22.1953C58.5929 22.4678 58.0622 22.9187 58.1643 23.2025C58.2664 23.4862 58.9628 23.4953 59.7196 23.2228Z" fill="black"/>
<path d="M63.1853 35.3806C60.7748 36.2497 58.0186 34.7268 58.0186 34.7268C58.0186 34.7268 59.1709 31.7964 61.5833 30.9292C63.9957 30.062 66.3061 30.3624 66.7501 31.5829C67.194 32.8034 65.5958 34.5171 63.1853 35.3806Z" fill="#8ED16F"/>
<path d="M62.5365 33.5944C63.2934 33.3218 63.8241 32.8709 63.722 32.5872C63.6199 32.3034 62.9235 32.2943 62.1667 32.5669C61.4098 32.8394 60.8791 33.2903 60.9812 33.5741C61.0833 33.8578 61.7797 33.8669 62.5365 33.5944Z" fill="#8ED16F"/>
<path opacity="0.3" d="M62.5365 33.5944C63.2934 33.3218 63.8241 32.8709 63.722 32.5872C63.6199 32.3034 62.9235 32.2943 62.1667 32.5669C61.4098 32.8394 60.8791 33.2903 60.9812 33.5741C61.0833 33.8578 61.7797 33.8669 62.5365 33.5944Z" fill="black"/>
<path d="M61.3528 44.8614C58.9423 45.7305 56.1861 44.2077 56.1861 44.2077C56.1861 44.2077 57.3385 41.2772 59.7509 40.41C62.1632 39.5428 64.4736 39.8432 64.9176 41.0637C65.3615 42.2843 63.7652 43.9942 61.3528 44.8614Z" fill="#8ED16F"/>
<path d="M60.7093 42.9142C61.4655 42.6407 61.9953 42.1891 61.8928 41.9056C61.7903 41.6222 61.0942 41.6141 60.3381 41.8877C59.5819 42.1612 59.052 42.6127 59.1546 42.8962C59.2571 43.1797 59.9532 43.1877 60.7093 42.9142Z" fill="#8ED16F"/>
<path opacity="0.3" d="M60.7093 42.9142C61.4655 42.6407 61.9953 42.1891 61.8928 41.9056C61.7903 41.6222 61.0942 41.6141 60.3381 41.8877C59.5819 42.1612 59.052 42.6127 59.1546 42.8962C59.2571 43.1797 59.9532 43.1877 60.7093 42.9142Z" fill="black"/>
<path d="M50.0465 18.6879C51.826 20.5319 54.9714 20.3883 54.9714 20.3883C54.9714 20.3883 55.2302 17.2501 53.4507 15.406C51.6711 13.562 49.4665 12.8025 48.5258 13.7056C47.585 14.6087 48.2669 16.8439 50.0465 18.6879Z" fill="#8ED16F"/>
<path d="M52.8279 18.0335C53.0448 17.8241 52.7678 17.185 52.2091 16.6062C51.6504 16.0274 51.0217 15.728 50.8047 15.9374C50.5878 16.1469 50.8648 16.7859 51.4235 17.3647C51.9822 17.9435 52.611 18.243 52.8279 18.0335Z" fill="#8ED16F"/>
<path opacity="0.3" d="M52.8279 18.0335C53.0448 17.8241 52.7678 17.185 52.2091 16.6062C51.6504 16.0274 51.0217 15.728 50.8047 15.9374C50.5878 16.1469 50.8648 16.7859 51.4235 17.3647C51.9822 17.9435 52.611 18.243 52.8279 18.0335Z" fill="black"/>
<path d="M49.0245 47.9714C50.804 49.8154 53.9494 49.6718 53.9494 49.6718C53.9494 49.6718 54.2082 46.5335 52.4286 44.6895C50.6491 42.8455 48.4445 42.0859 47.5037 42.9891C46.5629 43.8922 47.2449 46.1273 49.0245 47.9714Z" fill="#8ED16F"/>
<path d="M51.8032 47.3195C52.0202 47.1101 51.7431 46.4711 51.1844 45.8922C50.6258 45.3134 49.997 45.014 49.7801 45.2234C49.5631 45.4329 49.8402 46.0719 50.3989 46.6507C50.9575 47.2295 51.5863 47.529 51.8032 47.3195Z" fill="#8ED16F"/>
<path opacity="0.3" d="M51.8032 47.3195C52.0202 47.1101 51.7431 46.4711 51.1844 45.8922C50.6258 45.3134 49.997 45.014 49.7801 45.2234C49.5631 45.4329 49.8402 46.0719 50.3989 46.6507C50.9575 47.2295 51.5863 47.529 51.8032 47.3195Z" fill="black"/>
<path d="M51.3839 29.0379C53.6773 30.1828 56.5922 28.9925 56.5922 28.9925C56.5922 28.9925 55.7894 25.9487 53.4979 24.8038C51.2064 23.6588 48.8733 23.6701 48.2896 24.8491C47.7058 26.0281 49.0906 27.8929 51.3839 29.0379Z" fill="#8ED16F"/>
<path d="M53.7811 27.4873C53.9157 27.2175 53.4414 26.7076 52.7216 26.3483C52.0018 25.9891 51.3092 25.9166 51.1746 26.1865C51.0399 26.4563 51.5143 26.9663 52.234 27.3255C52.9538 27.6847 53.6464 27.7572 53.7811 27.4873Z" fill="#8ED16F"/>
<path opacity="0.3" d="M53.7811 27.4873C53.9157 27.2175 53.4414 26.7076 52.7216 26.3483C52.0018 25.9891 51.3092 25.9166 51.1746 26.1865C51.0399 26.4563 51.5143 26.9663 52.234 27.3255C52.9538 27.6847 53.6464 27.7572 53.7811 27.4873Z" fill="black"/>
<path d="M52.3455 39.3482C54.6389 40.4931 57.5538 39.3028 57.5538 39.3028C57.5538 39.3028 56.7509 36.259 54.4595 35.1141C52.168 33.9691 49.8349 33.9804 49.2512 35.1594C48.6674 36.3384 50.0616 38.2145 52.3455 39.3482Z" fill="#8ED16F"/>
<path d="M54.7434 37.7991C54.878 37.5293 54.4037 37.0193 53.6839 36.6601C52.9642 36.3009 52.2715 36.2284 52.1369 36.4982C52.0023 36.7681 52.4766 37.278 53.1964 37.6373C53.9161 37.9965 54.6088 38.0689 54.7434 37.7991Z" fill="#8ED16F"/>
<path opacity="0.3" d="M54.7434 37.7991C54.878 37.5293 54.4037 37.0193 53.6839 36.6601C52.9642 36.3009 52.2715 36.2284 52.1369 36.4982C52.0023 36.7681 52.4766 37.278 53.1964 37.6373C53.9161 37.9965 54.6088 38.0689 54.7434 37.7991Z" fill="black"/>
<path d="M23.7518 29.5631C23.7518 29.5631 37.0871 42.9002 29.559 62.6915C22.0309 82.4827 42.4636 115.394 42.4636 115.394C42.4636 115.394 42.2444 115.362 41.8383 115.29C14.4461 110.455 0.844413 79.1253 16.0707 55.8519C21.7248 47.1986 26.3815 37.0488 23.7518 29.5631Z" fill="#8ED16F"/>
<path d="M0 83.5068C0 83.5068 15.2168 81.0827 16.6035 94.7221C17.9901 108.362 45.864 110.253 45.864 110.253C45.864 110.253 45.6751 110.378 45.3407 110.6C22.3256 125.715 0.324929 120.225 3.64033 100.162C4.87581 92.7005 4.7738 85.2091 0 83.5068Z" fill="#8ED16F"/>
<g opacity="0.3">
<path opacity="0.3" d="M0 83.5068C0 83.5068 15.2168 81.0827 16.6035 94.7221C17.9901 108.362 45.864 110.253 45.864 110.253C45.864 110.253 45.6751 110.378 45.3407 110.6C22.3256 125.715 0.324929 120.225 3.64033 100.162C4.87581 92.7005 4.7738 85.2091 0 83.5068Z" fill="white"/>
</g>
<path d="M19.9 83.3387C22.211 83.3387 24.0844 78.4502 24.0844 72.4199C24.0844 66.3897 22.211 61.5012 19.9 61.5012C17.589 61.5012 15.7156 66.3897 15.7156 72.4199C15.7156 78.4502 17.589 83.3387 19.9 83.3387Z" fill="#8ED16F"/>
<path opacity="0.3" d="M19.9 83.3387C22.211 83.3387 24.0844 78.4502 24.0844 72.4199C24.0844 66.3897 22.211 61.5012 19.9 61.5012C17.589 61.5012 15.7156 66.3897 15.7156 72.4199C15.7156 78.4502 17.589 83.3387 19.9 83.3387Z" fill="black"/>
<path d="M19.5176 112.075C20.6191 110.973 19.5246 108.092 17.0731 105.64C14.6216 103.189 11.7413 102.094 10.6399 103.196C9.53841 104.297 10.6329 107.178 13.0844 109.63C15.5359 112.082 18.4162 113.176 19.5176 112.075Z" fill="#8ED16F"/>
<path opacity="0.3" d="M19.5176 112.075C20.6191 110.973 19.5246 108.092 17.0731 105.64C14.6216 103.189 11.7413 102.094 10.6399 103.196C9.53841 104.297 10.6329 107.178 13.0844 109.63C15.5359 112.082 18.4162 113.176 19.5176 112.075Z" fill="black"/>
<path d="M136.751 50.1555H37.6973C36.5004 50.1555 35.3524 50.6311 34.5061 51.4776C33.6597 52.324 33.1842 53.4721 33.1842 54.6692V112.736C33.1842 113.933 33.6597 115.081 34.5061 115.927C35.3524 116.774 36.5004 117.249 37.6973 117.249H136.751C137.948 117.249 139.096 116.774 139.943 115.927C140.789 115.081 141.264 113.933 141.264 112.736V54.6692C141.264 53.4721 140.789 52.324 139.943 51.4776C139.096 50.6311 137.948 50.1555 136.751 50.1555V50.1555Z" fill="url(#paint0_linear)"/>
<path d="M135.454 51.149H39.2926C36.704 51.149 34.6057 53.2477 34.6057 55.8366V111.976C34.6057 114.565 36.704 116.663 39.2926 116.663H135.454C138.043 116.663 140.141 114.565 140.141 111.976V55.8366C140.141 53.2477 138.043 51.149 135.454 51.149Z" fill="url(#paint1_linear)"/>
<path d="M139.991 62.41H34.4556V74.4208H139.991V62.41Z" fill="#07595D"/>
<path opacity="0.3" d="M139.991 62.41H34.4556V74.4208H139.991V62.41Z" fill="black"/>
<path d="M86.9357 108.168C100.454 108.168 111.413 97.2807 111.413 83.8509C111.413 70.4211 100.454 59.5342 86.9357 59.5342C73.4174 59.5342 62.4587 70.4211 62.4587 83.8509C62.4587 97.2807 73.4174 108.168 86.9357 108.168Z" fill="white"/>
<path d="M84.492 92.7191C84.2583 92.9473 83.9396 93.0745 83.6084 93.0745C83.2773 93.0745 82.9585 92.9473 82.7249 92.7191L75.6685 85.8692C74.9362 85.1584 74.9362 84.0058 75.6685 83.2964L76.5521 82.4386C77.2846 81.7278 78.4707 81.7278 79.203 82.4386L83.6084 86.7147L95.5126 75.1604C96.2452 74.4496 97.4324 74.4496 98.1635 75.1604L99.0471 76.0182C99.7794 76.729 99.7794 77.8813 99.0471 78.5909L84.492 92.7191Z" fill="#117443"/>
<path d="M133.991 34.791C134.126 35.2183 134.413 35.5812 134.798 35.8113C136.534 36.9581 140.308 36.7144 140.762 36.7144C140.858 36.7144 140.985 36.8863 141.125 37.1754C141.791 38.5509 142.825 42.5828 142.895 43.4897C142.987 44.5874 144.007 49.7246 145.677 51.6386C145.728 51.6972 145.779 51.752 145.828 51.803C147.466 53.4486 149.388 51.6386 149.388 51.6386L149.663 50.6807C149.586 51.0586 149.499 51.4988 149.412 51.9919C149.369 52.2394 149.325 52.502 149.284 52.7722C149.035 54.2946 148.904 55.834 148.893 57.3766C148.888 57.9367 148.912 58.4967 148.964 59.0544C148.98 59.2093 148.997 59.3624 149.017 59.5116C149.103 60.191 149.144 60.8751 149.142 61.5597C149.127 65.6257 148.09 70.6835 148.09 70.6835L148.129 70.6703C148.105 70.7969 148.09 70.8592 148.09 70.8592L148.15 70.8404C148.121 71.028 148.094 71.2201 148.067 71.4166C147.716 73.9673 147.514 77.1414 147.417 78.9741C147.367 79.9409 147.41 80.9101 147.546 81.8687L149.389 94.8506V100.897C149.383 101.813 149.495 102.726 149.722 103.614C150.323 105.898 149.828 113.871 149.55 117.654C149.473 118.685 149.412 119.407 149.395 119.615V119.677L149.448 119.656C149.448 119.7 149.448 119.722 149.448 119.722C149.527 119.689 149.609 119.665 149.694 119.651C148.963 120.784 147.638 122.658 146.62 122.974C146.02 123.157 145.486 123.511 145.084 123.992L145.058 124.028L145.02 124.081C144.894 124.25 144.818 124.45 144.799 124.659C144.784 124.623 144.773 124.586 144.765 124.548C144.687 124.969 144.941 125.355 145.736 125.542C146.2 125.63 146.671 125.668 147.143 125.655C149.901 125.655 154.796 124.807 155.336 123.894V120.746L155.425 120.775V120.803L155.763 120.915L156.691 117.801C157.804 116.977 156.88 102.234 156.691 98.8466C156.521 95.7594 158.431 83.4784 158.769 81.3151L158.724 81.2603L158.775 80.9448C158.843 80.9941 158.906 81.0498 158.964 81.111C159.075 81.2429 159.171 81.386 159.253 81.538C159.412 81.8084 159.549 82.0915 159.662 82.3845C161.529 87.0399 162.37 100.352 162.37 101.547V114.066C162.366 115.301 162.537 116.531 162.88 117.718C163.051 118.343 163.184 118.977 163.276 119.618C163.316 119.87 163.35 120.119 163.382 120.357C163.414 120.595 163.446 120.867 163.471 121.09C163.471 121.149 163.484 121.206 163.49 121.258C163.496 121.311 163.49 121.309 163.49 121.336C163.541 121.829 163.567 122.152 163.567 122.152C163.574 122.125 163.587 122.1 163.605 122.078L163.615 122.197C163.628 122.152 163.653 122.112 163.688 122.08C163.765 122.005 163.848 121.937 163.938 121.876V123.467L163.892 123.433V123.707C165.815 125.158 168.946 125.596 171.349 125.579C172.907 125.579 174.169 125.391 174.607 125.171C175.235 124.863 174.891 124.145 174.32 123.596C173.878 123.169 173.302 122.84 172.937 122.881C172.329 122.948 170.249 120.592 169.159 119.301L169.282 119.246L169.456 119.171V98.2968C169.456 98.2968 169.735 90.0553 170.568 81.9046C170.964 77.7959 170.477 73.6501 169.142 69.7445L169.116 69.6671L169.369 69.7067C169.637 69.7483 169.781 69.7729 169.781 69.7729C169.781 69.7729 169.781 69.7086 169.764 69.5839H169.781C169.781 69.5839 169.456 66.0489 169.452 61.6088C169.452 56.5755 169.877 50.4388 171.636 46.9662C172.648 44.9672 172.986 43.3763 172.958 42.1218C173.002 41.0179 172.685 39.9298 172.053 39.0232C171.788 38.6583 171.428 38.3733 171.012 38.1994L170.976 38.1786H170.958C170.654 38.0557 170.329 37.9916 170.002 37.9897H166.203C165.763 37.9901 165.331 37.8761 164.948 37.6591L163.462 36.8164C162.967 35.7338 162.895 34.3923 163.001 33.134C163.001 33.0339 163.019 32.9337 163.029 32.8355L163.137 32.7221C163.22 32.6333 163.297 32.5332 163.373 32.4482C163.371 32.5227 163.365 32.5971 163.356 32.6711C163.337 32.7901 163.305 32.86 163.254 32.8752C164.066 32.7694 164.973 32.6088 165.472 31.9815C165.492 31.9569 165.511 31.9305 165.53 31.904C165.677 31.6654 165.8 31.4121 165.895 31.1483C165.965 30.968 166.058 30.7977 166.172 30.6419C166.297 30.4794 166.46 30.3472 166.594 30.1922L166.616 30.1658C167.094 29.599 167.121 28.7865 167.126 28.0459C167.136 26.2472 167.083 24.2671 165.88 22.9181C164.88 21.7958 163.286 21.3707 161.773 21.3216C160.259 21.2725 158.75 21.5445 157.239 21.5521C156.211 21.5521 154.972 21.5351 154.405 22.3853C154.127 22.8029 154.093 23.3489 153.791 23.7495C153.617 23.98 153.351 24.1783 153.336 24.4655C153.334 24.598 153.368 24.7286 153.434 24.8434V24.8566C153.801 25.5784 154.579 26.028 155.391 26.1698C155.254 26.3351 155.128 26.5093 155.013 26.6912C154.517 27.4842 154.255 28.4011 154.258 29.3364C154.258 29.4459 154.258 29.5536 154.269 29.6613C154.353 30.9317 154.92 32.1218 155.852 32.9885C155.837 33.0943 155.822 33.2001 155.805 33.3041L155.839 33.3343C155.946 33.4313 156.057 33.5232 156.173 33.6101L156.215 33.6422C156.215 33.7084 156.215 33.7745 156.215 33.8312C156.215 33.9408 156.215 34.0522 156.204 34.1599C156.192 34.2676 156.204 34.3338 156.192 34.4207L156.168 34.3999L154.322 32.8582L151.354 30.111C151.354 30.111 143.934 24.7093 143.562 27.2769C143.517 27.733 143.642 28.1894 143.915 28.5579C145.277 30.6362 149.96 32.4047 149.96 32.4047C149.96 32.4047 152.752 35.3578 154.62 38.5414C154.554 38.5773 154.488 38.6113 154.418 38.6434C152.756 39.4162 150.33 39.0893 150.33 39.0893C147.529 39.5258 147.276 42.596 147.291 43.8373C147.291 43.8959 147.291 43.9526 147.291 44.0036C147.291 44.0546 147.291 44.066 147.291 44.0943L143.573 35.3635L143.562 35.337C143.44 35.0528 143.249 34.8037 143.006 34.6128C142.763 34.422 142.476 34.2954 142.171 34.245C139.685 33.8274 133.472 32.9564 133.991 34.791ZM149.556 119.624C149.61 119.611 149.665 119.601 149.72 119.594L149.703 119.62L149.556 119.624Z" fill="url(#paint2_linear)"/>
<path d="M168.131 117.839C168.131 117.839 171.653 122.266 172.467 122.175C173.281 122.084 175.176 123.89 174.094 124.442C173.011 124.994 166.779 125.345 163.703 122.997V119.458L168.131 117.839Z" fill="#126F77"/>
<path d="M150.338 118.109C150.338 118.109 148.26 121.812 146.816 122.266C145.373 122.719 144.107 124.344 146.004 124.795C147.901 125.247 154.675 124.253 155.306 123.169V118.379L150.338 118.109Z" fill="#126F77"/>
<path d="M147.729 81.7289L149.524 94.5352V100.489C149.518 101.392 149.627 102.292 149.849 103.168C150.434 105.422 149.953 113.285 149.681 117.017C149.592 118.234 149.524 119.012 149.524 119.012C150.697 118.47 155.665 120.185 155.665 120.185L156.168 118.476L156.568 117.115C157.653 116.303 156.757 101.76 156.568 98.4103C156.445 96.1222 157.466 88.7045 158.119 84.2588C158.308 83.0024 158.461 81.9916 158.554 81.3832C158.612 81.0053 158.644 80.7956 158.644 80.7956C158.843 80.9579 159.009 81.1575 159.132 81.3832C159.287 81.6502 159.421 81.9295 159.53 82.2183C161.348 86.8114 162.175 99.9426 162.175 101.112V113.461C162.171 114.679 162.339 115.892 162.672 117.064C162.896 117.919 163.059 118.788 163.161 119.666C163.29 120.646 163.35 121.436 163.35 121.436C163.441 120.894 169.04 118.455 169.04 118.455V97.8605C169.04 97.8605 169.31 89.7361 170.125 81.6912C170.474 78.0317 170.122 74.3391 169.085 70.8121C168.861 70.0431 168.636 69.3913 168.441 68.8755C168.111 67.9969 167.875 67.5114 167.875 67.5114H149.429C149.119 67.5699 148.863 68.1934 148.63 69.14C148.479 69.7748 148.347 70.5533 148.232 71.4073C147.89 73.922 147.693 77.0527 147.599 78.8628C147.551 79.8201 147.595 80.7799 147.729 81.7289V81.7289Z" fill="#07595D" fill-opacity="0.5"/>
<g opacity="0.1">
<path opacity="0.1" d="M168.715 118.513V97.919C168.715 97.919 168.985 89.7947 169.799 81.7497C170.614 73.7047 167.533 67.568 167.533 67.568H167.893C167.893 67.568 170.963 73.7104 170.16 81.7497C169.357 89.789 169.076 97.919 169.076 97.919V118.513C169.076 118.513 163.477 120.952 163.386 121.495C163.386 121.495 163.386 121.374 163.358 121.166C164.578 120.318 168.715 118.513 168.715 118.513Z" fill="black"/>
<path opacity="0.1" d="M150.066 118.955C149.895 118.959 149.727 118.994 149.569 119.057V118.967C149.734 118.95 149.9 118.946 150.066 118.955V118.955Z" fill="black"/>
<path opacity="0.1" d="M156.253 117.16C157.337 116.348 156.442 101.805 156.253 98.4556C156.064 95.1057 158.331 80.8428 158.331 80.8428C158.449 80.9345 158.554 81.0426 158.642 81.164C158.31 83.2952 156.451 95.4118 156.615 98.4556C156.804 101.798 157.7 116.34 156.615 117.16L155.712 120.231L155.384 120.121L156.253 117.16Z" fill="black"/>
</g>
<path d="M151.42 45.2148L149.531 51.8994C149.531 51.8994 147.544 53.7888 145.919 51.8994C144.295 50.01 143.293 44.9446 143.195 43.8601C143.097 42.7756 141.659 37.1755 141.117 37.1755C140.575 37.1755 135.157 37.5363 134.524 35.2861C134.018 33.4761 140.067 34.3414 142.489 34.7476C142.787 34.7984 143.067 34.9238 143.304 35.112C143.541 35.3003 143.726 35.5454 143.843 35.8246L147.557 44.6952C147.557 44.6952 149.524 42.4147 151.42 45.2148Z" fill="#F7C4A7"/>
<path d="M163.613 29.6783C163.613 29.6783 161.264 36.2723 164.245 38.6208C167.226 40.9693 153.585 41.6022 153.585 41.6022L155.437 39.8413C155.437 39.8413 156.746 34.6474 155.843 30.3113L163.613 29.6783Z" fill="#F7C4A7"/>
<path opacity="0.1" d="M160.722 38.6209C160.722 38.6209 163.116 38.0333 163.116 37.4022L165.237 38.6209H170.566C170.566 38.6209 174.45 40.788 171.199 47.2931C167.948 53.7982 169.393 69.7767 169.393 69.7767C169.393 69.7767 157.834 67.6984 148.26 70.8612C148.26 70.8612 149.705 63.7251 149.163 59.661C148.621 55.5969 150.066 49.9061 150.066 49.9061L150.878 46.4731C150.878 46.4731 150.833 43.2612 147.491 44.8917C147.491 44.8917 146.994 40.2401 150.427 39.6978C150.427 39.6978 154.394 40.2401 155.574 38.2524C155.574 38.26 158.195 39.7961 160.722 38.6209Z" fill="black"/>
<path d="M160.722 38.4413C160.722 38.4413 163.116 37.8537 163.116 37.2227L164.67 38.1163C165.042 38.3292 165.463 38.4412 165.891 38.4413H169.618C170.008 38.4402 170.392 38.5318 170.739 38.7085C171.086 38.8853 171.387 39.1421 171.615 39.4578C172.471 40.6613 173.238 43.0344 171.199 47.1136C167.948 53.6168 169.393 69.5972 169.393 69.5972C169.393 69.5972 157.834 67.5189 148.26 70.6817C148.26 70.6817 149.705 63.5455 149.163 59.4814C148.621 55.4174 150.066 49.7398 150.066 49.7398L150.878 46.3068C150.878 46.3068 150.833 43.0948 147.491 44.7254C147.491 44.7254 147.007 40.2022 150.285 39.556C150.376 39.5358 150.47 39.5294 150.563 39.5371C151.263 39.6108 154.53 39.847 155.576 38.0767C155.574 38.0785 158.195 39.6146 160.722 38.4413Z" fill="#FFA030"/>
<path opacity="0.1" d="M169.845 46.6602C169.845 46.6602 166.954 48.4664 162.258 46.6602C162.258 46.6602 157.11 44.7708 155.484 41.06C153.857 37.3493 163.701 41.693 163.701 41.693C163.701 41.693 165.779 41.693 166.41 41.2414C167.041 40.7898 171.469 44.6725 169.845 46.6602Z" fill="black"/>
<path d="M169.845 46.2992C169.845 46.2992 166.954 48.1054 162.258 46.2992C162.258 46.2992 157.11 44.4098 155.484 40.6991C153.857 36.9883 150.066 32.9243 150.066 32.9243C150.066 32.9243 143.473 30.3944 143.832 27.8664C144.191 25.3384 151.418 30.6665 151.418 30.6665L154.309 33.3758L163.701 41.3245C163.701 41.3245 165.779 41.3245 166.41 40.8729C167.041 40.4213 171.469 44.3116 169.845 46.2992Z" fill="#F7C4A7"/>
<path opacity="0.1" d="M155.756 30.5816L163.522 29.9486C163.123 31.1428 162.851 32.3758 162.712 33.6272C161.809 34.5636 160.574 35.108 159.274 35.1433C157.974 35.1786 156.712 34.7021 155.76 33.8162C155.957 32.7469 155.956 31.6503 155.756 30.5816V30.5816Z" fill="black"/>
<path d="M159.234 34.8723C161.977 34.8723 164.2 32.6485 164.2 29.9052C164.2 27.1619 161.977 24.938 159.234 24.938C156.491 24.938 154.267 27.1619 154.267 29.9052C154.267 32.6485 156.491 34.8723 159.234 34.8723Z" fill="#F7C4A7"/>
<path opacity="0.1" d="M161.96 30.9839C161.669 30.504 162.26 29.8786 162.066 29.3534C161.886 28.8697 161.172 28.7866 160.932 28.335C160.743 27.9703 160.932 27.5226 160.856 27.1201C160.749 26.6005 160.19 26.2775 159.659 26.251C159.128 26.2246 158.616 26.4229 158.112 26.593C157.29 26.8707 156.425 27.0842 155.563 26.986C154.702 26.8877 153.842 26.4192 153.459 25.6502C153.396 25.5382 153.363 25.412 153.362 25.2836C153.377 25.0002 153.638 24.8056 153.806 24.5789C154.101 24.184 154.135 23.6456 154.403 23.2337C154.951 22.3948 156.154 22.4156 157.156 22.4118C158.629 22.4118 160.095 22.1359 161.569 22.1851C163.042 22.2342 164.591 22.6517 165.568 23.7589C166.739 25.0909 166.792 27.0408 166.783 28.8168C166.783 29.548 166.752 30.3434 166.286 30.9083C166.15 31.0727 165.984 31.2087 165.853 31.3769C165.57 31.7548 165.494 32.2384 165.228 32.622C164.756 33.3041 163.834 33.4703 163.012 33.5799C163.254 33.5478 163.054 31.9286 163.012 31.7793C162.853 31.0349 162.681 31.05 161.96 30.9839Z" fill="black"/>
<path d="M161.96 30.8045C161.669 30.3246 162.26 29.6992 162.066 29.1739C161.886 28.6902 161.172 28.6071 160.932 28.1555C160.743 27.7909 160.932 27.3431 160.856 26.9407C160.749 26.4211 160.19 26.098 159.659 26.0716C159.128 26.0451 158.616 26.2435 158.112 26.4135C157.29 26.6913 156.425 26.9048 155.563 26.8065C154.702 26.7083 153.842 26.2397 153.459 25.4707C153.396 25.3587 153.363 25.2326 153.362 25.1042C153.377 24.8208 153.638 24.6262 153.806 24.3995C154.101 24.0046 154.135 23.4661 154.403 23.0542C154.951 22.2153 156.154 22.2361 157.156 22.2323C158.629 22.2323 160.095 21.9565 161.569 22.0056C163.042 22.0547 164.591 22.4723 165.568 23.5795C166.739 24.9115 166.792 26.8613 166.783 28.6373C166.783 29.3685 166.752 30.164 166.286 30.7289C166.15 30.8933 165.984 31.0293 165.853 31.1974C165.57 31.5753 165.494 32.059 165.228 32.4425C164.756 33.1246 163.834 33.2909 163.012 33.4005C163.254 33.3683 163.054 31.7491 163.012 31.5999C162.853 30.846 162.681 30.8687 161.96 30.8045Z" fill="#281C1C"/>
<path opacity="0.1" d="M169.799 46.8869C169.799 46.8869 167.361 40.5631 165.464 40.3836C163.567 40.2041 169.076 40.3836 169.076 40.3836L170.882 43.6352L169.799 46.8869Z" fill="black"/>
<path d="M169.981 46.8869C169.981 46.8869 167.542 40.5631 165.645 40.3836C163.749 40.2041 169.257 40.3836 169.257 40.3836L171.063 43.6352L169.981 46.8869Z" fill="#E14B5A"/>
<path d="M163.154 119.681C163.282 120.661 163.343 121.451 163.343 121.451C163.433 120.909 169.033 118.47 169.033 118.47V117.002C168.89 116.996 168.747 117.003 168.606 117.023C167.519 117.168 166.512 117.695 165.583 118.258C164.798 118.773 163.987 119.248 163.154 119.681V119.681Z" fill="#618FD8"/>
<path opacity="0.3" d="M163.154 119.681C163.282 120.661 163.343 121.451 163.343 121.451C163.433 120.909 169.033 118.47 169.033 118.47V117.002C168.89 116.996 168.747 117.003 168.606 117.023C167.519 117.168 166.512 117.695 165.583 118.258C164.798 118.773 163.987 119.248 163.154 119.681V119.681Z" fill="black"/>
<path d="M149.524 119.012C150.697 118.47 155.665 120.185 155.665 120.185L156.168 118.475C155.3 118.3 154.439 118.081 153.593 117.82C153.198 117.705 152.811 117.563 152.437 117.393C152.186 117.259 151.929 117.139 151.666 117.034C151.018 116.811 150.343 116.905 149.678 117.017C149.592 118.234 149.524 119.012 149.524 119.012Z" fill="#618FD8"/>
<path opacity="0.3" d="M149.524 119.012C150.697 118.47 155.665 120.185 155.665 120.185L156.168 118.475C155.3 118.3 154.439 118.081 153.593 117.82C153.198 117.705 152.811 117.563 152.437 117.393C152.186 117.259 151.929 117.139 151.666 117.034C151.018 116.811 150.343 116.905 149.678 117.017C149.592 118.234 149.524 119.012 149.524 119.012Z" fill="black"/>
<path opacity="0.4" d="M174.044 124.161C174.12 124.128 174.187 124.079 174.241 124.017C174.294 123.955 174.333 123.881 174.354 123.802C174.388 123.926 174.375 124.059 174.318 124.175C174.261 124.29 174.164 124.382 174.044 124.431C172.96 124.973 166.73 125.334 163.654 122.985V122.715C166.73 125.064 172.96 124.703 174.044 124.161Z" fill="white"/>
<path opacity="0.4" d="M145.957 124.522C147.846 124.973 154.628 123.979 155.259 122.895V123.165C154.626 124.249 147.854 125.243 145.957 124.792C145.182 124.603 144.935 124.225 145.012 123.811C145.073 124.117 145.356 124.37 145.957 124.522Z" fill="white"/>
<path opacity="0.1" d="M156.974 58.72C156.974 58.72 154.987 58.0871 154.445 58.72C153.902 59.353 149.268 60.8361 149.268 60.8361" fill="black"/>
<path d="M134.488 33.9011H144.151V33.6971H134.488V33.9011Z" fill="#8ED16F"/>
<path d="M134.488 34.1052H144.151V33.9012H134.488V34.1052Z" fill="#8ED16F"/>
<path opacity="0.1" d="M134.488 34.1052H144.151V33.9012H134.488V34.1052Z" fill="black"/>
<path d="M134.488 34.3092H144.151V34.1052H134.488V34.3092Z" fill="#8ED16F"/>
<path d="M134.488 34.5115H144.151V34.3074H134.488V34.5115Z" fill="#8ED16F"/>
<path opacity="0.1" d="M134.488 34.5115H144.151V34.3074H134.488V34.5115Z" fill="black"/>
<path d="M134.488 34.7155H144.151V34.5114H134.488V34.7155Z" fill="#8ED16F"/>
<path d="M134.488 34.9176H144.151V34.7136H134.488V34.9176Z" fill="#8ED16F"/>
<path opacity="0.1" d="M134.488 34.9176H144.151V34.7136H134.488V34.9176Z" fill="black"/>
<path d="M134.488 35.1217H144.151V34.9176H134.488V35.1217Z" fill="#8ED16F"/>
<path d="M134.488 35.3239H144.151V35.1198H134.488V35.3239Z" fill="#8ED16F"/>
<path opacity="0.1" d="M134.488 35.3239H144.151V35.1198H134.488V35.3239Z" fill="black"/>
<path d="M134.488 32.2762H144.151V32.0722H134.488V32.2762Z" fill="#8ED16F"/>
<path d="M141.323 27.4452L148.752 33.6249L148.883 33.468L141.453 27.2883L141.323 27.4452Z" fill="#8ED16F"/>
<path d="M134.55 24.194L141.979 30.3737L142.109 30.2168L134.68 24.0371L134.55 24.194Z" fill="#8ED16F"/>
<path d="M134.488 32.4784H144.151V32.2743H134.488V32.4784Z" fill="#8ED16F"/>
<path opacity="0.1" d="M134.488 32.4784H144.151V32.2743H134.488V32.4784Z" fill="black"/>
<path d="M134.488 32.6843H144.151V32.4803H134.488V32.6843Z" fill="#8ED16F"/>
<path d="M134.488 32.8866H144.151V32.6825H134.488V32.8866Z" fill="#8ED16F"/>
<path opacity="0.1" d="M134.488 32.8866H144.151V32.6825H134.488V32.8866Z" fill="black"/>
<path d="M134.488 33.0887H144.151V32.8847H134.488V33.0887Z" fill="#8ED16F"/>
<path d="M134.488 33.2927H144.151V33.0887H134.488V33.2927Z" fill="#8ED16F"/>
<path opacity="0.1" d="M134.488 33.2927H144.151V33.0887H134.488V33.2927Z" fill="black"/>
<path d="M134.488 33.4949H144.151V33.2908H134.488V33.4949Z" fill="#8ED16F"/>
<path d="M134.488 33.699H144.151V33.4949H134.488V33.699Z" fill="#8ED16F"/>
<path opacity="0.1" d="M134.488 33.699H144.151V33.4949H134.488V33.699Z" fill="black"/>
<path d="M133.263 41.6216L136.725 42.2646L137.978 35.5159L134.516 34.8729L133.263 41.6216Z" fill="#8ED16F"/>
<path d="M136.379 38.7221C136.524 37.9373 136.325 37.242 135.933 37.1693C135.541 37.0965 135.105 37.6737 134.96 38.4586C134.814 39.2434 135.013 39.9386 135.405 40.0114C135.797 40.0842 136.233 39.507 136.379 38.7221Z" fill="#8ED16F"/>
<path opacity="0.1" d="M136.379 38.7221C136.524 37.9373 136.325 37.242 135.933 37.1693C135.541 37.0965 135.105 37.6737 134.96 38.4586C134.814 39.2434 135.013 39.9386 135.405 40.0114C135.797 40.0842 136.233 39.507 136.379 38.7221Z" fill="black"/>
<path d="M121.333 20.8532L119.658 23.9506L125.694 27.2174L127.37 24.12L121.333 20.8532Z" fill="#8ED16F"/>
<path d="M125.373 24.8619C125.564 24.5111 125.15 23.9162 124.448 23.533C123.745 23.1498 123.021 23.1236 122.83 23.4744C122.638 23.8251 123.053 24.4201 123.755 24.8033C124.457 25.1864 125.182 25.2127 125.373 24.8619Z" fill="#8ED16F"/>
<path opacity="0.1" d="M125.373 24.8619C125.564 24.5111 125.15 23.9162 124.448 23.533C123.745 23.1498 123.021 23.1236 122.83 23.4744C122.638 23.8251 123.053 24.4201 123.755 24.8033C124.457 25.1864 125.182 25.2127 125.373 24.8619Z" fill="black"/>
<path d="M99.971 31.5359L98.295 34.6333L104.331 37.9001L106.007 34.8028L99.971 31.5359Z" fill="#8ED16F"/>
<path d="M103.401 35.4445C103.591 35.094 103.175 34.5018 102.473 34.1219C101.771 33.742 101.049 33.7182 100.859 34.0687C100.669 34.4193 101.084 35.0115 101.786 35.3914C102.488 35.7713 103.211 35.7951 103.401 35.4445Z" fill="#8ED16F"/>
<path opacity="0.1" d="M103.401 35.4445C103.591 35.094 103.175 34.5018 102.473 34.1219C101.771 33.742 101.049 33.7182 100.859 34.0687C100.669 34.4193 101.084 35.0115 101.786 35.3914C102.488 35.7713 103.211 35.7951 103.401 35.4445Z" fill="black"/>
<path d="M110.134 20.8524L108.458 23.9497L114.494 27.2166L116.17 24.1192L110.134 20.8524Z" fill="#8ED16F"/>
<path d="M113.564 24.7611C113.754 24.4105 113.339 23.8183 112.637 23.4384C111.935 23.0585 111.212 23.0347 111.022 23.3853C110.833 23.7358 111.248 24.328 111.95 24.7079C112.652 25.0878 113.375 25.1116 113.564 24.7611Z" fill="#8ED16F"/>
<path opacity="0.1" d="M113.564 24.7611C113.754 24.4105 113.339 23.8183 112.637 23.4384C111.935 23.0585 111.212 23.0347 111.022 23.3853C110.833 23.7358 111.248 24.328 111.95 24.7079C112.652 25.0878 113.375 25.1116 113.564 24.7611Z" fill="black"/>
<path d="M120.281 33.4583L116.781 33.8411L117.527 40.6645L121.027 40.2817L120.281 33.4583Z" fill="#8ED16F"/>
<path d="M119.015 38.504C119.411 38.4607 119.662 37.7823 119.575 36.9888C119.488 36.1952 119.097 35.5871 118.701 35.6304C118.304 35.6737 118.054 36.3521 118.14 37.1457C118.227 37.9392 118.619 38.5474 119.015 38.504Z" fill="#8ED16F"/>
<path opacity="0.1" d="M119.015 38.504C119.411 38.4607 119.662 37.7823 119.575 36.9888C119.488 36.1952 119.097 35.5871 118.701 35.6304C118.304 35.6737 118.054 36.3521 118.14 37.1457C118.227 37.9392 118.619 38.5474 119.015 38.504Z" fill="black"/>
<path d="M91.3426 43.6022L89.6667 46.6996L95.7028 49.9664L97.3787 46.8691L91.3426 43.6022Z" fill="#8ED16F"/>
<path d="M95.274 47.7191C95.4653 47.3683 95.051 46.7733 94.3486 46.3902C93.6463 46.007 92.9218 45.9808 92.7305 46.3315C92.5392 46.6823 92.9535 47.2773 93.6558 47.6605C94.3582 48.0436 95.0827 48.0699 95.274 47.7191Z" fill="#8ED16F"/>
<path opacity="0.1" d="M95.274 47.7191C95.4653 47.3683 95.051 46.7733 94.3486 46.3902C93.6463 46.007 92.9218 45.9808 92.7305 46.3315C92.5392 46.6823 92.9535 47.2773 93.6558 47.6605C94.3582 48.0436 95.0827 48.0699 95.274 47.7191Z" fill="black"/>
</g>
<defs>
<linearGradient id="paint0_linear" x1="87.2243" y1="117.249" x2="87.2243" y2="50.1555" gradientUnits="userSpaceOnUse">
<stop stop-color="#808080" stop-opacity="0.25"/>
<stop offset="0.54" stop-color="#808080" stop-opacity="0.12"/>
<stop offset="1" stop-color="#808080" stop-opacity="0.1"/>
</linearGradient>
<linearGradient id="paint1_linear" x1="50.4807" y1="56.4235" x2="98.6749" y2="140.447" gradientUnits="userSpaceOnUse">
<stop stop-color="#07595D"/>
<stop offset="1" stop-color="#04343D" stop-opacity="0.94"/>
</linearGradient>
<linearGradient id="paint2_linear" x1="-121376" y1="79089.5" x2="-121376" y2="21474" gradientUnits="userSpaceOnUse">
<stop stop-color="#808080" stop-opacity="0.25"/>
<stop offset="0.54" stop-color="#808080" stop-opacity="0.12"/>
<stop offset="1" stop-color="#808080" stop-opacity="0.1"/>
</linearGradient>
<clipPath id="clip0">
<rect width="184" height="135" fill="white"/>
</clipPath>
</defs>
</svg>
