<svg width="98" height="93" viewBox="0 0 98 93" fill="none" xmlns="http://www.w3.org/2000/svg">
<path d="M45.0626 79.8261V88.588H9.78986C4.93986 88.588 0.97168 84.6452 0.97168 79.8261V9.7309C0.97168 4.91185 4.93986 0.968994 9.78986 0.968994H89.1535C94.0035 0.968994 97.9717 4.91185 97.9717 9.7309V45.2166L97.0899 44.3404C94.8853 42.1499 92.2399 40.8357 89.1535 40.8357V18.4928H9.78986V79.8261H45.0626ZM90.9171 50.4738L96.6489 56.169C97.5308 57.0452 97.5308 58.7976 96.6489 59.6738L92.2399 64.0547L82.9808 54.8547L87.3899 50.4738C87.8308 50.0357 88.2717 49.5976 89.1535 49.5976C90.0353 49.5976 90.4762 50.0357 90.9171 50.4738ZM89.5944 66.2452L63.1399 92.969H53.8808V83.769L80.7762 57.0452L89.5944 66.2452Z" fill="#A75300"/>
</svg>
