<svg width="89" height="88" viewBox="0 0 89 88" fill="none" xmlns="http://www.w3.org/2000/svg">
<path fill-rule="evenodd" clip-rule="evenodd" d="M40.6621 69.8279L40.5412 44.3358L31.5625 44.2953L31.5953 37.0288L49.2947 37.1087L49.4008 62.6007L57.6497 62.6379L57.6169 69.9044L40.6621 69.8279ZM39.0226 24.7525C38.9768 23.214 39.5294 21.7164 40.5674 20.5666C41.5848 19.457 43.0371 18.9089 44.9242 18.9222C46.8114 18.9307 48.2685 19.4944 49.2955 20.6133C50.3225 21.7273 50.8298 23.1248 50.8173 24.8058C50.8098 26.4625 50.2875 27.836 49.2506 28.9262C48.2136 30.0163 46.754 30.5572 44.8718 30.5487C42.9895 30.5402 41.5422 29.9862 40.5299 28.8868C39.4982 27.756 38.9571 26.2718 39.0226 24.7525ZM44.299 80.6862C54.0744 80.7303 63.4668 76.9448 70.4098 70.1623C77.3529 63.3798 81.2779 54.1559 81.3214 44.5199C81.3649 34.8839 77.5233 25.625 70.6417 18.7801C63.7602 11.9352 54.4024 8.06498 44.627 8.02086C34.8515 7.97674 25.4592 11.7623 18.5161 18.5448C11.5731 25.3273 7.64807 34.5511 7.60458 44.1872C7.56108 53.8232 11.4027 63.0821 18.2842 69.927C25.1657 76.7719 34.5235 80.6421 44.299 80.6862ZM44.2662 87.9527C38.4578 87.9265 32.7114 86.7728 27.355 84.5575C21.9987 82.3423 17.1373 79.1088 13.0484 75.0417C8.95957 70.9746 5.7233 66.1535 3.52441 60.8538C1.32551 55.5541 0.207056 49.8794 0.232899 44.1539C0.258742 38.4284 1.42838 32.7641 3.67502 27.4844C5.92167 22.2047 9.20132 17.4131 13.3267 13.3831C17.4522 9.35305 22.3425 6.16356 27.7187 3.99672C33.0948 1.82987 38.8514 0.728107 44.6598 0.754324C56.3903 0.80727 67.6197 5.45152 75.8775 13.6654C84.1353 21.8793 88.7452 32.9899 88.693 44.5532C88.6408 56.1164 83.9308 67.185 75.5992 75.324C67.2675 83.463 55.9967 88.0057 44.2662 87.9527Z" fill="#A75300"/>
</svg>
