<svg width="85" height="89" viewBox="0 0 85 89" fill="none" xmlns="http://www.w3.org/2000/svg">
<path d="M84.5938 58.9679C84.5938 59.9336 84.2101 60.8598 83.5272 61.5427C82.8444 62.2256 81.9182 62.6092 80.9524 62.6092H70.0285V69.8918H77.3111C78.2769 69.8918 79.2031 70.2754 79.8859 70.9583C80.5688 71.6412 80.9524 72.5674 80.9524 73.5331C80.9524 74.4988 80.5688 75.425 79.8859 76.1079C79.2031 76.7908 78.2769 77.1744 77.3111 77.1744H70.0285V84.457C70.0285 85.4228 69.6449 86.3489 68.962 87.0318C68.2791 87.7147 67.353 88.0983 66.3872 88.0983C65.4215 88.0983 64.4953 87.7147 63.8124 87.0318C63.1296 86.3489 62.7459 85.4228 62.7459 84.457V58.9679C62.7459 58.0022 63.1296 57.076 63.8124 56.3931C64.4953 55.7102 65.4215 55.3266 66.3872 55.3266H80.9524C81.9182 55.3266 82.8444 55.7102 83.5272 56.3931C84.2101 57.076 84.5938 58.0022 84.5938 58.9679ZM24.5122 68.0712C24.5122 71.4512 23.1695 74.6929 20.7794 77.0829C18.3894 79.473 15.1477 80.8157 11.7677 80.8157H8.12636V84.457C8.12636 85.4228 7.74272 86.3489 7.05984 87.0318C6.37697 87.7147 5.45079 88.0983 4.48505 88.0983C3.51932 88.0983 2.59314 87.7147 1.91026 87.0318C1.22739 86.3489 0.84375 85.4228 0.84375 84.457V58.9679C0.84375 58.0022 1.22739 57.076 1.91026 56.3931C2.59314 55.7102 3.51932 55.3266 4.48505 55.3266H11.7677C15.1477 55.3266 18.3894 56.6693 20.7794 59.0594C23.1695 61.4495 24.5122 64.6911 24.5122 68.0712ZM17.2296 68.0712C17.2296 66.6226 16.6542 65.2333 15.6298 64.209C14.6055 63.1847 13.2163 62.6092 11.7677 62.6092H8.12636V73.5331H11.7677C13.2163 73.5331 14.6055 72.9577 15.6298 71.9333C16.6542 70.909 17.2296 69.5198 17.2296 68.0712ZM57.284 71.7125C57.284 76.0583 55.5576 80.2261 52.4847 83.299C49.4117 86.372 45.2439 88.0983 40.8981 88.0983H33.6155C32.6498 88.0983 31.7236 87.7147 31.0407 87.0318C30.3578 86.3489 29.9742 85.4228 29.9742 84.457V58.9679C29.9742 58.0022 30.3578 57.076 31.0407 56.3931C31.7236 55.7102 32.6498 55.3266 33.6155 55.3266H40.8981C45.2439 55.3266 49.4117 57.053 52.4847 60.1259C55.5576 63.1989 57.284 67.3667 57.284 71.7125ZM50.0014 71.7125C50.0014 69.2981 49.0423 66.9827 47.3351 65.2755C45.6279 63.5683 43.3124 62.6092 40.8981 62.6092H37.2568V80.8157H40.8981C43.3124 80.8157 45.6279 79.8566 47.3351 78.1494C49.0423 76.4422 50.0014 74.1268 50.0014 71.7125ZM0.84375 40.7614V7.98964C0.84375 6.05817 1.61102 4.20581 2.97678 2.84006C4.34253 1.4743 6.19489 0.707032 8.12636 0.707032H51.822C52.3003 0.706656 52.774 0.800525 53.2161 0.983275C53.6581 1.16602 54.0598 1.43408 54.3982 1.77211L79.8874 27.2612C80.2254 27.5997 80.4935 28.0014 80.6762 28.4434C80.859 28.8854 80.9528 29.3591 80.9524 29.8375V40.7614C80.9524 41.7271 80.5688 42.6533 79.8859 43.3362C79.2031 44.019 78.2769 44.4027 77.3111 44.4027C76.3454 44.4027 75.4192 44.019 74.7363 43.3362C74.0535 42.6533 73.6698 41.7271 73.6698 40.7614V33.4788H51.822C50.8563 33.4788 49.9301 33.0951 49.2472 32.4123C48.5643 31.7294 48.1807 30.8032 48.1807 29.8375V7.98964H8.12636V40.7614C8.12636 41.7271 7.74272 42.6533 7.05984 43.3362C6.37697 44.019 5.45079 44.4027 4.48505 44.4027C3.51932 44.4027 2.59314 44.019 1.91026 43.3362C1.22739 42.6533 0.84375 41.7271 0.84375 40.7614ZM55.4633 26.1962H68.5219L55.4633 13.1375V26.1962Z" fill="#A75300"/>
</svg>
