<svg width="96" height="101" viewBox="0 0 96 101" fill="none" xmlns="http://www.w3.org/2000/svg">
<path d="M47.8144 65.0013C55.7224 65.0013 62.1331 58.5906 62.1331 50.6825C62.1331 42.7745 55.7224 36.3638 47.8144 36.3638C39.9063 36.3638 33.4956 42.7745 33.4956 50.6825C33.4956 58.5906 39.9063 65.0013 47.8144 65.0013Z" stroke="#A75300" stroke-width="5"/>
<path d="M56.2323 3.67873C54.4807 2.95325 52.2565 2.95325 47.8081 2.95325C43.3597 2.95325 41.1356 2.95325 39.3839 3.67873C38.2249 4.15847 37.1719 4.86192 36.285 5.74886C35.398 6.6358 34.6946 7.68885 34.2148 8.84781C33.7757 9.91217 33.5991 11.1579 33.5323 12.9668C33.5026 14.2746 33.1409 15.5533 32.4814 16.6829C31.8218 17.8125 30.8859 18.7559 29.7617 19.4246C28.6205 20.0644 27.3353 20.4035 26.027 20.4102C24.7187 20.4169 23.4302 20.0909 22.2825 19.4628C20.6788 18.6132 19.519 18.1455 18.3687 17.9927C15.8597 17.6628 13.3223 18.3426 11.3143 19.8828C9.81564 21.0426 8.69877 22.9661 6.47459 26.8179C4.25041 30.6696 3.13355 32.5931 2.89013 34.4784C2.72611 35.7215 2.80861 36.9848 3.13291 38.196C3.45722 39.4072 4.01697 40.5427 4.7802 41.5376C5.4866 42.454 6.47459 43.2224 8.0067 44.1865C10.2643 45.6041 11.7153 48.0192 11.7153 50.6825C11.7153 53.3458 10.2643 55.7609 8.0067 57.1737C6.47459 58.1426 5.48182 58.911 4.7802 59.8274C4.01697 60.8222 3.45722 61.9577 3.13291 63.1689C2.80861 64.3802 2.72611 65.6434 2.89013 66.8866C3.13832 68.7671 4.25041 70.6953 6.46982 74.5471C8.69878 78.3988 9.81087 80.3223 11.3143 81.4821C12.3092 82.2454 13.4447 82.8051 14.6559 83.1294C15.8671 83.4538 17.1304 83.5363 18.3735 83.3722C19.519 83.2195 20.6788 82.7517 22.2825 81.9022C23.4302 81.2741 24.7187 80.9481 26.027 80.9547C27.3353 80.9614 28.6205 81.3006 29.7617 81.9403C32.067 83.2768 33.4368 85.7348 33.5323 88.3981C33.5991 90.2118 33.7709 91.4528 34.2148 92.5171C34.6946 93.6761 35.398 94.7291 36.285 95.6161C37.1719 96.503 38.2249 97.2065 39.3839 97.6862C41.1356 98.4117 43.3597 98.4117 47.8081 98.4117C52.2565 98.4117 54.4807 98.4117 56.2323 97.6862C57.3913 97.2065 58.4443 96.503 59.3313 95.6161C60.2182 94.7291 60.9216 93.6761 61.4014 92.5171C61.8405 91.4528 62.0171 90.2118 62.0839 88.3981C62.1794 85.7348 63.5492 83.272 65.8545 81.9403C66.9957 81.3006 68.2809 80.9614 69.5892 80.9547C70.8975 80.9481 72.186 81.2741 73.3337 81.9022C74.9374 82.7517 76.0972 83.2195 77.2427 83.3722C78.4858 83.5363 79.7491 83.4538 80.9603 83.1294C82.1716 82.8051 83.307 82.2454 84.3019 81.4821C85.8053 80.3271 86.9174 78.3988 89.1416 74.5471C91.3658 70.6953 92.4827 68.7719 92.7261 66.8866C92.8901 65.6434 92.8076 64.3802 92.4833 63.1689C92.159 61.9577 91.5992 60.8222 90.836 59.8274C90.1296 58.911 89.1416 58.1426 87.6095 57.1784C86.4914 56.4988 85.5644 55.5461 84.9157 54.4098C84.2669 53.2734 83.9178 51.9908 83.9009 50.6825C83.9009 48.0192 85.3519 45.6041 87.6095 44.1913C89.1416 43.2224 90.1344 42.454 90.836 41.5376C91.5992 40.5427 92.159 39.4072 92.4833 38.196C92.8076 36.9848 92.8901 35.7215 92.7261 34.4784C92.4779 32.5979 91.3658 30.6696 89.1464 26.8179C86.9174 22.9661 85.8053 21.0426 84.3019 19.8828C83.307 19.1196 82.1716 18.5598 80.9603 18.2355C79.7491 17.9112 78.4858 17.8287 77.2427 17.9927C76.0972 18.1455 74.9374 18.6132 73.3289 19.4628C72.1818 20.09 70.8942 20.4156 69.5868 20.4089C68.2794 20.4022 66.9952 20.0635 65.8545 19.4246C64.7303 18.7559 63.7944 17.8125 63.1349 16.6829C62.4753 15.5533 62.1137 14.2746 62.0839 12.9668C62.0171 11.1531 61.8453 9.91217 61.4014 8.84781C60.9216 7.68885 60.2182 6.6358 59.3313 5.74886C58.4443 4.86192 57.3913 4.15847 56.2323 3.67873Z" stroke="#A75300" stroke-width="5"/>
</svg>
