<svg width="103" height="87" viewBox="0 0 103 87" fill="none" xmlns="http://www.w3.org/2000/svg">
<path d="M68.9399 32.6775L45.4015 17.0411C44.8105 16.6483 44.1236 16.4227 43.414 16.3884C42.7044 16.3541 41.9988 16.5125 41.3725 16.8466C40.7462 17.1807 40.2227 17.678 39.8579 18.2854C39.4931 18.8929 39.3006 19.5876 39.3011 20.2955V51.5682C39.3006 52.2761 39.4931 52.9708 39.8579 53.5782C40.2227 54.1856 40.7462 54.6829 41.3725 55.017C41.9988 55.3511 42.7044 55.5095 43.414 55.4752C44.1236 55.441 44.8105 55.2154 45.4015 54.8225L68.9399 39.1861C69.478 38.8293 69.9193 38.3455 70.2246 37.7778C70.5298 37.21 70.6895 36.5759 70.6895 35.9318C70.6895 35.2877 70.5298 34.6536 70.2246 34.0859C69.9193 33.5181 69.478 33.0343 68.9399 32.6775ZM47.1472 44.2631V27.625L59.6913 35.9318L47.1472 44.2631ZM94.2242 0.75H7.91647C5.83554 0.75 3.83984 1.5737 2.3684 3.03989C0.896958 4.50609 0.0703125 6.49467 0.0703125 8.56818V63.2955C0.0703125 65.369 0.896958 67.3576 2.3684 68.8237C3.83984 70.2899 5.83554 71.1136 7.91647 71.1136H94.2242C96.3051 71.1136 98.3008 70.2899 99.7722 68.8237C101.244 67.3576 102.07 65.369 102.07 63.2955V8.56818C102.07 6.49467 101.244 4.50609 99.7722 3.03989C98.3008 1.5737 96.3051 0.75 94.2242 0.75ZM94.2242 63.2955H7.91647V8.56818H94.2242V63.2955ZM102.07 82.8409C102.07 83.8777 101.657 84.872 100.921 85.6051C100.186 86.3382 99.1877 86.75 98.1472 86.75H3.99339C2.95292 86.75 1.95507 86.3382 1.21935 85.6051C0.483635 84.872 0.0703125 83.8777 0.0703125 82.8409C0.0703125 81.8042 0.483635 80.8099 1.21935 80.0768C1.95507 79.3437 2.95292 78.9318 3.99339 78.9318H98.1472C99.1877 78.9318 100.186 79.3437 100.921 80.0768C101.657 80.8099 102.07 81.8042 102.07 82.8409Z" fill="#A75300"/>
</svg>
