<svg width="63" height="63" viewBox="0 0 63 63" fill="none" xmlns="http://www.w3.org/2000/svg">
<g clip-path="url(#clip0_825_54671)">
<path d="M31.5 5C16.8888 5 5 16.8889 5 31.4991C5 46.1102 16.8878 58 31.5 58C46.1122 58 58 46.1102 58 31.4991C58 16.8889 46.1122 5 31.5 5ZM31.5 53.0794C19.597 53.0794 9.91527 43.3993 9.91527 31.4991C9.91527 19.596 19.597 9.91681 31.5 9.91681C43.403 9.91681 53.0838 19.5969 53.0838 31.4991C53.0838 43.3993 43.402 53.0794 31.5 53.0794Z" fill="#00BD73"/>
<path d="M32.1301 14.0885C31.8001 13.7517 31.2077 13.7517 30.8776 14.0885C30.2266 14.7519 24.5195 20.6674 24.5195 24.3212C24.5195 27.975 30.2266 33.8905 30.8776 34.5539C31.0432 34.7217 31.2685 34.8163 31.5039 34.8163C31.7393 34.8163 31.9646 34.7217 32.1301 34.5539C32.7811 33.8905 38.4882 27.975 38.4882 24.3212C38.4882 20.6674 32.7811 14.7519 32.1301 14.0885Z" fill="#00BD73"/>
<path d="M27.135 34.5239C24.5512 31.9389 16.3301 31.7903 15.4021 31.7812C15.1914 31.7812 14.9403 31.8725 14.7736 32.0392C14.6069 32.2036 14.5145 32.4323 14.5156 32.6688C14.5246 33.5969 14.6722 41.8168 17.256 44.3995C19.8398 46.9833 28.0586 47.1308 28.9878 47.1398C28.9901 47.1398 28.9923 47.1398 28.9957 47.1398C29.0013 47.1398 29.0081 47.1398 29.0126 47.1398C29.5025 47.1489 29.908 46.7524 29.908 46.2647C29.908 46.1723 29.8945 46.0879 29.8697 46.0056C29.8382 44.3353 29.5589 36.9455 27.135 34.5239Z" fill="#00BD73"/>
<path d="M48.2257 32.0392C48.0601 31.8736 47.8225 31.779 47.5972 31.7813C46.668 31.7903 38.4469 31.939 35.8654 34.5239C33.2816 37.1043 33.1329 45.3254 33.125 46.2535C33.1228 46.4911 33.2151 46.7164 33.3818 46.8842C33.5463 47.0487 33.7704 47.141 34.0036 47.141C34.0058 47.141 34.0081 47.141 34.0103 47.141C34.9407 47.132 43.1595 46.9845 45.7422 44.4007C48.3271 41.818 48.4758 33.5981 48.4836 32.67C48.4848 32.4301 48.3924 32.2037 48.2257 32.0392Z" fill="#00BD73"/>
</g>
<defs>
<clipPath id="clip0_825_54671">
<rect width="63" height="63" fill="white"/>
</clipPath>
</defs>
</svg>
