<svg width="63" height="63" viewBox="0 0 63 63" fill="none" xmlns="http://www.w3.org/2000/svg">
<path d="M46.6864 2.96094L43.2339 13.7161L46.7122 14.4471L46.331 16.3361L39.9018 22.2231L33.5648 16.9167L30.6851 16.413C31.6961 14.6498 32.4918 12.3808 32.7035 10.3106C33.9365 10.0301 37.0003 9.61236 38.3752 9.07292C37.7604 7.80738 34.6596 6.99269 32.3829 7.06529C32.1696 4.51662 31.2902 3.49029 28.1802 3.63204C25.0701 3.77366 24.1231 4.44427 24.4691 8.11377C22.1477 8.62158 19.7814 9.66613 19.5792 11.4464C20.5476 11.4086 23.6348 11.09 24.5902 11.0759C24.6714 12.8108 25.1316 14.5024 25.817 15.5517L21.4909 14.798L13.043 24.1073L22.5599 30.9825L22.7599 33.0551L18.5529 59.6025H23.2748L27.9893 38.7768L33.88 59.6025H38.4905L38.052 57.5836L40.1554 59.6025L47.9149 19.9159C48.5314 19.3573 49.055 18.8724 49.4031 18.524C49.4249 17.2275 49.0909 16.1933 48.7763 15.5094L48.8958 14.9062L52.2473 15.6105L53.2863 4.15277L50.4752 12.6161L49.1404 12.3385L49.9568 3.39812L47.3029 11.956L45.9227 11.669L46.6864 2.96094ZM49.9568 3.39812L49.957 3.39689H49.9568V3.39812ZM22.4984 18.8738L22.5407 26.7605L18.6647 23.8382L22.4984 18.8738ZM33.3303 21.4888L39.5903 27.1412C39.5903 27.1412 42.4195 24.7472 45.1121 22.4001L38.0445 57.5376L32.7766 33.2323L33.3303 21.4887V21.4888Z" fill="#00BD73"/>
</svg>
