<svg width="35" height="34" viewBox="0 0 35 34" fill="none" xmlns="http://www.w3.org/2000/svg">
<path d="M30.6504 12.1616H29.8341V8.22202C29.8341 8.19728 29.8301 8.17272 29.8269 8.14761C29.8256 7.99134 29.7758 7.83755 29.6687 7.71601L23.1133 0.228014C23.1114 0.225906 23.1094 0.225285 23.1081 0.223363C23.0691 0.179521 23.0235 0.143245 22.9753 0.111992C22.961 0.102256 22.9467 0.0942565 22.9317 0.0860091C22.89 0.0633751 22.8457 0.0443378 22.8001 0.0306334C22.7878 0.0274088 22.7767 0.0223239 22.7644 0.0189753C22.7148 0.00731728 22.6634 0 22.6114 0H6.50065C5.76495 0 5.16735 0.598343 5.16735 1.33336V12.1613H4.3511C3.29865 12.1613 2.44531 13.0143 2.44531 14.0669V23.9768C2.44531 25.0289 3.29865 25.8828 4.3511 25.8828H5.16735V32.6667C5.16735 33.4018 5.76495 34 6.50065 34H28.5007C29.2358 34 29.8341 33.4018 29.8341 32.6667V25.8828H30.6504C31.7025 25.8828 32.5559 25.0293 32.5559 23.9772V14.0672C32.556 13.0143 31.7025 12.1616 30.6504 12.1616ZM6.50065 1.33336H21.9447V8.15492C21.9447 8.52327 22.2434 8.8216 22.6114 8.8216H28.5007V12.1616H6.50065V1.33336ZM16.5378 19.4206C14.8834 18.8444 13.8054 17.929 13.8054 16.4819C13.8054 14.7826 15.2231 13.4826 17.5715 13.4826C18.6944 13.4826 19.5216 13.7189 20.112 13.9853L19.6103 15.8022C19.2116 15.6096 18.5027 15.329 17.5274 15.329C16.5528 15.329 16.0801 15.7723 16.0801 16.2892C16.0801 16.9246 16.6411 17.205 17.9268 17.6926C19.6843 18.3424 20.5115 19.2577 20.5115 20.6613C20.5115 22.33 19.2266 23.7486 16.4937 23.7486C15.3565 23.7486 14.2334 23.4524 13.6723 23.1428L14.13 21.2814C14.736 21.5924 15.6663 21.9019 16.6268 21.9019C17.6606 21.9019 18.2073 21.4736 18.2073 20.8232C18.207 20.2025 17.7341 19.8483 16.5378 19.4206ZM4.8088 18.7702C4.8088 15.3732 7.23182 13.4826 10.2443 13.4826C11.4115 13.4826 12.2977 13.7189 12.6968 13.9259L12.2384 15.7128C11.7808 15.5216 11.145 15.3445 10.3476 15.3445C8.56034 15.3445 7.17229 16.422 7.17229 18.6372C7.17229 20.6314 8.35366 21.8866 10.3631 21.8866C11.042 21.8866 11.7954 21.7391 12.2384 21.5618L12.5784 23.3196C12.1647 23.5267 11.2344 23.7486 10.0231 23.7486C6.58145 23.7487 4.8088 21.6061 4.8088 18.7702ZM28.5007 32.3053H6.50065V25.8828H28.5007V32.3053ZM27.0115 23.6003H24.3823L21.1918 13.6453H23.659L24.8699 17.8555C25.2096 19.0365 25.5197 20.1738 25.7566 21.4147H25.8005C26.0515 20.218 26.3614 19.0365 26.7013 17.8991L27.9717 13.6453H30.3653L27.0115 23.6003Z" fill="#00BD73"/>
<rect x="4.5" y="13" width="26" height="12" fill="#00BD73"/>
<path d="M13.0758 17.336C13.0758 17.9053 12.9451 18.428 12.6838 18.904C12.4224 19.3707 12.0211 19.7487 11.4798 20.038C10.9384 20.3273 10.2664 20.472 9.46377 20.472H7.97977V24H5.58577V14.172H9.46377C10.2478 14.172 10.9104 14.3073 11.4518 14.578C11.9931 14.8487 12.3991 15.222 12.6698 15.698C12.9404 16.174 13.0758 16.72 13.0758 17.336ZM9.28177 18.568C9.73911 18.568 10.0798 18.4607 10.3038 18.246C10.5278 18.0313 10.6398 17.728 10.6398 17.336C10.6398 16.944 10.5278 16.6407 10.3038 16.426C10.0798 16.2113 9.73911 16.104 9.28177 16.104H7.97977V18.568H9.28177ZM18.0041 14.172C19.0401 14.172 19.9454 14.3773 20.7201 14.788C21.4948 15.1987 22.0921 15.7773 22.5121 16.524C22.9414 17.2613 23.1561 18.1153 23.1561 19.086C23.1561 20.0473 22.9414 20.9013 22.5121 21.648C22.0921 22.3947 21.4901 22.9733 20.7061 23.384C19.9314 23.7947 19.0308 24 18.0041 24H14.3221V14.172H18.0041ZM17.8501 21.928C18.7554 21.928 19.4601 21.6807 19.9641 21.186C20.4681 20.6913 20.7201 19.9913 20.7201 19.086C20.7201 18.1807 20.4681 17.476 19.9641 16.972C19.4601 16.468 18.7554 16.216 17.8501 16.216H16.7161V21.928H17.8501ZM30.892 14.172V16.09H26.888V18.162H29.884V20.024H26.888V24H24.494V14.172H30.892Z" fill="white"/>
</svg>
