<svg width="63" height="63" viewBox="0 0 63 63" fill="none" xmlns="http://www.w3.org/2000/svg">
<path d="M31.5 44.625L34.125 39.375V25.8772C38.6426 24.7039 42 20.6272 42 15.75C42 9.95925 37.2908 5.25 31.5 5.25C25.7092 5.25 21 9.95925 21 15.75C21 20.6272 24.3574 24.7039 28.875 25.8772V39.375L31.5 44.625Z" fill="#00BD73"/>
<path d="M42.7009 27.7292L41.3018 32.7902C48.1031 34.6697 52.5 38.2843 52.5 42.0013C52.5 46.9678 43.8769 52.5013 31.5 52.5013C19.1231 52.5013 10.5 46.9678 10.5 42.0013C10.5 38.2843 14.8969 34.6697 21.7009 32.7876L20.3018 27.7266C11.0171 30.2938 5.25 35.7617 5.25 42.0013C5.25 50.8318 16.7816 57.7513 31.5 57.7513C46.2184 57.7513 57.75 50.8318 57.75 42.0013C57.75 35.7617 51.9829 30.2938 42.7009 27.7292Z" fill="#00BD73"/>
</svg>
