<svg width="58" height="104" viewBox="0 0 58 104" fill="none" xmlns="http://www.w3.org/2000/svg">
<path d="M22.1729 57.0793C11.3353 60.9801 5.7119 72.9278 9.61264 83.7654C13.5134 94.603 25.4611 100.226 36.2987 96.3256C47.1363 92.4249 52.7597 80.4771 48.859 69.6395C44.9582 58.802 33.0104 53.1786 22.1729 57.0793Z" fill="#34B0F5" fill-opacity="0.44"/>
<path d="M27.0836 70.7486C23.7913 71.9336 22.083 75.5631 23.268 78.8554C24.453 82.1477 28.0825 83.856 31.3748 82.671C34.667 81.486 36.3753 77.8565 35.1903 74.5642C34.0054 71.272 30.3758 69.5637 27.0836 70.7486Z" fill="white"/>
<path fill-rule="evenodd" clip-rule="evenodd" d="M29.0016 0.829102C13.0138 0.829102 0 14.228 0 30.6862C0 47.9859 26.1225 72.3923 27.2351 73.4238C27.7387 73.888 28.3741 74.1214 29.0016 74.1214C29.629 74.1214 30.2644 73.888 30.768 73.4238C31.8806 72.3923 58.0031 47.9859 58.0031 30.6862C58.0031 14.228 44.9893 0.829102 29.0016 0.829102ZM28.9937 19.1495C34.9888 19.1495 39.8692 24.0824 39.8692 30.1448C39.8692 36.2071 34.9888 41.1372 28.9937 41.1372C22.9985 41.1372 18.1181 36.2071 18.1181 30.1448C18.1181 24.0824 22.9985 19.1495 28.9937 19.1495Z" fill="#566DE3"/>
<ellipse cx="28.9908" cy="29.8004" rx="12.0142" ry="12.0142" fill="white"/>
</svg>
