<svg width="80" height="105" viewBox="0 0 80 105" fill="none" xmlns="http://www.w3.org/2000/svg">
<path d="M33.1729 58.0793C22.3353 61.9801 16.7119 73.9278 20.6126 84.7654C24.5134 95.603 36.4611 101.226 47.2987 97.3256C58.1363 93.4249 63.7597 81.4771 59.859 70.6395C55.9582 59.802 44.0104 54.1786 33.1729 58.0793Z" fill="#34B0F5" fill-opacity="0.44"/>
<path d="M38.0836 71.7486C34.7913 72.9336 33.083 76.5631 34.268 79.8554C35.453 83.1477 39.0825 84.856 42.3748 83.671C45.667 82.486 47.3753 78.8565 46.1903 75.5642C45.0054 72.272 41.3758 70.5637 38.0836 71.7486Z" fill="white"/>
<g filter="url(#filter0_d_6497_62254)">
<path fill-rule="evenodd" clip-rule="evenodd" d="M40.0016 1.8291C24.0138 1.8291 11 15.228 11 31.6862C11 48.9859 37.1225 73.3923 38.2351 74.4238C38.7387 74.888 39.3741 75.1214 40.0016 75.1214C40.629 75.1214 41.2644 74.888 41.768 74.4238C42.8806 73.3923 69.0031 48.9859 69.0031 31.6862C69.0031 15.228 55.9893 1.8291 40.0016 1.8291ZM39.9937 20.1495C45.9888 20.1495 50.8692 25.0824 50.8692 31.1448C50.8692 37.2071 45.9888 42.1372 39.9937 42.1372C33.9985 42.1372 29.1181 37.2071 29.1181 31.1448C29.1181 25.0824 33.9985 20.1495 39.9937 20.1495Z" fill="#566DE3"/>
<path d="M38.2351 74.4238L37.5552 75.1571L37.5573 75.1591L38.2351 74.4238ZM41.768 74.4238L42.4458 75.1591L42.4479 75.1571L41.768 74.4238ZM40.0016 1.8291V0.829102C23.4343 0.829102 10 14.7034 10 31.6862H11H12C12 15.7527 24.5933 2.8291 40.0016 2.8291V1.8291ZM11 31.6862H10C10 36.243 11.7132 41.1797 14.212 45.979C16.7184 50.7927 20.06 55.5528 23.4174 59.7777C30.1328 68.2282 36.9835 74.6271 37.5552 75.1571L38.2351 74.4238L38.915 73.6905C38.3741 73.189 31.6072 66.8689 24.9832 58.5334C21.671 54.3654 18.4124 49.7157 15.986 45.0554C13.5521 40.3807 12 35.7793 12 31.6862H11ZM38.2351 74.4238L37.5573 75.1591C38.2482 75.7959 39.1266 76.1214 40.0016 76.1214V75.1214V74.1214C39.6216 74.1214 39.2291 73.98 38.9129 73.6885L38.2351 74.4238ZM40.0016 75.1214V76.1214C40.8765 76.1214 41.7549 75.7959 42.4458 75.1591L41.768 74.4238L41.0902 73.6885C40.774 73.98 40.3815 74.1214 40.0016 74.1214V75.1214ZM41.768 74.4238L42.4479 75.1571C43.0196 74.6271 49.8703 68.2282 56.5857 59.7777C59.9431 55.5528 63.2847 50.7927 65.7911 45.979C68.2899 41.1797 70.0031 36.243 70.0031 31.6862H69.0031H68.0031C68.0031 35.7793 66.451 40.3807 64.0171 45.0554C61.5907 49.7157 58.3321 54.3654 55.0199 58.5334C48.3959 66.8689 41.629 73.189 41.0881 73.6905L41.768 74.4238ZM69.0031 31.6862H70.0031C70.0031 14.7034 56.5688 0.829102 40.0016 0.829102V1.8291V2.8291C55.4098 2.8291 68.0031 15.7527 68.0031 31.6862H69.0031ZM39.9937 20.1495V21.1495C45.4263 21.1495 49.8692 25.6244 49.8692 31.1448H50.8692H51.8692C51.8692 24.5404 46.5513 19.1495 39.9937 19.1495V20.1495ZM50.8692 31.1448H49.8692C49.8692 36.6648 45.4266 41.1372 39.9937 41.1372V42.1372V43.1372C46.551 43.1372 51.8692 37.7494 51.8692 31.1448H50.8692ZM39.9937 42.1372V41.1372C34.5607 41.1372 30.1181 36.6648 30.1181 31.1448H29.1181H28.1181C28.1181 37.7494 33.4363 43.1372 39.9937 43.1372V42.1372ZM29.1181 31.1448H30.1181C30.1181 25.6244 34.561 21.1495 39.9937 21.1495V20.1495V19.1495C33.436 19.1495 28.1181 24.5404 28.1181 31.1448H29.1181Z" fill="white"/>
</g>
<circle cx="40" cy="31" r="20" fill="white"/>
<path d="M29 33L36 40C42.0531 33.9469 45.4469 30.5531 51.5 24.5" stroke="#0EBF67" stroke-width="4" stroke-linecap="square"/>
<defs>
<filter id="filter0_d_6497_62254" x="0" y="0.829102" width="80" height="95.292" filterUnits="userSpaceOnUse" color-interpolation-filters="sRGB">
<feFlood flood-opacity="0" result="BackgroundImageFix"/>
<feColorMatrix in="SourceAlpha" type="matrix" values="0 0 0 0 0 0 0 0 0 0 0 0 0 0 0 0 0 0 127 0" result="hardAlpha"/>
<feOffset dy="10"/>
<feGaussianBlur stdDeviation="5"/>
<feComposite in2="hardAlpha" operator="out"/>
<feColorMatrix type="matrix" values="0 0 0 0 0 0 0 0 0 0 0 0 0 0 0 0 0 0 0.4 0"/>
<feBlend mode="normal" in2="BackgroundImageFix" result="effect1_dropShadow_6497_62254"/>
<feBlend mode="normal" in="SourceGraphic" in2="effect1_dropShadow_6497_62254" result="shape"/>
</filter>
</defs>
</svg>
