<svg width="30" height="34" viewBox="0 0 30 34" fill="none" xmlns="http://www.w3.org/2000/svg">
<path d="M29.3141 12.6106H27.5445V6.1985C27.5445 6.01256 27.4687 5.82929 27.3367 5.69911L21.7742 0.197891C21.6474 0.0730458 21.4736 0.0013294 21.2959 0H4.68681C3.45695 0 2.45581 1.01735 2.45581 2.26713V12.6106H0.686163C0.307147 12.6106 0 12.9227 0 13.3079V23.0921C0 23.4773 0.307137 23.7894 0.686163 23.7894H2.45581V31.7342C2.45581 32.9827 3.45695 34 4.68681 34H25.3132C26.5431 34 27.5442 32.9827 27.5442 31.7329V23.7881H29.3138C29.6929 23.7881 30 23.476 30 23.0908L29.9987 13.3079C29.9987 12.9228 29.6918 12.6106 29.3141 12.6106ZM3.82689 2.26707C3.82689 1.78495 4.21243 1.39316 4.68687 1.39316H20.611V4.44787C20.611 5.78928 21.6853 6.88367 23.0054 6.88632L26.1735 6.89429V12.6104H3.82699L3.82689 2.26707ZM26.1734 31.7329C26.1734 32.215 25.7878 32.6068 25.3134 32.6068H4.68701C4.21257 32.6068 3.82703 32.215 3.82703 31.7329L3.82833 23.7881H26.1735L26.1734 31.7329ZM28.6278 22.3948H1.37236V14.0036H28.6278V22.3948Z" fill="black"/>
<path d="M9.2926 15.2422H7.29554C6.91652 15.2422 6.60938 15.5543 6.60938 15.9395V20.847C6.60938 21.2322 6.91651 21.5443 7.29554 21.5443C7.67456 21.5443 7.9817 21.2322 7.9817 20.847V19.4844H9.2939C10.444 19.4844 11.3811 18.5334 11.3811 17.3634C11.3798 16.1933 10.444 15.2422 9.2926 15.2422ZM9.2926 18.0897H7.9804V16.6354H9.2926C9.68731 16.6354 10.0075 16.9621 10.0075 17.3619C10.0088 17.7643 9.6873 18.0897 9.2926 18.0897Z" fill="black"/>
<path d="M22.7082 15.2422H19.608C19.229 15.2422 18.9219 15.5543 18.9219 15.9395V20.847C18.9219 21.2322 19.229 21.5443 19.608 21.5443C19.9871 21.5443 20.2942 21.2322 20.2942 20.847V18.9691H22.3514C22.7304 18.9691 23.0375 18.657 23.0375 18.2718C23.0375 17.8866 22.7304 17.5745 22.3514 17.5745H20.2942V16.6355H22.7082C23.0872 16.6355 23.3943 16.3234 23.3943 15.9383C23.3943 15.5544 23.0872 15.2422 22.7082 15.2422Z" fill="black"/>
<path d="M14.5187 15.2422H13.3268C12.9478 15.2422 12.6406 15.5543 12.6406 15.9395V20.847C12.6406 21.2322 12.9478 21.5443 13.3268 21.5443H14.5187C16.2283 21.5443 17.6189 20.1312 17.6189 18.394C17.6202 16.6555 16.2283 15.2422 14.5187 15.2422ZM14.5187 20.1498H14.0116V16.6355H14.5187C15.4715 16.6355 16.2479 17.4231 16.2479 18.3926C16.2479 19.3622 15.4728 20.1498 14.5187 20.1498Z" fill="black"/>
</svg>
