<svg width="47" height="47" viewBox="0 0 47 47" fill="none" xmlns="http://www.w3.org/2000/svg">
<path d="M11.1009 10.2431L12.0577 5.4572C12.2526 4.48205 12.7795 3.6046 13.5486 2.97425C14.3177 2.3439 15.2816 1.99961 16.276 2H30.724C31.7184 1.99961 32.6823 2.3439 33.4514 2.97425C34.2205 3.6046 34.7474 4.48205 34.9423 5.4572L35.8991 10.2431C36.0492 10.993 36.4092 11.6849 36.9371 12.2383C37.465 12.7917 38.1391 13.1838 38.8811 13.3692C40.629 13.8065 42.1807 14.8155 43.2894 16.2358C44.3981 17.6561 45.0002 19.4063 45 21.2081V36.4C45 38.6809 44.0939 40.8683 42.4811 42.4811C40.8683 44.0939 38.6809 45 36.4 45H10.6C8.31914 45 6.13169 44.0939 4.51888 42.4811C2.90607 40.8683 2 38.6809 2 36.4V21.2081C1.99984 19.4063 2.60195 17.6561 3.71063 16.2358C4.81932 14.8155 6.37095 13.8065 8.1189 13.3692C8.86089 13.1838 9.53502 12.7917 10.0629 12.2383C10.5908 11.6849 10.9508 10.993 11.1009 10.2431V10.2431Z" stroke="#787878" stroke-width="3" stroke-linecap="round" stroke-linejoin="round"/>
<path d="M23.5004 36.4031C28.25 36.4031 32.1004 32.5528 32.1004 27.8031C32.1004 23.0535 28.25 19.2031 23.5004 19.2031C18.7507 19.2031 14.9004 23.0535 14.9004 27.8031C14.9004 32.5528 18.7507 36.4031 23.5004 36.4031Z" stroke="#787878" stroke-width="3" stroke-linecap="round" stroke-linejoin="round"/>
<path d="M21.3496 10.6016H25.6496" stroke="#787878" stroke-width="3" stroke-linecap="round" stroke-linejoin="round"/>
</svg>
