<svg width="118" height="122" viewBox="0 0 118 122" fill="none" xmlns="http://www.w3.org/2000/svg">
<path d="M15.9732 0.000104707H83.4216C88.9812 0.000104707 94.034 2.27289 97.6957 5.93479C101.358 9.59646 103.63 14.6493 103.63 20.2089V82.0481V84.1774H101.501H15.9731H13.8438V82.0481V2.12933V0L15.9732 0.000104707ZM83.4216 4.25876H18.1025V79.9189H99.3718V20.209C99.3718 15.8249 97.5768 11.8378 94.6848 8.94592C91.7929 6.05392 87.8056 4.25876 83.4216 4.25876Z" fill="#0057BD"/>
<path d="M115.129 121.01H2.34417H0.214844V118.881V82.0414V79.9121H2.34417H115.129H117.259V82.0414V118.881V121.01H115.129ZM4.4735 116.752H113V84.1708H4.4735V116.752Z" fill="#0057BD"/>
<path d="M28.918 25.8984H88.6206V30.1571H28.918V25.8984Z" fill="#0057BD"/>
<path d="M28.918 40.8652H88.6206V45.1239H28.918V40.8652Z" fill="#0057BD"/>
<path d="M28.918 55.832H88.6206V60.0907H28.918V55.832Z" fill="#0057BD"/>
<path d="M39.8101 102.498L45.7942 104.309C45.3929 105.986 44.7599 107.386 43.8955 108.512C43.0311 109.639 41.9558 110.488 40.6745 111.059C39.3933 111.636 37.7623 111.919 35.7865 111.919C33.3835 111.919 31.4181 111.569 29.9002 110.874C28.3771 110.174 27.0599 108.945 25.9537 107.185C24.8526 105.425 24.2969 103.177 24.2969 100.434C24.2969 96.776 25.2693 93.9614 27.2143 92.001C29.1592 90.0355 31.9119 89.0527 35.4675 89.0527C38.2511 89.0527 40.4379 89.6136 42.0329 90.7404C43.628 91.8673 44.8114 93.5961 45.5831 95.927L39.5528 97.2698C39.3419 96.5958 39.1207 96.1018 38.8891 95.788C38.5084 95.2683 38.0401 94.867 37.4896 94.584C36.9339 94.301 36.3164 94.1621 35.6321 94.1621C34.0884 94.1621 32.8999 94.7846 32.0767 96.0299C31.454 96.956 31.1402 98.407 31.1402 100.388C31.1402 102.842 31.5158 104.52 32.2567 105.43C33.0028 106.341 34.0473 106.794 35.3902 106.794C36.6972 106.794 37.685 106.429 38.354 105.693C39.0229 104.962 39.5065 103.897 39.8101 102.498ZM47.9191 104.216L54.4178 103.81C54.5566 104.864 54.8448 105.667 55.277 106.223C55.9767 107.118 56.9852 107.561 58.2922 107.561C59.2646 107.561 60.0159 107.334 60.5459 106.876C61.0707 106.418 61.3331 105.888 61.3331 105.286C61.3331 104.715 61.0861 104.201 60.5818 103.748C60.0776 103.295 58.9147 102.868 57.083 102.467C54.0884 101.793 51.9531 100.902 50.6771 99.7859C49.3907 98.6694 48.7476 97.2493 48.7476 95.5205C48.7476 94.3833 49.0769 93.3079 49.7355 92.2994C50.3941 91.2909 51.382 90.4985 52.7044 89.9171C54.0267 89.3409 55.8379 89.0527 58.1378 89.0527C60.9626 89.0527 63.1185 89.5775 64.6004 90.6272C66.0822 91.6769 66.9621 93.3491 67.2451 95.6388L60.8083 96.0143C60.6384 95.0213 60.2782 94.2959 59.7277 93.8431C59.1824 93.3954 58.426 93.169 57.4638 93.169C56.6662 93.169 56.0694 93.3337 55.668 93.6732C55.2667 94.0077 55.066 94.4193 55.066 94.903C55.066 95.2528 55.2307 95.5668 55.56 95.8497C55.8842 96.143 56.6457 96.4105 57.8548 96.6627C60.8391 97.3059 62.9745 97.9593 64.2659 98.6179C65.5574 99.2765 66.499 100.089 67.0856 101.067C67.6721 102.04 67.9705 103.13 67.9705 104.34C67.9705 105.755 67.5744 107.061 66.7923 108.255C66.0102 109.454 64.9142 110.36 63.5044 110.977C62.0997 111.594 60.3245 111.903 58.1841 111.903C54.428 111.903 51.8244 111.183 50.3786 109.732C48.9276 108.286 48.1095 106.449 47.9191 104.216ZM69.221 89.4283H76.3628L81.3383 105.333L86.2367 89.4283H93.1726L84.9709 111.528H77.5719L69.221 89.4283Z" fill="#0057BD"/>
</svg>
