<svg width="43" height="43" viewBox="0 0 43 43" fill="none" xmlns="http://www.w3.org/2000/svg">
<g filter="url(#filter0_d_1468_190228)">
<circle cx="21.5" cy="17.5" r="17.5" fill="#DA3D3D"/>
</g>
<g clip-path="url(#clip0_1468_190228)">
<g clip-path="url(#clip1_1468_190228)">
<path d="M15.4647 9.65612C15.1446 9.65612 14.8376 9.78327 14.6113 10.0096C14.385 10.2359 14.2578 10.5429 14.2578 10.863V12.0699C14.2578 12.39 14.385 12.697 14.6113 12.9233C14.8376 13.1497 15.1446 13.2768 15.4647 13.2768H16.0682V24.1389C16.0682 24.7791 16.3225 25.393 16.7751 25.8457C17.2278 26.2984 17.8418 26.5527 18.482 26.5527H25.7233C26.3635 26.5527 26.9775 26.2984 27.4301 25.8457C27.8828 25.393 28.1371 24.7791 28.1371 24.1389V13.2768H28.7406C29.0607 13.2768 29.3676 13.1497 29.594 12.9233C29.8203 12.697 29.9475 12.39 29.9475 12.0699V10.863C29.9475 10.5429 29.8203 10.2359 29.594 10.0096C29.3676 9.78327 29.0607 9.65612 28.7406 9.65612H24.5164C24.5164 9.33603 24.3893 9.02905 24.1629 8.80271C23.9366 8.57637 23.6296 8.44922 23.3095 8.44922H20.8957C20.5757 8.44922 20.2687 8.57637 20.0423 8.80271C19.816 9.02905 19.6888 9.33603 19.6888 9.65612H15.4647ZM19.0854 14.4837C19.2454 14.4837 19.3989 14.5473 19.5121 14.6604C19.6253 14.7736 19.6888 14.9271 19.6888 15.0871V23.5354C19.6888 23.6955 19.6253 23.849 19.5121 23.9621C19.3989 24.0753 19.2454 24.1389 19.0854 24.1389C18.9254 24.1389 18.7719 24.0753 18.6587 23.9621C18.5455 23.849 18.482 23.6955 18.482 23.5354V15.0871C18.482 14.9271 18.5455 14.7736 18.6587 14.6604C18.7719 14.5473 18.9254 14.4837 19.0854 14.4837ZM22.1026 14.4837C22.2627 14.4837 22.4162 14.5473 22.5293 14.6604C22.6425 14.7736 22.7061 14.9271 22.7061 15.0871V23.5354C22.7061 23.6955 22.6425 23.849 22.5293 23.9621C22.4162 24.0753 22.2627 24.1389 22.1026 24.1389C21.9426 24.1389 21.7891 24.0753 21.6759 23.9621C21.5628 23.849 21.4992 23.6955 21.4992 23.5354V15.0871C21.4992 14.9271 21.5628 14.7736 21.6759 14.6604C21.7891 14.5473 21.9426 14.4837 22.1026 14.4837ZM25.7233 15.0871V23.5354C25.7233 23.6955 25.6598 23.849 25.5466 23.9621C25.4334 24.0753 25.2799 24.1389 25.1199 24.1389C24.9598 24.1389 24.8063 24.0753 24.6932 23.9621C24.58 23.849 24.5164 23.6955 24.5164 23.5354V15.0871C24.5164 14.9271 24.58 14.7736 24.6932 14.6604C24.8063 14.5473 24.9598 14.4837 25.1199 14.4837C25.2799 14.4837 25.4334 14.5473 25.5466 14.6604C25.6598 14.7736 25.7233 14.9271 25.7233 15.0871Z" fill="#F1F0F0"/>
</g>
</g>
<defs>
<filter id="filter0_d_1468_190228" x="0" y="0" width="43" height="43" filterUnits="userSpaceOnUse" color-interpolation-filters="sRGB">
<feFlood flood-opacity="0" result="BackgroundImageFix"/>
<feColorMatrix in="SourceAlpha" type="matrix" values="0 0 0 0 0 0 0 0 0 0 0 0 0 0 0 0 0 0 127 0" result="hardAlpha"/>
<feOffset dy="4"/>
<feGaussianBlur stdDeviation="2"/>
<feColorMatrix type="matrix" values="0 0 0 0 0 0 0 0 0 0 0 0 0 0 0 0 0 0 0.25 0"/>
<feBlend mode="normal" in2="BackgroundImageFix" result="effect1_dropShadow_1468_190228"/>
<feBlend mode="normal" in="SourceGraphic" in2="effect1_dropShadow_1468_190228" result="shape"/>
</filter>
<clipPath id="clip0_1468_190228">
<rect width="19.3103" height="19.3103" fill="white" transform="translate(12.4492 8.44922)"/>
</clipPath>
<clipPath id="clip1_1468_190228">
<rect width="19.3103" height="19.3103" fill="white" transform="translate(12.4492 8.44922)"/>
</clipPath>
</defs>
</svg>
