<svg width="89" height="90" viewBox="0 0 89 90" fill="none" xmlns="http://www.w3.org/2000/svg">
<path d="M37.6824 37.5292H51.6961C52.2693 37.5292 52.8175 37.2897 53.2204 36.8659C53.623 36.4425 53.848 35.8697 53.848 35.2739V20.5369C53.848 19.9412 53.623 19.3684 53.2204 18.9449C52.8175 18.5212 52.2693 18.2816 51.6961 18.2816H37.6824C37.1091 18.2816 36.561 18.5212 36.1581 18.9449C35.7554 19.3684 35.5304 19.9412 35.5304 20.5369V35.2739C35.5304 35.8697 35.7554 36.4425 36.1581 36.8659C36.561 37.2897 37.1091 37.5292 37.6824 37.5292ZM49.5441 22.7922V33.0186H39.8343V22.7922H49.5441Z" fill="#00BD73" stroke="#00BD73" stroke-width="0.3"/>
<path d="M21.1824 89.0901H68.2284C68.8016 89.0901 69.3497 88.8505 69.7527 88.4268C70.1553 88.0034 70.3803 87.4306 70.3803 86.8348V49.1502C70.3803 48.5544 70.1553 47.9816 69.7527 47.5582C69.3497 47.1345 68.8016 46.8949 68.2284 46.8949H21.1824C20.6091 46.8949 20.061 47.1345 19.6581 47.5582C19.2554 47.9816 19.0304 48.5544 19.0304 49.1502V86.8348C19.0304 87.4306 19.2554 88.0034 19.6581 88.4268C20.061 88.8505 20.6091 89.0901 21.1824 89.0901ZM66.0764 51.4055V84.5795H23.3343V51.4055H66.0764Z" fill="#00BD73" stroke="#00BD73" stroke-width="0.3"/>
<path d="M2.64926 38.0461H7.50415V86.8439C7.50415 87.4397 7.72913 88.0125 8.13181 88.436C8.53473 88.8597 9.08286 89.0992 9.65611 89.0992H79.7246C80.2978 89.0992 80.8459 88.8597 81.2489 88.436C81.6515 88.0125 81.8765 87.4397 81.8765 86.8439V38.0461H86.7314V38.0462L86.7379 38.0459C87.118 38.0295 87.4868 37.9077 87.8067 37.6938C88.1266 37.4798 88.3863 37.1814 88.5601 36.8295C88.734 36.4776 88.8161 36.0842 88.7988 35.6888C88.7814 35.2935 88.6651 34.9095 88.461 34.5757L88.4606 34.5751L75.0095 12.7889C75.0092 12.7883 75.0088 12.7877 75.0085 12.7871C74.7619 12.3637 74.3812 12.0426 73.9309 11.8814C73.9304 11.8812 73.9298 11.881 73.9293 11.8808L45.3446 0.93456V0.934559L45.3442 0.934432C44.87 0.754148 44.3505 0.754148 43.8763 0.934431L43.876 0.93456L15.2912 11.8808C15.2907 11.881 15.2901 11.8812 15.2896 11.8814C14.8392 12.0426 14.4585 12.3638 14.2119 12.7873C14.2116 12.7878 14.2113 12.7883 14.211 12.7889L0.839774 34.5755L0.839567 34.5758C0.632001 34.916 0.515607 35.3081 0.501985 35.7109C0.488364 36.1137 0.577985 36.5133 0.76193 36.868C0.945896 37.2226 1.21771 37.5198 1.54969 37.7274C1.88174 37.9351 2.26147 38.0454 2.649 38.0461H2.64926ZM77.5726 35.7908V84.5886H11.8081V35.875C11.8081 35.2792 11.5831 34.7064 11.1804 34.283C10.7775 33.8592 10.2293 33.6197 9.65611 33.6197H6.68086L17.525 15.9333L44.6906 5.44592L71.8557 15.8493L82.6998 33.5355H79.7246C79.1513 33.5355 78.6032 33.775 78.2003 34.1988C77.7976 34.6222 77.5726 35.195 77.5726 35.7908Z" fill="#00BD73" stroke="#00BD73" stroke-width="0.3"/>
</svg>
