<svg width="101" height="130" viewBox="0 0 101 130" fill="none" xmlns="http://www.w3.org/2000/svg">
<path d="M25.2533 85.2339V84.9339H24.9533H22.4043H22.1043V85.2339V87.7829V88.0829H22.4043H24.9533H25.2533V87.7829V85.2339Z" fill="#0057BD" stroke="#0057BD" stroke-width="0.6"/>
<path d="M29.3835 90.844C30.2831 91.3356 31.3048 91.559 32.3274 91.4876C33.0496 91.5609 33.7783 91.4404 34.4386 91.1386C35.1 90.8362 35.6686 90.3629 36.0859 89.7674C36.4176 89.323 36.639 88.8062 36.732 88.2596L36.7321 88.2596L36.7325 88.2556C36.8011 87.476 36.8011 86.692 36.7327 85.9124V78.0022V77.9522H36.6827H34.3992H34.3492V78.0022V78.9517C33.9838 78.4311 33.4722 78.0286 32.8774 77.7963L32.8779 77.795L32.8661 77.7934C32.493 77.7413 32.1146 77.7411 31.7415 77.7928C31.1581 77.7724 30.5779 77.8879 30.0468 78.1302C29.5143 78.3731 29.0457 78.7367 28.6782 79.1922L28.6781 79.1921L28.6756 79.1958C27.9441 80.2881 27.5535 81.5731 27.5535 82.8877C27.5535 84.2024 27.9441 85.4874 28.6756 86.5797L28.6752 86.5799L28.6797 86.585C29.0487 87.0032 29.505 87.3356 30.0162 87.5587C30.5268 87.7814 31.0798 87.8899 31.6367 87.8764C32.1929 87.9158 32.7492 87.8007 33.244 87.5438C33.6886 87.3129 34.0681 86.9757 34.3492 86.5632V86.9236C34.3492 88.509 33.927 89.4882 33.1103 89.8491C32.7662 89.9066 32.415 89.9062 32.071 89.8481L32.0712 89.8466L32.0589 89.8475C31.4882 89.8909 30.9212 89.7284 30.4603 89.3897C30.4197 89.2295 30.4211 89.0613 30.4647 88.9016L30.4819 88.8384H30.4165H28.2923H28.2412L28.2423 88.8895C28.2511 89.2851 28.3603 89.6719 28.5596 90.0136C28.759 90.3554 29.0419 90.6408 29.3819 90.8431L29.3819 90.8431L29.3835 90.844ZM33.4588 85.0852L33.4583 85.0847L33.454 85.0916C33.291 85.3532 33.0621 85.5672 32.7902 85.7122C32.5183 85.8572 32.213 85.9281 31.905 85.9178L31.905 85.9177L31.9023 85.9177C31.4282 85.928 30.9672 85.7621 30.6085 85.452L30.6085 85.452L30.6074 85.451C30.2116 85.1284 29.9218 84.6944 29.7753 84.2053C29.7214 83.7163 29.7216 83.2229 29.7758 82.7339L29.7761 82.734V82.7284C29.7761 81.1958 30.1984 80.1621 31.1237 79.7487C31.4268 79.6662 31.7465 79.6666 32.0494 79.7497L32.0489 79.7517L32.0632 79.7515C32.3429 79.7485 32.6202 79.8021 32.8787 79.909C33.1365 80.0157 33.3701 80.1733 33.5656 80.3724C34.1395 81.0571 34.4211 81.94 34.3494 82.8306L34.3492 82.8329C34.3203 83.6637 34.0058 84.4592 33.4588 85.0852Z" fill="#0057BD" stroke="#0057BD" stroke-width="0.1"/>
<path d="M40.8189 84.7891C40.6243 84.3223 40.5179 83.8236 40.5051 83.3184H47.1451H47.1942L47.1951 83.2693C47.2089 82.5482 47.1191 81.8288 46.9284 81.1331C46.7512 80.1521 46.2344 79.2647 45.4685 78.6264C44.7022 77.9878 43.7355 77.6395 42.7381 77.6425C42.1077 77.6279 41.4827 77.7613 40.9133 78.032C40.3437 78.3028 39.8456 78.7034 39.4589 79.2016C38.6013 80.2775 38.1635 81.6282 38.2268 83.0027C38.1581 84.3206 38.578 85.6176 39.4062 86.6452L39.4062 86.6453L39.4075 86.6468C39.8402 87.1423 40.3784 87.5345 40.9825 87.7948C41.5859 88.0547 42.2398 88.1764 42.8963 88.1508C43.5603 88.1908 44.2242 88.0702 44.8317 87.7992C45.44 87.5278 45.9738 87.1136 46.3878 86.5918L46.3879 86.592L46.3905 86.588C46.6566 86.1792 46.8395 85.7219 46.9288 85.2423L46.9398 85.1832H46.8796H44.8086H44.769L44.7599 85.2217C44.7045 85.4566 44.5909 85.6737 44.4294 85.8531C44.2688 86.0315 44.0661 86.1669 43.8398 86.2468C43.5486 86.2998 43.2502 86.2996 42.959 86.2461L42.9593 86.2445L42.9465 86.2454C42.4803 86.2782 42.0168 86.1527 41.6309 85.8892C41.2451 85.6257 40.9595 85.2396 40.8205 84.7935L40.8207 84.7934L40.8189 84.7891ZM42.7243 79.5993L42.7322 79.6015L42.7403 79.601C43.1089 79.581 43.4748 79.6742 43.7888 79.8682C44.1029 80.0622 44.3501 80.3476 44.4972 80.6862L44.4971 80.6863L44.4989 80.6897C44.7218 81.1093 44.8463 81.5739 44.8633 82.0482L40.5597 81.8926C40.5861 81.4494 40.7079 81.0168 40.917 80.6246C41.1326 80.2204 41.4356 79.8693 41.8038 79.5969C42.1054 79.5158 42.4231 79.5166 42.7243 79.5993Z" fill="#0057BD" stroke="#0057BD" stroke-width="0.1"/>
<path d="M53.201 88.118C54.0242 88.1191 54.835 87.9164 55.5609 87.528L55.5609 87.528L55.5617 87.5276C56.5572 86.9726 57.2916 86.045 57.6033 84.9486L57.604 84.9488L57.6049 84.9408C57.6861 84.2502 57.6862 83.5524 57.6053 82.8617C57.634 81.9072 57.4512 80.9582 57.0701 80.0826L57.0698 80.0819C56.6445 79.1426 55.9032 78.3823 54.975 77.9334L54.975 77.9332L54.9712 77.9317C54.3899 77.7079 53.7709 77.5985 53.1481 77.6098C52.4654 77.5846 51.7861 77.7168 51.1626 77.996C50.5386 78.2753 49.9873 78.6945 49.5512 79.221L49.5512 79.2209L49.5498 79.2228C48.7741 80.2546 48.3768 81.5217 48.4246 82.8116C48.4181 83.7872 48.6187 84.7531 49.013 85.6455L49.0129 85.6455L49.0136 85.6468C49.4834 86.6302 50.3092 87.3984 51.3239 87.796L51.3239 87.796L51.3251 87.7964C51.9262 88.0147 52.5615 88.1236 53.201 88.118ZM53.201 88.118C53.2009 88.118 53.2008 88.118 53.2007 88.118L53.2008 88.068L53.2012 88.118C53.2011 88.118 53.201 88.118 53.201 88.118ZM54.7834 85.5691H54.8474C54.6623 85.7827 54.4343 85.9553 54.1777 86.0756C53.8895 86.2107 53.5736 86.2758 53.2555 86.2656L53.254 86.2656C52.7016 86.2643 52.1668 86.0719 51.7401 85.7211C51.3137 85.3705 51.0216 84.8832 50.9134 84.3418C50.8293 83.8377 50.8293 83.3231 50.9135 82.819L50.9148 82.8114L50.9137 82.8038C50.8257 82.1838 50.9286 81.5517 51.2086 80.9916C51.4877 80.4335 51.9295 79.9732 52.4757 79.6715C52.7796 79.5964 53.0973 79.5969 53.401 79.6731L53.4006 79.6748L53.414 79.6746C53.7651 79.6685 54.1127 79.7453 54.4286 79.8987C54.7441 80.052 55.0192 80.2774 55.2313 80.5567C55.7416 81.2917 55.9822 82.1804 55.9123 83.0724L55.9122 83.0734C55.8586 83.9757 55.4872 84.8299 54.8639 85.4846L54.7834 85.5691Z" fill="#0057BD" stroke="#0057BD" stroke-width="0.1"/>
<path d="M62.376 73.6094V73.3094H62.076H59.8457H59.5457V73.6094V75.7335V76.0335H59.8457H62.076H62.376V75.7335V73.6094Z" fill="#0057BD" stroke="#0057BD" stroke-width="0.6"/>
<path d="M59.8928 87.9303H59.8911L59.8945 87.9431C60.016 88.4047 60.016 88.8898 59.8945 89.3514L59.8928 89.351V89.3641C59.8928 89.4677 59.822 89.5474 59.6908 89.6036C59.56 89.6597 59.3816 89.6859 59.1994 89.6859H58.6152H58.5652V89.7359V91.2759V91.3259H58.6152H59.4114C59.9153 91.3328 60.4139 91.222 60.8674 91.0022L60.8676 91.0021C61.247 90.8159 61.5539 90.509 61.7401 90.1296L61.7406 90.1299L61.7429 90.1226C62.0098 89.2769 62.1186 88.3892 62.0639 87.504V78V77.95H62.0139H59.9428H59.8928V78V87.9303Z" fill="#0057BD" stroke="#0057BD" stroke-width="0.1"/>
<path d="M70.8 82.3925L70.8 82.3925L70.7991 82.3922C70.0247 82.0834 69.2219 81.8514 68.4021 81.6995L67.2439 81.3836C67.0546 81.2538 66.8991 81.0804 66.7905 80.8781C66.7389 80.7359 66.7393 80.58 66.7917 80.438L66.7978 80.4213L66.792 80.4044C66.7198 80.1942 66.7188 79.966 66.7891 79.7553C66.9581 79.5559 67.1865 79.4158 67.4409 79.3555H68.0192C68.4903 79.3555 68.8637 79.4602 69.1313 79.6577C69.3977 79.8544 69.5643 80.1468 69.6159 80.5335L69.6217 80.5769H69.6654H71.8427H71.8938L71.8927 80.5258C71.881 79.975 71.6909 79.4428 71.351 79.0091L71.351 79.0091L71.3499 79.0078C70.9524 78.5349 70.4461 78.1655 69.8744 77.9312C69.3039 77.6974 68.6853 77.6051 68.0715 77.6623C67.1096 77.6062 66.1589 77.8919 65.3872 78.4689L65.3868 78.4684L65.3812 78.4742C65.1072 78.7581 64.9014 79.1007 64.7794 79.4759C64.6578 79.8501 64.6227 80.2469 64.6768 80.6366C64.6776 81.3642 64.9212 81.9736 65.4086 82.4543C65.8954 82.9343 66.6218 83.2825 67.5825 83.4961L69.1746 83.9207L69.1746 83.9207L69.1755 83.9209C69.5947 84.0251 69.9608 84.2801 70.2037 84.6372C70.2535 84.8168 70.2528 85.0069 70.2015 85.1862L70.1992 85.1944L70.1997 85.2029C70.2165 85.4899 70.1271 85.773 69.9487 85.9984C69.7712 86.2227 69.5177 86.3742 69.2362 86.4245H68.4972V86.4243L68.4929 86.4246C68.033 86.464 67.5743 86.336 67.2013 86.064C66.8926 85.7796 66.6923 85.3966 66.635 84.9807L66.629 84.9376H66.5854H64.4082H64.3516L64.3586 84.9938C64.4181 85.4693 64.5718 85.9283 64.8106 86.3438C65.0495 86.7593 65.3688 87.1231 65.7498 87.4138C66.1308 87.7046 66.5659 87.9166 67.0297 88.0373C67.4919 88.1576 67.9734 88.185 68.4463 88.1178C69.4738 88.1725 70.4857 87.8475 71.2891 87.2044C71.6503 86.9362 71.9419 86.5852 72.1393 86.1809C72.3368 85.7767 72.4343 85.3309 72.4237 84.8812C72.4325 84.3518 72.2826 83.832 71.9934 83.3885C71.704 82.9448 71.2884 82.5979 70.8 82.3925Z" fill="#0057BD" stroke="#0057BD" stroke-width="0.1"/>
<path d="M78.3798 88.1202C79.203 88.1213 80.0138 87.9186 80.7397 87.5302L80.7397 87.5302L80.7405 87.5298C81.7361 86.9748 82.4705 86.0472 82.7822 84.9508L82.7828 84.951L82.7837 84.943C82.8649 84.2523 82.8651 83.5546 82.7841 82.8639C82.8128 81.9094 82.63 80.9604 82.2489 80.0848L82.2486 80.0841C81.8233 79.1448 81.082 78.3845 80.1538 77.9356L80.1538 77.9354L80.1501 77.934C79.5863 77.7143 78.9856 77.605 78.3805 77.612C77.6966 77.5784 77.0143 77.7068 76.3893 77.9867C75.7639 78.2667 75.2134 78.6906 74.7827 79.2236L74.7827 79.2237C73.9668 80.2376 73.5476 81.5137 73.6034 82.8139C73.597 83.7895 73.7975 84.7553 74.1918 85.6477L74.1917 85.6477L74.1924 85.649C74.6622 86.6324 75.488 87.4006 76.5027 87.7982L76.5027 87.7982L76.5039 87.7986C77.105 88.0169 77.7403 88.1258 78.3798 88.1202ZM78.3798 88.1202C78.3797 88.1202 78.3796 88.1202 78.3795 88.1202L78.3796 88.0702L78.38 88.1202C78.3799 88.1202 78.3798 88.1202 78.3798 88.1202ZM79.9622 85.5713H80.0262C79.8411 85.7848 79.6131 85.9575 79.3565 86.0778C79.0684 86.2129 78.7524 86.278 78.4343 86.2678L78.4328 86.2678C77.8804 86.2665 77.3456 86.0741 76.9189 85.7233C76.4925 85.3727 76.2004 84.8854 76.0922 84.344C76.0081 83.8399 76.0081 83.3253 76.0923 82.8212L76.0936 82.8136L76.0925 82.806C76.0045 82.186 76.1074 81.5539 76.3874 80.9938C76.6665 80.4357 77.1084 79.9754 77.6545 79.6737C77.9584 79.5986 78.2761 79.5991 78.5798 79.6753L78.5794 79.677L78.5929 79.6768C78.944 79.6707 79.2915 79.7475 79.6074 79.9009C79.923 80.0542 80.198 80.2796 80.4101 80.5589C80.9204 81.2939 81.161 82.1826 81.0911 83.0746L81.091 83.0755C81.0374 83.9779 80.666 84.8321 80.0427 85.4868L79.9622 85.5713Z" fill="#0057BD" stroke="#0057BD" stroke-width="0.1"/>
<path d="M90.7425 82.0997C90.8175 81.5535 90.8175 80.9997 90.7425 80.4535C90.6275 80.1523 90.4238 79.8931 90.1584 79.7101C89.8511 79.5346 89.5032 79.4431 89.1494 79.4445C88.7133 79.4367 88.2859 79.5668 87.928 79.8163L90.7425 82.0997ZM90.7425 82.0997V87.7318V87.7818H90.7925H92.7635H92.8135V87.7318M90.7425 82.0997L92.8135 87.7318M92.8135 87.7318V81.5156V87.7318ZM91.2958 77.966L91.2959 77.966L91.2942 77.9652C90.821 77.7502 90.3068 77.64 89.787 77.6421C89.1941 77.6302 88.6076 77.7668 88.0809 78.0396C87.6009 78.2881 87.1845 78.6426 86.8629 79.0753V78.0107V77.9607H86.8129H84.7949H84.7449V78.0107V87.7818V87.8318H84.7949H86.866H86.916V87.7818V82.8963H86.916L86.9159 82.8935C86.8767 82.178 86.9841 81.462 87.2315 80.7894L87.2316 80.7892C87.369 80.4101 87.6226 80.0841 87.9561 79.8576L87.9561 79.8576L87.9566 79.8573C88.3058 79.6139 88.7229 79.4869 89.1485 79.4945L89.1496 79.4945C89.4939 79.4931 89.8326 79.582 90.1317 79.7524C90.3865 79.9285 90.5823 80.1772 90.6938 80.466C90.7673 81.0058 90.767 81.5532 90.693 82.0929L90.6925 82.0929V82.0997V87.7818V87.8318H90.7425H92.8135H92.8635V87.7818V81.517C92.9091 80.731 92.781 79.9445 92.4882 79.2135L92.4883 79.2135L92.4875 79.2118C92.2473 78.6706 91.8259 78.23 91.2958 77.966Z" fill="#0057BD" stroke="#0057BD" stroke-width="0.1"/>
<path d="M91.5759 112.517V106.498H91.5945C93.7866 106.498 95.889 105.627 97.4391 104.077C98.9892 102.527 99.86 100.425 99.86 98.2324V62.3876C99.86 60.1954 98.9892 58.0931 97.4391 56.543C95.889 54.9929 93.7866 54.1221 91.5945 54.1221H91.5759V40.8807V40.8656L91.5743 40.8505C91.2619 37.7578 89.9016 34.8649 87.7191 32.6514L87.7177 32.6499L59.6259 4.55821L59.6244 4.55672C57.411 2.37425 54.518 1.01397 51.4253 0.701519L51.4103 0.7H51.3952H16.931C12.6263 0.7 8.49787 2.41005 5.45396 5.45396C2.41005 8.49787 0.7 12.6263 0.7 16.931V112.517C0.7 116.822 2.41005 120.95 5.45396 123.994C8.49787 127.038 12.6263 128.748 16.931 128.748H75.3448C79.6496 128.748 83.778 127.038 86.8219 123.994C89.8658 120.95 91.5759 116.822 91.5759 112.517ZM54.4034 4.77398C54.8559 4.95764 55.284 5.19786 55.6772 5.4893L55.6917 5.50003L55.7074 5.50895C56.3238 5.86007 56.8917 6.29023 57.3967 6.78851C57.3969 6.7888 57.3972 6.78908 57.3975 6.78937L85.2752 34.7202L85.2786 34.7235C85.8766 35.3043 86.3772 35.9776 86.7613 36.7175L86.7717 36.7375L86.7849 36.7557C86.9915 37.0398 87.1703 37.3426 87.3192 37.66H58.1428C57.1913 37.6376 56.282 37.2628 55.591 36.6082C54.9019 35.9554 54.479 35.0707 54.4034 34.1248V4.77398ZM88.3207 112.517C88.3207 115.959 86.9536 119.259 84.5201 121.693C82.0867 124.126 78.7862 125.493 75.3448 125.493H16.931C15.227 125.493 13.5397 125.157 11.9654 124.505C10.3911 123.853 8.96063 122.897 7.75571 121.693C5.32227 119.259 3.95517 115.959 3.95517 112.517V16.931C3.95517 13.4896 5.32227 10.1892 7.75571 7.75571C10.1892 5.32227 13.4896 3.95517 16.931 3.95517H51.0952V34.1366C51.0952 36.0048 51.8373 37.7965 53.1584 39.1175C54.4794 40.4385 56.2711 41.1807 58.1393 41.1807H88.3207V54.1221H23.4628C21.2706 54.1221 19.1682 54.9929 17.6182 56.543C16.0681 58.0931 15.1972 60.1954 15.1972 62.3876V98.2324C15.1972 100.425 16.0681 102.527 17.6182 104.077C19.1682 105.627 21.2706 106.498 23.4628 106.498H88.3207V112.517ZM96.6048 98.2324C96.6048 99.5612 96.077 100.836 95.1373 101.775C94.1977 102.715 92.9233 103.243 91.5945 103.243H23.4628C22.1339 103.243 20.8595 102.715 19.9199 101.775C18.9803 100.836 18.4524 99.5612 18.4524 98.2324V62.3876C18.4524 61.0588 18.9803 59.7844 19.9199 58.8447C20.8595 57.9051 22.1339 57.3772 23.4628 57.3772H91.5945C92.9233 57.3772 94.1977 57.9051 95.1373 58.8447C96.077 59.7844 96.6048 61.0588 96.6048 62.3876V98.2324Z" fill="#0057BD" stroke="#0057BD" stroke-width="0.6"/>
</svg>
