<svg width="100" height="100" viewBox="0 0 100 100" fill="none" xmlns="http://www.w3.org/2000/svg">
<path d="M61.5151 14.9787L75.4911 29.6517L75.5082 29.6783L75.5514 29.7193C75.6509 29.8139 75.7301 29.9277 75.7843 30.0538L76.2437 29.8564L75.7844 30.0538C75.8354 30.1725 75.8632 30.2997 75.8665 30.4287C75.8595 30.4864 75.8473 30.5433 75.83 30.5987L75.8072 30.6716V30.7479L75.8072 73.5369L75.8072 73.5399C75.822 75.9845 74.8665 78.3351 73.1504 80.0761C71.4348 81.8167 69.0989 82.8059 66.655 82.8268H35.7022C33.2583 82.8059 30.9224 81.8167 29.2068 80.0761C27.4907 78.3351 26.5352 75.9845 26.55 73.5399V73.5369L26.55 23.9501L26.55 23.947C26.5352 21.5025 27.4907 19.1519 29.2068 17.4108C30.9224 15.6703 33.2582 14.6811 35.7019 14.6602H60.7732C60.7733 14.6602 60.7733 14.6602 60.7733 14.6602C60.912 14.6602 61.0493 14.6884 61.1767 14.7431C61.3042 14.7978 61.4192 14.8779 61.5148 14.9784L61.5151 14.9787ZM62.3569 18.8351L61.4948 17.9301V19.18V28.9269V29.4269H61.9948H71.2786H72.4453L71.6406 28.5821L62.3569 18.8351ZM66.6574 80.7761H67.1574V80.7478C68.8682 80.5914 70.4743 79.8323 71.6836 78.5973C73.0074 77.2455 73.7511 75.4303 73.7564 73.5383V73.5369V31.9776V31.4776H73.2564H60.4694H60.4692C60.3345 31.4777 60.2012 31.4512 60.0768 31.3997C59.9524 31.3482 59.8393 31.2727 59.7441 31.1775L59.3906 31.5311L59.7441 31.1775C59.6489 31.0823 59.5734 30.9693 59.5219 30.8449C59.4704 30.7205 59.444 30.5871 59.4441 30.4525V30.4522V17.2109V16.7109H58.9441H35.6998V16.7107L35.6879 16.711C33.7964 16.7561 31.9973 17.5377 30.6735 18.8896C29.3498 20.2414 28.6061 22.0566 28.6008 23.9486V23.95L28.6007 73.5369L28.6008 73.5383C28.6061 75.4303 29.3498 77.2455 30.6735 78.5974C31.9973 79.9492 33.7964 80.7309 35.6879 80.7759L35.6879 80.7761H35.6998H66.6574Z" fill="#787878" stroke="#787878"/>
<path d="M64.479 44.2979H37.5732C37.1687 44.2979 36.7807 44.4586 36.4946 44.7446C36.2086 45.0307 36.0479 45.4187 36.0479 45.8232C36.0479 46.2278 36.2086 46.6158 36.4946 46.9018C36.7807 47.1879 37.1687 47.3486 37.5732 47.3486H64.479C64.8835 47.3486 65.2715 47.1879 65.5576 46.9018C65.8437 46.6158 66.0044 46.2278 66.0044 45.8232C66.0044 45.4187 65.8437 45.0307 65.5576 44.7446C65.2715 44.4586 64.8835 44.2979 64.479 44.2979Z" fill="#787878"/>
<path d="M64.479 56.4995H37.5732C37.1687 56.4995 36.7807 56.6602 36.4946 56.9463C36.2086 57.2324 36.0479 57.6203 36.0479 58.0249C36.0479 58.4295 36.2086 58.8174 36.4946 59.1035C36.7807 59.3896 37.1687 59.5503 37.5732 59.5503H64.479C64.8835 59.5503 65.2715 59.3896 65.5576 59.1035C65.8437 58.8174 66.0044 58.4295 66.0044 58.0249C66.0044 57.6203 65.8437 57.2324 65.5576 56.9463C65.2715 56.6602 64.8835 56.4995 64.479 56.4995Z" fill="#787878"/>
<path d="M64.479 68.6987H37.5732C37.1687 68.6987 36.7807 68.8594 36.4946 69.1455C36.2086 69.4316 36.0479 69.8196 36.0479 70.2241C36.0479 70.6287 36.2086 71.0167 36.4946 71.3027C36.7807 71.5888 37.1687 71.7495 37.5732 71.7495H64.479C64.8835 71.7495 65.2715 71.5888 65.5576 71.3027C65.8437 71.0167 66.0044 70.6287 66.0044 70.2241C66.0044 69.8196 65.8437 69.4316 65.5576 69.1455C65.2715 68.8594 64.8835 68.6987 64.479 68.6987Z" fill="#787878"/>
</svg>
