<svg width="67" height="69" viewBox="0 0 67 69" fill="none" xmlns="http://www.w3.org/2000/svg">
<path d="M34.6099 11.4385C37.7685 11.4385 40.3291 8.87791 40.3291 5.71925C40.3291 2.5606 37.7685 0 34.6099 0C31.4512 0 28.8906 2.5606 28.8906 5.71925C28.8906 8.87791 31.4512 11.4385 34.6099 11.4385Z" fill="#00BD73"/>
<path d="M20.2351 15.83C22.6433 14.0804 23.1771 10.7099 21.4275 8.30173C19.6779 5.89359 16.3074 5.35976 13.8993 7.10938C11.4912 8.859 10.9574 12.2295 12.707 14.6377C14.4566 17.0458 17.827 17.5796 20.2351 15.83Z" fill="#00BD73"/>
<path d="M10.9984 27.8748C11.8473 25.2621 10.4175 22.4559 7.80479 21.607C5.19213 20.7581 2.38598 22.1879 1.53707 24.8006C0.688172 27.4133 2.11798 30.2194 4.73064 31.0683C7.34331 31.9172 10.1495 30.4874 10.9984 27.8748Z" fill="#00BD73"/>
<path d="M10.5998 43.3026C9.82167 40.9076 7.24934 39.597 4.85439 40.3751C2.45943 41.1533 1.14877 43.7256 1.92694 46.1206C2.70511 48.5155 5.27743 49.8262 7.67239 49.048C10.0673 48.2699 11.378 45.6975 10.5998 43.3026Z" fill="#00BD73"/>
<path d="M19.504 56.2221C17.6517 54.8763 15.059 55.2869 13.7132 57.1393C12.3673 58.9917 12.778 61.5844 14.6303 62.9303C16.4827 64.2762 19.0754 63.8655 20.4212 62.0131C21.7671 60.1607 21.3564 57.568 19.504 56.2221Z" fill="#00BD73"/>
<path d="M34.6039 69.0008C36.6417 69.0008 38.2937 67.3488 38.2937 65.3109C38.2937 63.2731 36.6417 61.6211 34.6039 61.6211C32.5661 61.6211 30.9141 63.2731 30.9141 65.3109C30.9141 67.3488 32.5661 69.0008 34.6039 69.0008Z" fill="#00BD73"/>
<path d="M50.0661 56.8915C48.5842 57.9682 48.2557 60.0424 49.3324 61.5244C50.4091 63.0063 52.4832 63.3349 53.9652 62.2581C55.4471 61.1814 55.7756 59.1072 54.6989 57.6253C53.6222 56.1433 51.5481 55.8148 50.0661 56.8915Z" fill="#00BD73"/>
<path d="M60.0608 43.8139C59.5656 45.338 60.3997 46.9749 61.9237 47.4701C63.4478 47.9652 65.0847 47.1312 65.5799 45.6072C66.0751 44.0831 65.2411 42.4462 63.717 41.951C62.1929 41.4558 60.556 42.2899 60.0608 43.8139Z" fill="#00BD73"/>
<path d="M60.452 27.1055C60.8764 28.4118 62.2795 29.1267 63.5858 28.7023C64.8922 28.2778 65.6071 26.8748 65.1826 25.5684C64.7581 24.2621 63.3551 23.5472 62.0487 23.9717C60.7424 24.3961 60.0275 25.7992 60.452 27.1055Z" fill="#00BD73"/>
<path d="M50.8026 13.1469C51.7289 13.8198 53.0252 13.6145 53.6982 12.6882C54.3711 11.762 54.1658 10.4656 53.2396 9.79269C52.3133 9.11975 51.017 9.32508 50.344 10.2513C49.6711 11.1775 49.8764 12.4739 50.8026 13.1469Z" fill="#00BD73"/>
</svg>
