<svg height="100" width="100" xmlns="http://www.w3.org/2000/svg"><g fill="#000080"><path d="m13.996094 0c-1.380655.00013804-2.499862 1.1193453-2.5 2.5v67.5h-11.496094v22h11.496094v5.5c.000138 1.380655 1.119345 2.499862 2.5 2.5h72c1.380655-.000138 2.499862-1.119345 2.5-2.5v-75.875c.0265-1.112978.004-1.776696-.732422-2.589844l-18.302734-18.30273412c-.476411-.47657252-1.125019-.74066416-1.798829-.73242188zm2.5 5h48.902344l1.251953 14.568359c.104002 1.212054 1.065289 2.173342 2.277343 2.277344l14.56836 1.251953v71.902344h-67v-3h63.503906v-22h-63.503906zm54.27539 4.1152344 8.609375 8.6093746-7.927734-.68164zm-20.5 63.8847656c1.25941 0 2.20558.382227 2.839844 1.148438.638828.76621.97392 1.789229 1.00586 3.068359l-2.025391.125c-.086703-.715552-.275029-1.22878-.5625-1.539063-.282911-.316616-.70891-.476562-1.279297-.476562-.588633 0-1.049706.170245-1.382812.505859-.214466.215298-.322266.50234-.322266.863281 0 .329282.100002.611407.300781.845704.255532.297619.87766.60674 1.863281.929687.985621.322949 1.711643.659536 2.181641 1.007813.474557.341945.844717.814444 1.109375 1.416015.269221.595238.404297 1.330746.404297 2.210938 0 .797873-.159102 1.545633-.478516 2.242187-.319415.696556-.7714 1.216648-1.355469 1.558594-.584074.335612-1.312048.503906-2.183593.503906-1.268533 0-2.241976-.404307-2.921875-1.214844-.679895-.816868-1.08837-2.004748-1.220703-3.5625l1.972656-.265624c.118641.918184.35827 1.590887.71875 2.021484.36505.430599.856644.646484 1.472656.646484.65252 0 1.142161-.190373 1.470703-.570312.333101-.386271.498047-.834739.498047-1.347656 0-.329281-.069481-.607974-.210937-.835938-.136891-.234296-.37977-.436449-.726563-.607422-.237281-.113982-.776924-.318088-1.621094-.609375-1.086005-.373607-1.849054-.832373-2.287109-1.376953-.616018-.76621-.921875-1.700909-.921875-2.802734 0-.709219.144165-1.37014.431641-1.984375.29204-.620568.706997-1.093067 1.25-1.416016.547566-.322947 1.209313-.484375 1.980468-.484375zm10.292969 0c1.478434 0 2.65969.637361 3.544922 1.910156.889801 1.272797 1.335937 3.041623 1.335937 5.308594 0 2.247973-.441592 4.008455-1.322265 5.28125-.880673 1.266465-2.05738 1.900391-3.53125 1.900391-1.492121 0-2.677922-.630493-3.558594-1.890625-.880671-1.266465-1.322265-3.008298-1.322265-5.22461 0-1.418438.153258-2.6078.458984-3.570312.228153-.70922.539217-1.34658.93164-1.910156.396987-.563579.828834-.981616 1.298829-1.253907.625141-.367274 1.34727-.550781 2.164062-.550781zm-55.564453.236328h7.974609v2.357422h-2.970703v11.568359h-2.0253904v-11.568359h-2.9785156zm37.576172 0h2.019531v8.814453c0 1.152482-.07273 2.041542-.21875 2.66211-.196209.810538-.552736 1.461158-1.068359 1.955078-.515629.487588-1.194898.732422-2.039063.732422-.990191 0-1.753229-.38418-2.287109-1.150391-.533874-.772543-.802141-1.902529-.806641-3.390625l1.908203-.302734c.022798.797873.109829 1.360172.25586 1.689453.21903.500254.55087.75.998047.75.451747 0 .771897-.176639.958984-.53125.187084-.360942.279297-1.105269.279297-2.232422zm24.46289 0h1.970704l4.107422 9.300781v-9.300781h1.882812v13.925781h-2.033203l-4.044922-9.080078v9.080078h-1.882813zm-6.455078 2.166016c-.835037 0-1.506514.399393-2.017578 1.197265-.511061.79154-.767578 1.987766-.767578 3.589844 0 1.576748.262358 2.774927.78711 3.591797.52475.810537 1.190383 1.214844 1.998046 1.214844s1.4707-.400874 1.986328-1.205078c.520187-.810537.779297-2.021977.779297-3.636719 0-1.595744-.253265-2.789012-.759765-3.574219-.501941-.785208-1.170818-1.177734-2.00586-1.177734zm-44.050781 1.443359c1.099697-.000002 2.00041.499967 2.703125 1.494141.702709.987842 1.054688 2.236575 1.054688 3.75 0 1.526089-.356522 2.793942-1.06836 3.800781-.707279 1.000507-1.598899 1.5-2.675781 1.5-.666207 0-1.303266-.20902-1.910156-.626953-.602326-.417933-1.060151-1.02978-1.375-1.833984-.314855-.810538-.472657-1.794311-.472657-2.953126 0-.886524.157802-1.744683.472657-2.574218.314849-.829534.760985-1.461508 1.335937-1.898438.579505-.436931 1.223709-.658203 1.935547-.658203zm9.273438 0c.844165-.000001 1.561757.460719 2.15039 1.378906s.882813 2.19782.882813 3.837891c0 1.684398-.297428 2.994458-.890625 3.931641-.593203.930852-1.312084 1.396484-2.15625 1.396484-.401552 0-.765208-.110399-1.09375-.332031-.323978-.22163-.666858-.602377-1.027344-1.140625v5.082031h-1.923828v-13.923828h1.792969v1.482422c.232717-.506587.548324-.919713.945312-1.236328.396983-.316616.836622-.476563 1.320313-.476563zm7.865234 0c1.099698-.000002 2.000415.499967 2.703125 1.494141.702715.987842 1.054688 2.236575 1.054688 3.75-.000001 1.526089-.354564 2.793942-1.066407 3.800781-.707274 1.000507-1.600852 1.5-2.677734 1.5-.666213 0-1.303272-.20902-1.910156-.626953-.602325-.417933-1.060145-1.02978-1.375-1.833984-.31485-.810538-.472657-1.794311-.472657-2.953126 0-.886524.157807-1.744683.472657-2.574218.314855-.829534.760991-1.461508 1.335937-1.898438.57951-.436931 1.223704-.658203 1.935547-.658203zm-8.384766 2.109375c-.469992 0-.859631.25318-1.169921.759766-.310292.500253-.466797 1.246534-.466797 2.234375 0 1.133486.16235 1.971046.486328 2.515625.323978.538248.720113.80664 1.185547.80664.447183 0 .818641-.246313 1.115234-.740234.296604-.500254.445312-1.317687.445312-2.451172 0-1.057498-.153263-1.842551-.458984-2.355469-.305727-.512919-.684972-.769531-1.136719-.769531zm-8.746093.06836c-.501937-.000001-.925355.264961-1.267578.796874-.342234.531916-.511719 1.298322-.511719 2.298829 0 1.000506.169485 1.766912.511719 2.298828.342224.531914.765641.796875 1.267578.796875.501936 0 .922095-.264961 1.259765-.796875.34223-.531916.511719-1.305189.511719-2.31836 0-.987842-.169489-1.747382-.511719-2.279297-.33767-.531913-.757829-.796874-1.259765-.796874zm17.136718 0c-.501936-.000001-.92339.264961-1.265625.796874-.342229.531916-.513671 1.298322-.513671 2.298829-.000001 1.000506.171442 1.766912.513671 2.298828.342235.531914.763689.796875 1.265625.796875s.924054-.264961 1.261719-.796875c.34223-.531916.511724-1.305189.511719-2.31836 0-.987842-.169489-1.747382-.511719-2.279297-.337665-.531913-.759783-.796874-1.261719-.796874z"/><path d="m51.25201 18v10.11h8.852106c-.49463-1.414-1.066749-2.719-1.706842-3.881-1.985761-3.606-4.507238-5.78-7.145264-6.229zm-2.504022.1c-2.468714.613-4.812548 2.735-6.681628 6.13-.640094 1.162-1.212212 2.467-1.706843 3.881h8.388471zm-5.76903.678c-5.005568 1.636-9.23247 4.973-12.004628 9.333h6.73836c.59445-1.851 1.318515-3.562 2.159716-5.089.897522-1.63 1.94268-3.067 3.106552-4.244zm14.728732.231c1.074155 1.134 2.043867 2.488 2.883537 4.013.841018 1.527 1.563562 3.238 2.156784 5.089h6.27766c-2.64482-4.16-6.611714-7.393-11.317981-9.102zm-28.112528 11.606c-1.197757 2.551-1.9332 5.362-2.095162 8.329h8.408032c.09731-2.941.479491-5.744 1.103333-8.329zm10.003367 0c-.661224 2.542-1.077406 5.357-1.183539 8.329h10.332998v-8.329zm11.653481 0v8.329h10.796636c-.106132-2.972-.522321-5.787-1.183542-8.329zm12.197322 0c.62215 2.586 1.003374 5.388 1.1004 8.329h7.950268c-.161962-2.967-.897406-5.778-2.095161-8.329zm-35.949332 10.832c.161962 2.967.897405 5.778 2.095162 8.329h7.297853c-.587798-2.593-.934178-5.396-.998677-8.329zm10.898363 0c.07035 2.962.451395 5.774 1.074965 8.329h9.27466v-8.329zm12.853647 0v8.329h9.738295c.623567-2.555 1.004638-5.367 1.074969-8.329zm13.30946 0c-.06448 2.932-.408374 5.736-.994761 8.329h6.83813c1.197755-2.551 1.933199-5.362 2.095161-8.329zm-33.58714 10.833c2.646833 4.162 6.617775 7.397 11.328737 9.105-.894434-1.026-1.710698-2.207-2.430661-3.514-.916929-1.666-1.697371-3.546-2.319151-5.591zm9.212057 0c.531489 1.61 1.164592 3.084 1.879973 4.383 1.752589 3.182 3.922987 5.246 6.221905 5.997.153328.01.305548.03.459723.03v-10.415zm11.065623 0v10.415c.35725-.02.712595-.04 1.065187-.08 2.246341-.789 4.363506-2.834 6.080077-5.951.71538-1.299 1.348482-2.773 1.879972-4.383zm11.656415 0c-.620622 2.045-1.400321 3.926-2.317198 5.591-.657021 1.193-1.393657 2.282-2.196887 3.243 4.4049-1.766 8.116518-4.879 10.631331-8.834z"/></g></svg>