<svg width="60" height="61" viewBox="0 0 60 61" fill="none" xmlns="http://www.w3.org/2000/svg">
<path d="M19.6549 40.247L24.4135 47.6933H21.1032L17.9997 42.3154L14.8963 47.6933H11.5859L16.3446 40.247L12.2066 33.2144H15.3101L17.9997 38.1786L20.8963 33.2144H23.9997L19.6549 40.247Z" fill="#0057BD"/>
<path d="M35.9997 45.418V47.9001H26.4824V33.4211H29.1721V45.418H35.9997Z" fill="#0057BD"/>
<path d="M48.4138 43.5565C48.4138 44.7975 47.7931 45.8317 46.7586 46.6591C45.7241 47.4865 44.4827 48.107 42.6207 48.107C42 48.107 41.5862 48.107 40.9655 47.9002C40.3448 47.6933 39.931 47.6933 39.5172 47.4865C39.1034 47.2796 38.6896 47.2796 38.4827 47.0728C38.0689 46.866 37.862 46.866 37.6551 46.6591L37.4482 46.4523L38.4827 44.177C38.6896 44.177 38.8965 44.3838 39.1034 44.5907C39.3103 44.7975 39.931 45.0044 40.5517 45.2112C41.1724 45.4181 41.7931 45.6249 42.4138 45.6249C43.2413 45.6249 44.0689 45.4181 44.4827 45.0044C45.1034 44.5907 45.3103 44.177 45.3103 43.5565C45.3103 43.1428 45.1034 42.7291 44.6896 42.5223C44.4827 42.1086 44.0689 41.9017 43.4482 41.9017C42.8276 41.6949 42.2069 41.6949 41.5862 41.4881L39.7241 40.8675C39.1034 40.6607 38.6896 40.247 38.2758 39.6265C37.862 39.0059 37.6551 38.3854 37.6551 37.558C37.6551 36.317 38.2758 35.2828 39.3103 34.4554C40.3448 33.628 41.5862 33.2144 43.2413 33.2144C44.0689 33.2144 44.8965 33.2144 45.7241 33.4212C46.5517 33.628 47.1724 33.8349 47.3793 34.0417L48 34.2486L46.5517 36.5238C45.5172 35.9033 44.4827 35.6965 43.0344 35.6965C42.4138 35.6965 41.7931 35.9033 41.1724 36.1102C40.7586 36.317 40.3448 36.7307 40.3448 37.3512C40.3448 37.7649 40.5517 38.1786 40.9655 38.3854C41.3793 38.5923 41.7931 38.7991 42.4138 39.0059C43.0344 39.2128 43.6551 39.2128 44.2758 39.4196L46.1379 40.0402C46.7586 40.247 47.1724 40.6607 47.5862 41.2812C48 41.9017 48.4138 42.7291 48.4138 43.5565Z" fill="#0057BD"/>
<path d="M50.6892 31.5592H9.30987C8.68918 31.5592 8.27539 31.1455 8.27539 30.525V1.15335C8.27539 0.532826 8.68918 0.119141 9.30987 0.119141H34.1375C34.3444 0.119141 34.7581 0.325983 34.965 0.325983L51.5168 17.0802C51.7237 17.2871 51.7237 17.4939 51.7237 17.9076V30.7318C51.7237 31.1455 51.3099 31.5592 50.6892 31.5592ZM10.3444 29.4908H49.6547V18.1144L33.7237 1.98072H10.3444V29.4908Z" fill="#0057BD"/>
<path d="M50.6892 60.1036H9.30987C8.68918 60.1036 8.27539 59.6899 8.27539 59.0694V50.7957C8.27539 50.1752 8.68918 49.7615 9.30987 49.7615H50.6892C51.3099 49.7615 51.7237 50.1752 51.7237 50.7957V59.0694C51.7237 59.4831 51.3099 60.1036 50.6892 60.1036ZM10.3444 58.0352H49.6547V51.8299H10.3444V58.0352Z" fill="#0057BD"/>
<path d="M50.6897 18.7352H34.138C33.5173 18.7352 33.1035 18.3215 33.1035 17.701V1.15358C33.1035 0.739896 33.3104 0.326211 33.7242 0.119368C34.138 -0.0874741 34.5518 0.119368 34.7587 0.326211L51.1035 16.8736C51.3104 17.0805 51.5173 17.2873 51.5173 17.701C51.7242 18.3215 51.3104 18.7352 50.6897 18.7352ZM35.1725 16.6668H48.207L35.1725 3.42885V16.6668Z" fill="#0057BD"/>
<path d="M58.9655 51.83H1.03448C0.413793 51.83 0 51.4163 0 50.7957V30.5252C0 29.9047 0.413793 29.491 1.03448 29.491H58.9655C59.5862 29.491 60 29.9047 60 30.5252V50.7957C60 51.2094 59.5862 51.83 58.9655 51.83ZM2.06897 49.7615H57.931V31.5594H2.06897V49.7615Z" fill="#0057BD"/>
</svg>
