<svg width="73" height="74" viewBox="0 0 73 74" fill="none" xmlns="http://www.w3.org/2000/svg">
<rect y="0.695312" width="72.9545" height="72.9545" rx="36.4773" fill="#00559F"/>
<path d="M46.4753 42.1719H43.1419V45.5052H46.4753M46.4753 35.5052H43.1419V38.8385H46.4753M49.8086 48.8385H36.4753V45.5052H39.8086V42.1719H36.4753V38.8385H39.8086V35.5052H36.4753V32.1719H49.8086M33.1419 28.8385H29.8086V25.5052H33.1419M33.1419 35.5052H29.8086V32.1719H33.1419M33.1419 42.1719H29.8086V38.8385H33.1419M33.1419 48.8385H29.8086V45.5052H33.1419M26.4753 28.8385H23.1419V25.5052H26.4753M26.4753 35.5052H23.1419V32.1719H26.4753M26.4753 42.1719H23.1419V38.8385H26.4753M26.4753 48.8385H23.1419V45.5052H26.4753M36.4753 28.8385V22.1719H19.8086V52.1719H53.1419V28.8385H36.4753Z" fill="white"/>
</svg>
